<mxfile host="app.diagrams.net" agent="Mozilla/5.0 (X11; Linux x86_64) AppleWebKit/537.36 (KHTML, like Gecko) Chrome/138.0.0.0 Safari/537.36" version="28.2.0">
  <diagram name="Página-1" id="c7Ie4DOSXPhJEW-mYa2Y">
    <mxGraphModel dx="1390" dy="789" grid="1" gridSize="10" guides="1" tooltips="1" connect="1" arrows="1" fold="1" page="1" pageScale="1" pageWidth="827" pageHeight="1169" math="0" shadow="0">
      <root>
        <mxCell id="0" />
        <mxCell id="1" parent="0" />
        <mxCell id="ZifJmnDVHh8M5HppRdxN-12" style="edgeStyle=orthogonalEdgeStyle;rounded=0;orthogonalLoop=1;jettySize=auto;html=1;entryX=0;entryY=0.5;entryDx=0;entryDy=0;" edge="1" parent="1" source="ZifJmnDVHh8M5HppRdxN-1">
          <mxGeometry relative="1" as="geometry">
            <mxPoint x="460" y="245" as="targetPoint" />
            <Array as="points">
              <mxPoint x="320" y="135" />
              <mxPoint x="320" y="245" />
            </Array>
          </mxGeometry>
        </mxCell>
        <mxCell id="ZifJmnDVHh8M5HppRdxN-1" value="Imagens Street View" style="shape=cylinder3;whiteSpace=wrap;html=1;boundedLbl=1;backgroundOutline=1;size=15;" vertex="1" parent="1">
          <mxGeometry x="220" y="90" width="70" height="90" as="geometry" />
        </mxCell>
        <mxCell id="ZifJmnDVHh8M5HppRdxN-5" value="" style="edgeStyle=orthogonalEdgeStyle;rounded=0;orthogonalLoop=1;jettySize=auto;html=1;" edge="1" parent="1" source="ZifJmnDVHh8M5HppRdxN-3" target="ZifJmnDVHh8M5HppRdxN-4">
          <mxGeometry relative="1" as="geometry" />
        </mxCell>
        <mxCell id="ZifJmnDVHh8M5HppRdxN-3" value="Actor" style="shape=umlActor;verticalLabelPosition=bottom;verticalAlign=top;html=1;outlineConnect=0;" vertex="1" parent="1">
          <mxGeometry x="80" y="300" width="30" height="60" as="geometry" />
        </mxCell>
        <mxCell id="ZifJmnDVHh8M5HppRdxN-11" style="edgeStyle=orthogonalEdgeStyle;rounded=0;orthogonalLoop=1;jettySize=auto;html=1;" edge="1" parent="1" source="ZifJmnDVHh8M5HppRdxN-4">
          <mxGeometry relative="1" as="geometry">
            <mxPoint x="460" y="245" as="targetPoint" />
            <Array as="points">
              <mxPoint x="320" y="330" />
              <mxPoint x="320" y="245" />
            </Array>
          </mxGeometry>
        </mxCell>
        <mxCell id="ZifJmnDVHh8M5HppRdxN-4" value="Imagens do Usuário" style="shape=cylinder3;whiteSpace=wrap;html=1;boundedLbl=1;backgroundOutline=1;size=15;" vertex="1" parent="1">
          <mxGeometry x="220" y="285" width="70" height="90" as="geometry" />
        </mxCell>
        <mxCell id="ZifJmnDVHh8M5HppRdxN-13" value="analise_cpted.json" style="swimlane;fontStyle=0;childLayout=stackLayout;horizontal=1;startSize=30;horizontalStack=0;resizeParent=1;resizeParentMax=0;resizeLast=0;collapsible=1;marginBottom=0;whiteSpace=wrap;html=1;" vertex="1" parent="1">
          <mxGeometry x="870" y="170" width="140" height="150" as="geometry" />
        </mxCell>
        <mxCell id="ZifJmnDVHh8M5HppRdxN-14" value="6x Critério" style="text;strokeColor=none;fillColor=none;align=left;verticalAlign=middle;spacingLeft=4;spacingRight=4;overflow=hidden;points=[[0,0.5],[1,0.5]];portConstraint=eastwest;rotatable=0;whiteSpace=wrap;html=1;" vertex="1" parent="ZifJmnDVHh8M5HppRdxN-13">
          <mxGeometry y="30" width="140" height="30" as="geometry" />
        </mxCell>
        <mxCell id="ZifJmnDVHh8M5HppRdxN-15" value="6x Nota" style="text;strokeColor=none;fillColor=none;align=left;verticalAlign=middle;spacingLeft=4;spacingRight=4;overflow=hidden;points=[[0,0.5],[1,0.5]];portConstraint=eastwest;rotatable=0;whiteSpace=wrap;html=1;" vertex="1" parent="ZifJmnDVHh8M5HppRdxN-13">
          <mxGeometry y="60" width="140" height="30" as="geometry" />
        </mxCell>
        <mxCell id="ZifJmnDVHh8M5HppRdxN-16" value="6x Comentário" style="text;strokeColor=none;fillColor=none;align=left;verticalAlign=middle;spacingLeft=4;spacingRight=4;overflow=hidden;points=[[0,0.5],[1,0.5]];portConstraint=eastwest;rotatable=0;whiteSpace=wrap;html=1;" vertex="1" parent="ZifJmnDVHh8M5HppRdxN-13">
          <mxGeometry y="90" width="140" height="30" as="geometry" />
        </mxCell>
        <mxCell id="ZifJmnDVHh8M5HppRdxN-27" value="Nota Geral" style="text;strokeColor=none;fillColor=none;align=left;verticalAlign=middle;spacingLeft=4;spacingRight=4;overflow=hidden;points=[[0,0.5],[1,0.5]];portConstraint=eastwest;rotatable=0;whiteSpace=wrap;html=1;" vertex="1" parent="ZifJmnDVHh8M5HppRdxN-13">
          <mxGeometry y="120" width="140" height="30" as="geometry" />
        </mxCell>
        <mxCell id="ZifJmnDVHh8M5HppRdxN-23" value="GET &#xa;/api/image-extract/{image_url}" style="text;whiteSpace=wrap;fontSize=9;" vertex="1" parent="1">
          <mxGeometry x="328" y="207" width="126" height="40" as="geometry" />
        </mxCell>
        <mxCell id="ZifJmnDVHh8M5HppRdxN-31" value="" style="group" vertex="1" connectable="0" parent="1">
          <mxGeometry x="660" y="160" width="287.5" height="495" as="geometry" />
        </mxCell>
        <mxCell id="ZifJmnDVHh8M5HppRdxN-32" value="" style="rounded=1;whiteSpace=wrap;html=1;container=0;" vertex="1" parent="ZifJmnDVHh8M5HppRdxN-31">
          <mxGeometry width="120" height="170" as="geometry" />
        </mxCell>
        <mxCell id="ZifJmnDVHh8M5HppRdxN-34" value="Tratamento dos dados e cálculo do risk score" style="text;html=1;align=center;verticalAlign=middle;whiteSpace=wrap;rounded=0;container=0;" vertex="1" parent="ZifJmnDVHh8M5HppRdxN-31">
          <mxGeometry x="15" y="130" width="90" height="30" as="geometry" />
        </mxCell>
        <mxCell id="ZifJmnDVHh8M5HppRdxN-35" value="&lt;b&gt;Risk Score&lt;/b&gt;" style="text;html=1;align=center;verticalAlign=middle;whiteSpace=wrap;rounded=0;fontSize=14;container=0;" vertex="1" parent="ZifJmnDVHh8M5HppRdxN-31">
          <mxGeometry x="15" y="10" width="90" height="30" as="geometry" />
        </mxCell>
        <mxCell id="ZifJmnDVHh8M5HppRdxN-38" value="" style="shape=image;verticalLabelPosition=bottom;labelBackgroundColor=default;verticalAlign=top;aspect=fixed;imageAspect=0;image=data:image/png,iVBORw0KGgoAAAANSUhEUgAABLAAAASwCAYAAADrIbPPAAAgAElEQVR4Aey9CbRc112nK9shIwkkgYQpvAykoR1wBlm1d8mGCGJJVkKg3wORBy+dZujnNCSS7lDDqVNKUys0xNA8aEOHxoll+Q6S7q25So4ZBG1CB2jAkGeswXkQaBKGEENIsBPP3m/tqntu1d23xjPXqS9r7XVq160zfXV9z9GX3/9/9uzhfxCAAAQgAAEIQCCWBNRVN1p3vzhdLH992mp9k7Aae/fla9+RylcPp6z6UZlv/ICwGrfokSo0ctKq52Wh/tMpq36rtGq/LKza7cKqrUqrVhZWrSqs2gVnpKza7wmrel9n5Gt/IqzaJ/vG3wqr+rmBI1/9nOiM2jMiX1PjR1WJfPXz3XWcdQcuPynyVWd8XOSr922Nj4p89UJ3VO6WuVpZD2FVV0WuervIV/9LKle9VeQq75NWJS9ylZ8QVvUWadXekbIqR6VVvSlllb9LWOW9olC+dm++/I03WmdevKdUujqWXzkHBQEIQAACEIAABCAAAQhAAAIQgAAEwiBwoHTvs/Zn6i9zpJOWKMJqfJ+w6j8qCrWFlNX4SWnVf0Hma3eIfL0irMYFUWj8sbDqF4VV/6Sw6p8TVv1RYdWV+1FTwvJ5TCSs+qVWR15pgRXhqCiRHzq+KPKVfxD5yidFvvwnIl/+qMiVP5LKVTY7cixb+c8yVy5qKZbKVn8wnS3fLHI1eX2u/M36+722VH52GL9P7AMCEIAABCAAAQhAAAIQgAAEIAABCIwkoGXUXrv2tcJuXSesxqGU1fjBlNV4r5ZQotC8LVVorgurcY8oNP4wVaj/hbDqn3cvnbwIq/51fRZXWoQlT17tFlu5ihLTj0dErvJpkav8mchW7hW56obMVX85lav8pMhX35PKVo6ms+U378tXX6elF8mvkf+58UMIQAACEIAABCAAAQhAAAIQgAAEegTUVfuy5a+Rdu1Nsth8e7rQ+DFZaJzUQkoUGmdFoXGvKDQupQqNz4pCQ40cVkOJzugXSFG+Rl51E19DU1e7xZVOaE0vriZYp6xEbtd4JpUrf1bkyhdFrvybIr+5IrLlD8jc5nEtu0S+fOP1VvXV6cXy83q/r7yCAAQgAAEIQAACEIAABCAAAQhAIFEEdFnX/pON10ircUDYjXdK3Ruq0LxN2o2qtBq/JwuNT8lC4wlZaChnjBRUowQW8mpAMivKckFn37GVV4OE1qj3/lnky5e06JK58h061ZXKbf67Tk+vbPW1B0qnn5uo/3g5GQhAAAIQgAAEIAABCEAAAhCAQFIIiNI9L9pv1781Xah/t7Dr75GFxs/KQvOcKDR+XxYafysLjWccMTXJEnk1IrFF2eAEKatB6a1dqatRksrrz/5eZst/JHLlmsht/qLMVo6J7OZb04Xqtxw5ds9zkvLfPecBAQhAAAIQgAAEIAABCEAAAhCIHYEbcq2vSxWa3y7txg/LQuOnRKF1VhaafygLzX+Uhabqjl6CahJRNegzyCvklf+lg6HKqxHya1OJ3OYzIrv5qVR283dEZvNOmSkXU9nNH5SZc6LzJMbY/ZfPAUEAAhCAAAQgAAEIQAACEIAABGJGIF0qv2R/oZ5O260flXbzVlFoNmSh+YAsNL/Uk1SOrDKXyKteo/gREsrtUwhJXs1C8mqcvFIiuzlypLKbnxW5zY+K3OaHRHYzk8pufHfaKn+TfnBBzP5ccDgQgAAEIAABCEAAAhCAAAQgAIEgCairUifbr0rZrbeJQjMjC80PpQvN35WF1mfHSypTWjlz5BXyyul15SwT0/NqhJSaNNnVSV6NFFfjxJbIbj4uspuXRKZcE9nNn5KZzR8Qy+VrEVtB/q1k2xCAAAQgAAEIQAACEIAABCAQCoEbrbtfLPL1G4XVuKXTNL3Q/JgsNP/FvahyhFX/EnmFvHKklbNEXvWedOiLvBolv57QYktmy2WZ2yylshtH9+XPvm5PqXR1KH9k2AkEIAABCEAAAhCAAAQgAAEIQGBSAkePlq/Z977262Sx9X9Ju/XzstD8LVlo/oO/oqpfWjmvkVfIK0daOUvkVYjyapTY+rzusyWzm78gMpvv1FJL/52Y9G8Kn4MABCAAAQhAAAIQgAAEIAABCHgicKB073P3W+19wm7cIu3mf5N2839Ku/klaTdVZ2w3VHckU1BL5BXyypFWzhJ5FRN5tSW2NpTI7hhfFNmNPxCZjQ/K7Ma/Ty+deyMliJ7+HLMyBCAAAQhAAAIQgAAEIAABCDgErrfufnXabr5LFtq3Sbv1MWk3H9uWVY60cpbIK9WTSvWQXtOwXeS1wEJexVxemTLLmT8hshv3idzmbansxrs65YfOHx+WEIAABCAAAQhAAAIQgAAEIACBQQT2l+ovSxfO/xtht34mXWj9trRbX5B2S/XGVsrKEVb9S+RVSMKqX4whr5BXZiP3wHtejSobHJa8cmTVZMvc5t+J7EZT5DYLMnPuwN7S+ecP+nvFexCAAAQgAAEIQAACEIAABCAwJwScdFXabt0u7dYlabee6cmqfnGlXyOvhNWIQFL1C6v+18gr5FUC5dXOkkNHeD3Zl9I6unf57FfNyZ9oThMCEIAABCAAAQhAAAIQgMD8EdANlIXV2Cvs1nLabjWl3frscFmFvBKFhtoeHXGFvBL5muoNp+9UlEvKBme0bNARU+6WmY2nZWbjgVRm41dSmXM/tHdh7Wvn7y86ZwwBCEAAAhCAAAQgAAEIQCBBBHTCStjtW6TdKku7/U+TC6t+gUXyiuRVv7jSr6OUVs6+kVdzKq+UyGzsHtmNT4rsudtT2Y2j6cXySxL0Z5xTgQAEIAABCEAAAhCAAAQgkDwC+082XiMLrR9P262KtFsPuRNWyCuSV6aw6p87AinKJfIKeWVKrHNKZLbHU2L53B+K5bMfkJnNmw6UTj83eX/tOSMIQAACEIAABCAAAQhAAAIzREA3N5YnmzdJu3mrtNv3eRdWyCvkVb+sMl9HKa2cfSOvkFcj5VW/yHJef0lkzl6QmXN5mdv41zP0J55DhQAEIAABCEAAAhCAAAQgMLsEUvnzr5eFti3t1u9Iu/WEv9LKEViUDVI2iLwSuYraPczG6VHNE/C0wcEN23f3xRpUMrj93nbqypFVkyw/ITIbvyiyG4dIZ83utZAjhwAEIAABCEAAAhCAAARiRuDIsXuek7abh6Xd/KC0m/8rGGHliCu9RF4hr5BXu8WVlllRySpzv8irbh8sV/LKFFxfFJlzTZHZ+BGebhizix+HAwEIQAACEIAABCAAAQjEn0CqUH+ptNs/LO1WTdqth4OXVo7AQl4hr5BXyKtNJbKjxsbulNSkaappPredsjJLBvXcF3llbucpkTn7UZnZWNqf3XhN/K8UHCEEIAABCEAAAhCAAAQgAIEICAi79XJZbP0HWWhdkHbryfCkFfKq0/fKaijkFfIKeTVKXOmfJVZemTJLn+uficy596cX178tgksCu4QABCAAAQhAAAIQgAAEIBAfAiJ3zzfIYvO4sFsflXbrqfClFfIKeWVKK2fuNE2PcknD9l7ZImWDPpYN7pZV4xNdl1OZcz9JE/j4XD85EghAAAIQgAAEIAABCEAgYALp0q+/RNjtW6Td1k3Yn45OWiGvkFeOrDKXUUorZ9/IK+SVWToYSNnglDLrrBLZs38ml8+dFNkzrw34csHmIQABCEAAAhCAAAQgAAEIhEvgQOne58ri+bdL+3xZ2u3Ho5dWyCvklSmtnLkjkKJcIq+QVzGVV5mzSuwcl2TmTH5/ZvVl4V5V2BsEIAABCEAAAhCAAAQgAAHfCKir9hdb3yHt9mlpt/9F2m3VG45AinJJw3Z6XjnSyllGKa2cfSOvkFczI6/6Zdbj+mmGqcy5/10/Oda3ywgbggAEIAABCEAAAhCAAAQgEBSBG/LtbxR2633Sbv9FT1ghr2ShqXaOhpIFb6OToio01NRLGrYrkXeklbN0BFKUS+QV8mom5VW/yNKv/0lkzn5QZjfeFNR1hu1CAAIQgAAEIAABCEAAAhBwReDaUvnZsnj+HdJu/6a0208PFldaYkWZuHL2TfKK5JUjrZxllNLK2TfyCnmVCHllyqz7Uktn3y2Orb/I1cWFlSAAAQhAAAIQgAAEIAABCPhBIF08//XSbuel3fr0cGkVF3GlBRbyCnnlSCtn6QikKJfIK+RVIuWVEstnnfGozJwry8yZm/y49rANCEAAAhCAAAQgAAEIQAAC4wmUSlen7Nbb0vb5u0enrSgb3FkyqEsIvZUM6vWnLhd01qFskLLBXEWJgaOsegIpytebSuQ2lchGOTaUyIYwMqaw6p/H5GmDO5u1m8mq8fOevHIklrP8eCpz5sfSi+Xnjb/g8AkIQAACEIAABCAAAQhAAAJTErgh13qhsNu3SLt9ZXTaKm7iiuRVN3XVUMKqx2TUlLB8Hrt6WjkJq2HLKBNXzr5JXvXEGfJKdKRW4uWVI7H08vNi6cxtcuHcK6e8HPFxCEAAAhCAAAQgAAEIQAACuwlcb939alFo/6K021+YXFxRNrgzfUXyqivPfJZWjgRDXg1JVg1LXDnvR5m2cva9Ja5IXimRmSt51S+ynhLL52pi6cx37r4C8Q4EIAABCEAAAhCAAAQgAIExBESxLaXdqku7/dR04gp5hbwalPRCXok8yate4soQWJQNxkBgnR1fFjiurHB42WC/sBr1+j65tP6Oo0fL14y5RPFjCEAAAhCAAAQgAAEIQGDeCYhi+0ZZbJ+fXlo5pYPO0/6iXtKwPT4N25FXyCtHWPUvKRucw7LBUfJKieUzzvgrsXzmxHWZ1RfM+zWZ84cABCAAAQhAAAIQgAAE+gmUSleLYvv7pN2+z724InlF8orkVU9UOWmr/iU9r7oJLMoGu+JKN26f27LBASJrW145EksvH5KZM6X0Yvkl/ZcsXkMAAhCAAAQgAAEIQAACc0dAXSWL598uiq2PexNXyCvkFfIKedWfrhr2GnmFvDpryKuB4qpfYunXD+uG7/uy5a+Zu8s0JwwBCEAAAhCAAAQgAIH5JtAVV7LY/lNZdEr/vCyjLhd09k/ZIGWD5lMH+xNQUb0meUXySqet+gfJK9HplzWRvOqXWY8gsub77oWzhwAEIAABCEAAAhCYIwLpk+f/jSy27++IK+SV2pmcanqc87RBnjZoSjLkFfKqX1xRNtgVV04Ka2qB5cisR8Ty+s+lCisvnaPLN6cKAQhAAAIQgAAEIACB+SAg39cUotj+6La4Ql55lFWm7EJeIa+QV7ufMqhLCSkb7KWvSF65TF454spcPpxaOnOrOLb+ovm4knOWEIAABCAAAQhAAAIQSDCBdOH8t8ji+bIstp9BXpnSya858gp5hbxCXplJK3OOvPJZXvXLLN3sPX+gdPq5Cb6cc2oQgAAEIAABCEAAAhBIJoG9pfNfJez2r8pi+6kd4orkFckra1DDda/v1ZSwAhh5s6fVuLkpkqKYUzZI2SDyamepoOeSwX5ZNer1X6aWz/7gnj3qqmRe2TkrCEAAAhCAAAQgAAEIJIjAgdK9zxJ2+xZZbD+0S1whr5BXyCs1+mmBXoUX8gp5hbyKSF5tiy25fOaPxPLZGxN0aedUIAABCEAAAhCAAAQgkCwCafvuw7LYvjJQXCGvkFfIK+RVTvekCnrQ84qeV07iylm6bta+LaXE8tTbeCa1fGZ939K5VyTrSs/ZQAACEIAABCAAAQhAYIYJ3FBqfV3ablWGiivkFfIKeYW8Clxc0bC9J650CoueVwH2vJpcbC2d+WJq6cxP0h9rhm9yOHQIQAACEIAABCAAgQQQKJWu3ioX/ALyyq+G7OO2Q8N2GrabZYaUDVI2SNlg1GWDoxNa60osr39SLJ15awKu/JwCBCAAAQhAAAIQgAAEZovAfvsjb0gX2388UlyRvCJ5RfKK5BXJKyWyG/6OjCms+uckr2KRvNouOezIKy2wuiNzpipy698wW1d8jhYCEIAABCAAAQhAAAIzSODaUvnZ6ZPt98ti+wnk1bi0lJ8/J3lF8ork1eD+WfS86pUOIq9iLa8cibW8/rBcWls6erR8zQzeBnDIEIAABCAAAQhAAAIQiD8BYbeuk8X2n44VVySvSF6RvCJ5RfLK39SVTnGRvFKDSwWdZu16OXWz9YDWMZJXPXmlxNJ6dyyvfzy9dO6N8b/6c4QQgAAEIAABCEAAAhCYEQJ7b7n9y2Sx9VOy2H4SedVU0vYzWTVuWySvSF6RvCJ5hbwaL65mTF45Emtp/XGxuP4f9XV2Rm4JOEwIQAACEIAABCAAAQjEk0Daan2TLLb/cCJxRfKK5BXJK5JXJK9IXmXOKjHtWO5PUbl5PUPJq5686qWxFtfulwtrb4rnnQBHBQEIQAACEIAABCAAgZgTSNvn3yWL7YeRV1upK5JXqpuGqoe4rClhBTDyNSWmGmYKKoo5TxvkaYNmEoueVzPS86onqgbJq957T8qltRK9sWJ+c8ThQQACEIAABCAAAQjEh4Ao3fMiebK9ObG4InlF8orkFckrklckr6ZNXenPz3vyqiev+iTX2v9IZVZfFZ+7Ao4EAhCAAAQgAAEIQAACMSSQet/518ti6xPIq77UFcmrEBNXTrorgNSVTnJNlbrSn48iaWXuk+QVySuSV4NF14yXDQ6UV1sN3pfWvyCXzvxwDG8TOCQIQAACEIAABCAAAQhET2CrZPCLyCvkVfilgo640kvkVU+cIa+QV8irOZRXfWmsM9W9+fJXRH+HwBFAAAIQgAAEIAABCEAgBgQOlO59lrTbvzSVuKJskLJBygYDTmghr5BXyKv5lldOGuvMJ1JLa6+Pwe0ChwABCEAAAhCAAAQgAIHoCOwtnf8qWWzfi7wyUleUDVI2GGn5IPIKeYW8Ql45AquzfFQsr52I7m6BPUMAAhCAAAQgAAEIQCBCAtJuv0kW259CXiGvoi0ZpGywVzKo+18hr5BXyCvk1Q551SspXFxfTS+WnxfhrQO7hgAEIAABCEAAAhCAQLgE5MnmTbLY/hfkFfIKeeU0dzebp0cxR14hr5BXyKsh8spp+r689nG5cPqV4d41sDcIQAACEIAABCAAAQhEQGCrWfsTyCvkFfIKeSVyFdUbZdUVSFEuN5XIbY3sphKRjQ0lsiGMjCms+ufnlMhEPc4qkfE4ls+qwVJq0vcT/bTBXrrKEVQjl2tKLHXGQ/uW1t8SwS0Eu4QABCAAAQhAAAIQgEA4BGSxbcti+xnkFfIKeYW86okrLbGilFbOvpFXYltoRS2u9P49iiu9PvJqSkE1Kn21La8cifWEWFz/iXDuHtgLBCAAAQhAAAIQgAAEQiJw9Gj5Gllsf3BqccXTBnnaIE8b5GmDocgt5BXyyhReJK/Edhprl7xyJJYWZLfpa3xItxPsBgIQgAAEIAABCEAAAsEROHLsnufIk+1N5NWA1BVPG+RpgzxtMAbpK+QV8gp51ZNVZgprlLzq/iy1tPZrN+ROvTC4Owm2DAEIQAACEIAABCAAgYAJ3JBrvTB9svW7yCvkVfQlgzxtkKcNOqWC/UvkFfIKeeVFXm31xFJiafW+vQtrXxvwbQWbhwAEIAABCEAAAhCAgP8E9pbOP18W2/cir5BXyCun35VeRvF0QXOfPG2Qpw32N2vXr+l51e2XRdlgT2aNT1715JXz2fW/Etkzr/X/joItQgACEIAABCAAAQhAICAC6cXy89LF9m8jr5BXyCvk1c5m7TRs3/lkwxCeNKifZrjdnH3Qa+QV8mr6ssHd8sqRWGufSS+tvDGg2ws2CwEIQAACEIAABCAAAf8IXFsqP1sW2x9BXiGvkFfIK+TVptoprPrnyKtu8ounDYplJ/m1rsTykLHdUN2UTX7Pt0VUX6P2qd97WC6s3OTfnQVbggAEIAABCEAAAhCAgM8EtLxKF8/fjbxCXiGvkFfIq35ZZb5GXiGvHGnlLIeIKy20ZkteOeLrS6nl1cM+32awOQhAAAIQgAAEIAABCHgnoB+jzdMGh4grnjbI0wYj7X1Fzyt6Xpmlg5QNUjZoirGpU1aOqBq1fFwurX2P9zsMtgABCEAAAhCAAAQgAAHfCKirZLG1TvJqiMAqNJUMZTSULHgbotBQrobVUKIz9NP+oh41JawARr4/VTXJa7N5ehRz5BXyCnnVlVU8bXB4kisQedURW6mltceQWL7dbLEhCEAAAhCAAAQgAAGvBOTJVgl5hbyKXlxpcRaAuNLbRF6p3SWBuiH7uFFWXYEU5XJTidzWyJqlfGHOKRukbNApF3SWiSsbHJbGelwsrnyv13sN1ocABCAAAQhAAAIQgIAnAtJu/4Astp+ZWmDZbSU9jZaSdhzGEHE1Q2WDrhJXTlKL5NUAuRVF0srcJ8krklckr0hemWWC5jy45NWApxQ+LpfXj3i64WBlCEAAAhCAAAQgAAEIuCWQLjb3y2L7UeTVAIkVSsmgLk2MqGRQCyzkFfJqaAIrysSVs2+SVyLjSCx6XtHzKlJ55SSzvpheXH2z23sO1oMABCAAAQhAAAIQgIArAtdbd79aFtufRV4hr6IvHaRsUGw3iSd5RfLKkVbOEnmFvIqFvOpKrMW1L6QWV693dePBShCAAAQgAAEIQAACEJiWgCjd8yJZbD+AvEJeIa+c/lhmCV8Uc+QV8sqRVs4SeYW8ipW8UmJxTYnF1YdSSyv/atp7Dz4PAQhAAAIQgAAEIACBqQkIu91AXiGvkFfIq51N3J3SvSiXlA1SNsjTBqN42uCAnldO2aCTvHLklRZYenxSnDj78qlvQFgBAhCAAAQgAAEIQAACkxKQJ9vHkFfIK+QV8gp5NewJhjxtkKcNOk8ZdJZz87TBndJqaatJfCd11UleOfLKWf7xgZ8of/mk9x98DgIQgAAEIAABCEAAAhMT2G9/5A2y2H5sKoHl6UmD+kmFcXjSoD6GAdLKeY+G7SpcoUXPK3pemSkvklckr0hezUjyypFX3eXCSmtPqXT1xDcifBACEIAABCAAAQhAAALjCFyX+Y0XyGL7CvLKEFnIK+TVdgP1sPte0fOKnldOrytnSc8rel7FsufVTmnVLSHsf+8D4+5B+DkEIAABCEAAAhCAAAQmJiBOtlaQV8ircJNWdUOOkbwieUXyqpe0cqSVs0ReIa9mUl51RFZqcfXHJr4h4YMQgAAEIAABCEAAAhAYRkDYrXcir5BXyCvd9yrslNWg/ZG8InnlSCtnibxCXs2uvNpq6v6oPLEqht2H8D4EIAABCEAAAhCAAATGEthbOv9Vsth+aGKBRc8rJX0rK2woWXA/RKGhXA+roURnmCmoKOYkr3riDHmFvHKklbNEXiGvZl5eOeWEn0q9Z+WlY29M+AAEIAABCEAAAhCAAAQGEZAnz59DXvWlr3yTU80xosu9uNLSy7W40usir5TIO08ZdJaDklBhv4e8Ql450spZIq+QV4mRVx2JJRdXz+/Zo64adD/CexCAAAQgAAEIQAACEBhKQNrtI8gr5FV0pYMkr0he0fOKnlfm0wXN+RklluMw1pVYHjKWTMkU1HxNiaWIxuKaEp2x6qSp3C+XVheG3pjwAwhAAAIQgAAEIAABCJgE9pbOP18W2385kcCibHBMmmpc2qr/5ySvusIMeYW8Ql4hr0xZZc7jIK70MQwRV/p95JUbkfVEamElbd6XMIcABCAAAQhAAAIQgMBAAqLY/kXk1Vb6irJB42mAQffBQl4hr5BXyCtTVplz5FVPjkWUutJpLz+TV4u99JZcXP3r9OIdLxl4g8KbEIAABCAAAQhAAAIQcAik3nf+9bLYfmqswCJ5RfLK8ltmIa+QV8gr5JUpq8w58irJ8mrrqYRKLq7V6Yfl3JmxhAAEIAABCEAAAhAYSEAUW7+OvOov6wv6NWWDlA2aDeFp2E7DdqdRu7OkYTsN282SxOQlrxx55Szl0tqPD7xR4U0IQAACEIAABCAAAQjIk+cPIK+CFlb920deIa+QV11ZRfKK5JWZtDLnJK/mIXnlyKut5SOpzOqruDuDAAQgAAEIQAACEICAQUBdJe32fSMFFmWDlA1SNqh6ZX6mfPI6J3lF8spJXDlLklckr+YvebVTYq3dY9ysMIUABCAAAQhAAAIQmHcC6WL7B5FX/emoIF+TvCJ5Zcou5BXyypFWzhJ5hbyad3m11dh9aeWd836PxvlDAAIQgAAEIAABCGwRuLZUfna62P7kUIFF8orkFckrklc5s8zP7/mmErmtkd1UIrKxoUQ2hJFxRNWgJfIKeYW86ktiPbQ/s/oybtogAAEIQAACEIAABCCwR9rtH0ZeBZm4crbta/LqcVFoXBJ2o5my6x8WVuO/yEL9p6XVzMtC48dThea79euU3fxPotD4RZFvfkjkGw1h1e8XVv3RbgLK76cITro9njbYK0MkeUXyyhRYyCvkFfKqT16pzuullbPcrkEAAhCAAAQgAAEIzD0BdVW62L44UGCRvIpL8urzolBviUIzI+3Gkf0nG685erR8jetf3VLpamk1XimsxiGRb5wQ+XpFWPWHwpFayCvklZncInnVa+COvEJeIa92yatFXUq4ouTi6ttdX/dYEQIQgAAEIAABCEBg9gmk7NbbkFdOQiqo5dTJqydlofGbstDI7bdq+zzJqkl/RUulq1P5+utFobYgrPrdKav+mP9CC3mFvEJe9WQVyauurOJpg72nCyKvhsmrrsBa+ev0Yvl5k17W+BwEIAABCEAAAhCAQMIIpE+2fneXwCJ5FVXy6pIu+9uXLX9N1L9mbyg1vjKVr79LWI0Lwqo/411mIa+QV8gr5JUpq8z5GSWW4zDWlVgeMpZMyRTUfE2JpYjG4poSnbHVRL2TgIrq9UonfaUFVmcs3VWI+vrI/iEAAQhAAAIQgAAEIiAg39cUyKugUld6uxMlrx7WPar22/VvjeBXYKJdimz1tbq/lrDqn3MnspBXyMPLlqMAACAASURBVCvkFfLKlFXmPA7iSh/DEHGl30dedftRhSa0DHnVlVhfoKH7RJduPgQBCEAAAhCAAASSRUCebJ/ZIbBIXoWZvPpc2m68P1Wov3RWfqtuyLVeKK16Xlj1z0wuspBXyCvkFfLKlFXmHHnVk2MRpa502ivOySsngbW4olILq78yK9dNjhMCEIAABCAAAQhAwAcCN1p3v1gW249uCyzkVVjy6p90maAo3fMiH77GSDahe5DIfO2YsOp/N1pkIa+QV8gr5JUpq8w58gp5ZZYnDkxe9ZcSPikXVv91JBdAdgoBCEAAAhCAAAQgED4BcfL8e5BXQZQPDi0bfCZdaKzuz9RfFv63Hcwer8v8xgtSVv1WYdWf3C2ykFfIK+QV8sqUVeYceYW8mlpebT2RcOV8MFc2tgoBCEAAAhCAAAQgEDsC0m7f1xFYJK9CSF7V75eF2g2x+yXw6YD00wtTVu33ehILeYW8Ql4hr0xZZc6RV8grd/LKaeieWlj9Lp8uY2wGAhCAAAQgAAEIQCCuBFLvO/965JXf6auByasnRaFuHSjd+6y4/i74d1zqqpRV/w/Cqn1JWAEIrHxNialGVfUkUlSvK0rkpxi5ihK+D1MkRTHfVCK3NbKbSkQ2NpTIhjAyGwp5Zcoqc468Ql55k1dbEutj/l3D2BIEIAABCEAAAhCAQCwJyGLr/5Ekr4JOXn0qXWzuj+UvQIAHJezqdcKqXfFVYk0lrrToikpY9e93CnGlJZfv4kpvMwpZZe4TedWTWeeUyEQ9ziqR8TiWTRk17Rx5hbzyRV51Sgn3nbjrOwK8pLFpCEAAAhCAAAQgAIGoCUi7/ZfeBFZLSTsOo6mkPWQU/E5YDdvewOTV+Vl6uqDfv4+6yXvKqn3YF4mFvHIpt0yRFMUceYW8MuUW8gp55Z+80ims1OLqr/l9DWN7EIAABCAAAQhAAAIxIZC2Wm9EXg2TUdO+v0tePSMLjZN79qirYvJ1R3oYWyWFT7kWWcgr5JXncsMQSgZ1WSJlg0qMTWYhr5BX/sorpxeWXFh7U6QXO3YOAQhAAAIQgAAEIBAMAVls/ZR7gRWH1JU+hiGpK/1+dMmrp2Sh/n8H863N7lZlofY9rvpiIa+QV8grn0oOPZYM6pLDsXJq3GeQV8irYOTVlsSqzO5VkiOHAAQgAAEIQAACEBhKIF1oX3QnsOIgr0aIq2jl1WOi0Pz+odDn/AciV5PCqv3jxEks5BXyypO8Cil1RfJqQrGFvEJeBSqvdC+sp8Xy+rVzfqnl9CEAAQhAAAIQgECyCEir8UrkldeU1q6ywc+nCs1vT9Zviv9ns9Xc/e/HSizkFfLKk7zSTzkMSWBRNjiBwEJeIa8Cl1edZu5iYeWU/1cutggBCEAAAhCAAAQgEBmBtN360ekFFsmrXlniLnn1uLDrByP7Qmdsx9fb9W8VVvVzQyUW8gp55UlehSSuSF5NIK50SSHyCnkVmrxSYmHlS+nFO14yY5dFDhcCEIAABCAAAQhAYBgBabfXphNYyKsR8uopygaH/aYNfz9dqL9ZWLVHd0msqeRVVYl8HEZFifwUI1dxKahGrRfF0wXNfcbhaYPIK5E5t9Uzi55XXXm2rsTyiLG0rnqCKcjXa0osRTQW15ToDFMkRTFf6SalFn1eLqxoedUZ8sRdx4dfffgJBCAAAQhAAAIQgMBMEZB269OTCyzk1Qh5pdJW470z9eXH6GC3Grs/uS2xppJXNeTVtggzRVIUc+RV7wmEjkCKcom86iW/kFfzJK+2JNZlngIco4s9hwIBCEAAAhCAAATcEhAnz78WeeWm/9WuskGVthvvd/s9sF6XQMqqvrcjsJBXLlNZUcgqc5/IK+SV+fRBygZ7qa6IUlc67TVnySsngaWXqcU1elJyowEBCEAAAhCAAARmnYAstP7dZAKL5NWo5JUsNO49erR8zaz/PsTh+FNWbV1MLLDiUDKoj2GKkkH92e20lJ+vTZEUxRx5hbyKo7wakbrS5YSUDSqxGGb5oM/lgk75YV/ZYL+86gishdX1OFzfOAYIQAACEIAABCAAAQ8EpN3+pfECC3k1Rl79w1679rUevgZW7SNwoFT+cpGvPzheYiGveiIsClll7hN5hbxCXg2XYSSvupIsfHnVFVgrj337sTu/uu9Sw0sIQAACEIAABCAAgVkjIO32x0YLLOTVGHn1dNpuvGXWvve4H6/M1t6UytceGy6xkFfIq00ldjydkIbtNGw3SxVJXs1z2aCZwhILq++J+7WP44MABCAAAQhAAAIQGEJAl7xJu/3IcIGFvBojr5Qs1H96CF7e9khA5KsnBgss5BXyCnnVk1Vmc3gatvO0wa201xz3vNotr/QTCe/6qMfLEqtDAAIQgAAEIAABCERF4IaTrW9GXk3SwH13w3ZZ6Lz3FwdKp58b1feX9P1qwSry1ft2SizkFfIKeYW8MpNW5pzkFckrLaz6x11aYD19w3tPfV3Sr52cHwQgAAEIQAACEEgkAVk8//bBAovk1fjkVUOl7NrbEvmLEaOTSuWq14t87emuxEJeIa+QV8grU1aZc+QV8qpfXHWSV1pedYY8cdfxGF3iOBQIQAACEIAABCAAgUkJyOL5pd0CC3k1ibySdqM6KWc+542AyNd+VeSRV8gr5BXyypRV5hx5hbwaLq+2JNb/8HZFYm0IQAACEIAABCAAgUgISLv133YKLOTVRPKq0HhkX7H5iki+tDncaXqx/JJUvvrZ6CVWRYn8FCNXUT3p5Ndr88l/Ucx52iBPG+RpgzxtcFV1nyo4bBnN0wYHlA1up6+2BNbT6cWVr5/DSymnDAEIQAACEIAABGabgLTbv9kTWMirCeWVShfq/3m2v/nZO/pUvpaLVmBNIa605EJeGU8INNNTXuY8bbCXxKJhOw3badi+U1o5CaxuyaBTOti/TJ1Yee/sXQU5YghAAAIQgAAEIDDnBKTdvtQVWMirSeWVLDQeuyHXoglsyP/tXJdZfYHI1x6KRmIhr0ROJ71IXpG8InlF8mpY4sp5P7bJq+0klly863zIlzB2BwEIQAACEIAABCDglYC025+XNvJqCnmlZKHxK165s747AtKqlMIXWMgr5NWG6okr/fpcDAbJK5JXJK+mTV71pbAeOXLsl57j7krEWhCAAAQgAAEIQAACoRPYWzr/fORVU00pr55InWy/KvQvix12COheWCJf/ZfwJBbyCnmFvBLLZupKz83m6VHMadhOw3anXNBZDi8b7JNX3STW0sp3cmmFAAQgAAEIQAACEJgRAvuLH/nfohdYTSXtEaPQL5iCfN3QyapJxpkZ+XoTe5gyX/2FcAQW8gp5hbxCXq2r4SWD+mdbKagolotrqiuwnNK9KJfxLxs0BVZq4fStib1QcmIQgAAEIAABCEAgaQT22403RCuwRogrLbXiJ6+UsOsHk/Z7MGvnsy9ffV3wAgt5hbxCXiGvkFejnzLoCLPZk1daZqVO3PWns3b943ghAAEIQAACEIDA3BJIF9pvjk5gzZ68koX63xw9Wr5mbn9hYnTiIl/9f4OTWMgr5BXyCnmFvEqyvNpKYz3z7cfu/OoYXdo4FAhAAAIQgAAEIACBYQRksfn2aATWLMqrhhJW8+eGseT9cAkIq7YcjMBCXiGvkFfIK+TVHMirTh8seeKu7wn36sXeIAABCEAAAhCAAARcERDF9veFL7BmU17p/ljpfPPbXIFmJd8JCLv1cpGvPumvxEJeIa+QV8gr5NW8yKtOCuvEygd8v0CxQQhAAAIQgAAEIAAB/wnIYvMd4Qqs2ZVX0m5c9v8bYIteCIh89V7/BBbyCnmFvEJeIa/mSl4tdJ5YeK+X6xDrQgACEIAABCAAAQiEREAU2v82PIE1w/Kq+3TCXw7pa2E3ExIQucr7/BFYyCvkFfIKeYW8mkN5pcsIHzlQuvdZE152+BgEIAABCEAAAhCAQFQERKH5I+EIrJmXV0oW6v9HVN8T+x1MQBZqN3gXWMgr5BXyCnmFvJpTedXpg5VeWnnj4KsM70IAAhCAAAQgAAEIxIaAsNu3BC+wkiCvGk+nCvWXxuaL40A6BPbecvuXiXz1YfcSC3mFvEJeIa+QV/Msr3QfrNSJlXdzWYUABCAAAQhAAAIQiDmBdKH57mAFViLklUoVGn8a869ybg8vlav8mjuBhbxCXiGvkFfIq3mXV1pgycW7aBEwt3cRnDgEIAABCEAAAjNDIFiBlQx5JQoNJQrN/zozX+qcHajM105OL7CQV8gr5BXyCnmFvOo0cVephdO/M2eXTk4XAhCAAAQgAAEIzB6B4ARWkuRVQwm7/p7Z+3bn44hFrvb90wks5BXyCnmFvEJeIa+68konsMTCXQ/NxxWTs4QABCAAAQhAAAIzTCAYgZUweaWfQGg1b5rhrznRh57Ol79tcoGFvEJeIa+QV8gr5NUOedVp5L4ve/prEn2x5OQgAAEIQAACEIDArBPwX2AlT17pEsK9+fY3zvp3ndTjP1A6/VyRrz49XmIhr5BXyCvkFfIKebVbXnX6YC2s8H9UJfVGgfOCAAQgAAEIQCAZBPwVWMmUV6LQ+OKeUunqZHzjyTwLka/+1WiBhbxCXiGvkFfIK+TVYHnVFVh3/Xgyr5CcFQQgAAEIQAACEEgIAf8EVmLllZKFxgMJ+boTexoiX70wXGAhr5BXyCvkFfIKeTVcXnX6YC2u/FxiL5KcGAQgAAEIQAACEEgCAX8EVnLlVfcJhI3fTcJ3neRzEPlKZbDAQl4hr5BXyCvkFfJqjLzqNnKvJPk6yblBAAIQgAAEIACBmSfgXWAlXl4pYTXumfkvOuEnIPK1O3cLLOQV8gp5hbxCXiGvJpJXupH7fQm/VHJ6EIAABCAAAQhAYLYJeBNYcyCvCg2VKjQ2Z/tbTv7RC6t6206BhbxCXiGvkFfIK+TVxPJKC6x/Sv7VkjOEAAQgAAEIQAACM0zAvcCaD3nVKSG0Gqdm+Cuei0NPWdX/1BNYyCvkFfIKeYW8Ql5NJa+UWDitrsusvmAuLpqcJAQgAAEIQAACEJhFAu4E1hzJq0JDiULztln8bufpmKVVyXcFFvIKeYW8Ql4hr5BX08srLbCuX7jz1fN07eRcIQABCEAAAhCAwEwRmF5gjZBXhaaSoY2Gfjqg67HVnF1NskwVGr80U1/qHB5sKl+xRX4KeZWrKBHIKKuuQIpyualEbmtkN5WIZGwokQ1pZExh1T8/p0Qm6nFWiYzHsXxWDZZSk75/RonlqMe6EssjxtI46eTXz9eUWIpoLK4p0RmrajLBFOTnVpRYDGAsrCgx8ZhWMgX1+dOd9JUWWGLptJzDSyinDAEIQAACEIAABGaDwHQCa/7k1VYJ4enZ+Dbn9yhFvvqBiQVWIOJKC7EopZWz76jFlRZmIYkrvR/k1QRiK2pxpfc/QlzpnyGvQhZaAYgrLcMmFlf6s0HJqGm32yevtMBavPN75/dKyplDAAIQgAAEIACBmBOYXGDNqbzSJYR2oxrzr3HuD0/kK/91IoGFvAo4kYW86iW+PKaudGor6cmr0MSVlmQRpa70fkleGXJrWskU1OcNeaUF1sJdt8z9BRUAEIAABCAAAQhAIK4EJhNYcyyvOj2wGr8e1++P4+oSEPnKyliBhbxKhrwambrSqayoSwb1/pFX3ZLFEcmreZBX2+JKS6wgywEn3TbJq17ya5C80gms0xbXVQhAAAIQgAAEIACBmBIYL7DmXF5ZDZWyGr8X06+Pw9oiIPOV+kiBhbxCXoUmtjzKK8+pK53cinnZIPIqAqGFvBorr7oJrJ/hwgoBCEAAAhCAAAQgEFMCowUW8kpYDSWsxidi+vVxWFsERL780aECC3mFvEJehSy1SF4lvmxwqn5XMe551ZFWfWmsE6c/yIUVAhCAAAQgAAEIQCCmBIYLLOTVlrxSwqo/sfeW278spl8hh7Vnzx6Rr3xmoMBCXiGvkFfIqzD7X81D2WBS5VWniftda1xUIQABCEAAAhCAAARiSmCwwEJe9ckrLbDU9bnWN8f0K5z7w9qbL38F8ko//S/sEVLD9nnoeUXZoM9PIoyoYTvyymjWPkPJq14Sqzn3F1UAQAACEIAABCAAgbgS2C2wkFemvNICS+abb4/rdzjvx5XOlVO7BBbJq4CFFvKq1yyenlc0bO9/0mCCG7YnOXnlCKwTpz8y79dUzh8CEIAABCAAAQjElsBOgYW8GiSvtMAShXomtl/inB+YyJX/7Q6BhbxCXlE2SNkgZYNKLPrYuH0+5JUSJ07/5pxfUjl9CEAAAhCAAAQgEF8CPYGFvBoqr7TAsmqn4/stzveRiXz1A9sCC3mFvEJeIa+QV8irhbuUcFJVkyxPnNbySo975/uKytlDAAIQgAAEIACBGBPoCizk1Wh5pQVW/ZMx/hrn+tBErvL7HYGFvEJeIa+QV8gr5JV7eaUF1sfm+oLKyUMAAhCAAAQgAIE4ExgpsApNJUMbDSUL7ocoNJSrYTXUBPKq08hdWo1Xxvm7nMdjuyHXeqHIV54QyCvkFfIKeYW8Ql55k1daYP3PebyWcs4QgAAEIAABCEBgJggMFVihiSstydyLK72uK3Gl15tCXm31wfqRmfhS5+ggU/ny25BXQT99kIbtNGw/Y8ixdSWWh4yldZ+fKDhqezxtUCyu+iutnL5Z89PzyikddJZ/MkeXUE4VAhCAAAQgAAEIzBaBgQILedVJXHWkVaf/VaeEUL+3NlvfbvKPVuQqPx+MwCorkYt6bCqRC1pOjds+8gp5hbwS/cmuxf4nDmp5FPXwsVE78kqJ46f/LPlXTs4QAhCAAAQgAAEIzCiBXQILeTVMXun3/3ZPqXT1jH7ViTxskavc77/Ailpc6f0jr0RmQ3XHOdWTSFG9PqtExsNYPquE52GKpCjmQ1JXOo1F8ioCmYW8Ep2SQdcN253UVf/yYiIvlpwUBCAAAQhAAAIQSAKBHQILeTVKXnV/Zte+MwnfexLOQSyXr0VejUtQuf05yaueNPMgrrT08iyu9DaikFXmPpFXYjt9FXXqirLBnrjyVV5pkYXASsINAucAAQhAAAIQgEAyCWwLLOTVeHmlywnz9TuT+Zswe2cls5Wf9VdgkbwSWS28kFfIK+QVZYMrSozsg6XFURzGaSUWJhwnTvcnrYa9RmDN3u0ARwwBCEAAAhCAwLwQ6Ags5NVk8qrbD+vhA6Xyl8/L70dsz7NUulrkqp/yT2Ahr5BXZnkiyatu8ovkFckrU2bFQVz5nrxyhBYCK7YXfg4MAhCAAAQgAIG5JxCuwJqRpw3ubNy+S26l8rUfmvtfnIgByEz1JuSV2/LAYeuRvCJ5RfKK5JUpq8x5ouUVJYQRX9vZPQQgAAEIQAACEBhJIDyBlQx51XkyYb7+30dC5YeBExC5yjl/BBbJK5JXJK8G99gieUXyau7kFQIr8Ks3O4AABCAAAQhAAAIeCIQjsBIkr7bSWel8c78H7KzqgcD+7MZrRK7ypHeBhbxCXiGvkFdrakfqamlN9cSVfk3D9m4vrMQnrygh9HBdZlUIQAACEIAABCAQCoHgBVby5JVOYaWsWjuUL4id7CIgc9U7kFfDygCnfZ+yQcoGKRvcIbC2nzSIvOo1cZ8beUUCa9cVlzcgAAEIQAACEIBAjAgEK7CSKa86ZYRW/Zm0VX1jjL7KuTiUfUvnXiFylce9CSySVySvSF6RvCJ51RNUZqlg/3yu5BUCay7uJDhJCEAAAhCAAARmlkBwAivR8mqrsXtjY2a/+Bk9cJmr/jLyatqU1aDPk7wieUXyiuRVv6ga9Hru5BUCa0bvDThsCEAAAhCAAATmhEAwAmse5FVdS6ynU4V6ek5+VSI/TZGtvjaVqzzmXmCRvCJ5RfKK5BXJK5JXp51+V4OWFyO/2HEAEIAABCAAAQhAAAKDCfgvsOZGXnVTWPn6nxw9Wr5mMF3e9ZNAKlf5NeTVoDTVNO+RvCJ5RfKK5NWgtFX/e3OZvHJkFgLLzws324IABCAAAQhAAAJ+EvBXYM2ZvNp6ImHKarzXz++Ebe0mIPKV/xN5NY2oGvRZ5BXyCnmFvOoXVYNez7W8ooRw9+WXdyAAAQhAAAIQgEB8CPgnsOZTXm01dP/CDbnW18XnW03WkdyQa71Q5Ct/405gUTZI2SBlg5QNUjZI2eDIskEnfYXAStbtA2cDAQhAAAIQgEDSCPgjsOZaXjmlhLWk/W7E5XxEtvKryKtBiapJ3yN5RfKK5BXJq0Fpq/735j555UgsSgjjcvHnOCAAAQhAAAIQgIBJwLvAQl51U1g1JfL195h8mXsjkMpWjiKvJhVVgz6HvEJeIa+QV/2iatBr5JU44SS07kRgebtsszYEIAABCEAAAhAIjoA3gYW82pZXVk2lrNpj0q69Kbhva762vD+78RqRq3x+eoFF2SBlg5QNUjZI2SBlg46UmnR5pxInEFjzdafB2UIAAhCAAAQgMFME3Ass5FW/vBJWTemRKtT+Ym++/BUz9UsQw4M9cuye54hc+U+QV4NSVZO8R/KK5BXJK5JXg9JW/e+RvOpLXml5hcCK4f0AhwQBCEAAAhCAAAS2CbgTWMirQfLKkVjCqjaPHi1fsw2ZF1MSUFeJXOVO5NUkomrQZ5BXyCvkFfKqX1QNeo28GiCvEFhTXq35OAQgAAEIQAACEAiVwHQCy5u4koWGEm6H1VBie9S7jdOtKJfdxFVPWhnzfPVDoX6RCdqZzFd+Gnk1SExN8h7yCnmFvEJeDRJW/e8hr4bIKwRWgu4lOBUIQAACEIAABBJIYHKBhbzqpq60NDNk1fD5+xP4KxPoKcl8+ceRV5OIqkGfQV4hr5BXyKt+UTXoNfJqhLxCYAV6hWfjEIAABCAAAQhAwCOByQQW8sqFvOqKrkJtweNXNDery2z5HSJXeXo6gUXDdhq207Cdhu00bKdh+6SN2p3PdfpdaWFlDp5CODd3HZwoBCAAAQhAAAIzR2C8wEJeuZZX3WTW0zJfOzZzvxghH3AqX/4hkas8jrwalKwa9x7JK5JXJK9IXg1KW/W/R/JqTPLKEVkIrJCv/+wOAhCAAAQgAAEITExgtMBCXnmUV9vlhimreuuePeqqib+YOfqgzFaOkbwaJ6mG/Rx5hbxCXiGv+kXVoNfIqwnlFSWEc3TvwalCAAIQgAAEIDCDBIYLLOSVX/LK6ZklrfpdB0r3PmsGf00COmR1lcxVStOlripK5CgbjE/ZoFm+F9X8rBIZD2P5rBKehymSopivK7E8ZCytKxHaGFDStxTCe4trSmyPVSUWox4rSiz6PBYGCapR78VBXp1WYmGKccIp8/N7uatc0Eld9S9JYAV0xWezEIAABCAAAQhAwDOBwQILeeW3vOpJrOr5Nyw0vtLzFzfjG9hbOv98ka2sIa+GJavGvR+H5FVUssrcrwdxpaWXZ3GltxGFrDL3OURcaaEVmrjS+wpBVA3ax7a40hIranGl9++zuNLbm0l5pQXazMgrElgzfm/B4UMAAhCAAAQgkHACuwUW8iooedWRWPmakvnaX6cK9XTCf7WGnl66UP0Wkavcj7waJ6mG/Rx5Rdkg8mqHKENeDZBbcUhezZy8QmANvXLzAwhAAAIQgAAEIBADAjsFFvIqaHkl8jW1NZ6UVq20p1S6Oga/BqEdQipbeZfIVR5BXg2TU+PeR14hr5BXyKtxaSzk1RQ9r/rLBxFYod0NsCMIQAACEIAABCDggkBPYCGvQpRXjsRS0qqeF7naN7j46mZqlW8vlL/aXckgPa+6/a602EJeIa/iKK8iKhnUZYQkr2KavJqiZFCXF0bb8wqBNVN3ExwsBCAAAQhAAAJzTaArsJBXUcirvjTWF3Ua69pS+dnJ+2VUV+nUVSpX+ez0qSvkFfLK7Hel5/S86vbcikPPK+RVr98WPa/EwpQlg/GTVySwkncTwhlBAAIQgAAEIJAkAn4ILFFoKFfDaiixPeqqJ5Giel1TTrN135a9ksHt1FWfuDLf+4S0qjcl5fdrX7b8BpGr/L47cYW8Ql4hr4Y3h4+DvKJhO/LKLFWc6eSVk8TiKYRJuQnhPCAAAQhAAAIQSB4BrwLLlbjSwmtbXOnXUQmr/v1GLq+UyFf1eCaVr7ZloSpm9bctnS9/m8hVzolc5Wnk1bieVuN+TtkgZYOUDdLzahZ6XiVCXpHAmtUbD44bAhCAAAQgAIH5IOBFYCGvRkiv6ZJXjrzaucxVPybz1bfPym9iN3FVXfUmrkhekbwieRXv5BVlgySvEpm8IoE1KzcbHCcEIAABCEAAAvNLwK3AQl4FLK+6aSxHaP2BtCr//g0Lja+M22/qdZnVF4h89Z0iW/lt92krLa2cUVYiF/XYVCI3LhkV9M9JXpG8InlF8ork1eQN3u90BJTXJSWEcbvR4HggAAEIQAACEICAQ8CNwEJehSqvHImlUvnqY/qphSmrcnTvLbd/mfMdhr4sla4W+fKNIle9XeQq/9KTT46EcruMWlzp/SOvRGZD9eTRoDRUmO/RsJ2G7TxtUCwMEllmCiqKeWLKBvulFwIr9JsKdggBCEAAAhCAAAQmJDCtwEJeRSOvtvpjbcsska9+TuSrDZmvHduXr75uzx511YRfuauPpQob/yqVr7w7latsun+i4Cixhbzqlg6SvOrJM+QV8gp5hbw6rUansHxLXjkSC4Hl6i6BlSAAAQhAAAIQgEAIBKYRWMir2MirfpG19bryGZGvVIRVe38qX/uhVK56vSitv2jaXyFdEpi2qm+UVvkdIl/+jyJfOSfylU+L/Cj55PVnyCvklZnqQl4hr5BXyKvQ5ZWWWAisaW8c+DwEIAABCEAAAhAIi8CkAgt5FWd51Xl64QCp1Xn/70W+elHka38o8tULIl+tSqt6l8hXT8tcpSzy5QsiX/4DmSs/IPKVv+mIKi2rzLHdo8qrC5mrgAAAIABJREFUrDLXR14hr5BXg5u2ryuxPGQsrSsRyqBhOw3bzdLERJYNOukrBFZYN5/sBwIQgAAEIAABCLghMInAQl7NrLwaIrUGCCpTWPXPkVeq92TAIJq3UzZI2SAN22nYPqjPVf97pkiKYp54eYXAcnMjyToQgAAEIAABCEAgLALjBBbyCnnlX5P2/vQVySuSVySvSF4NSHgt9pcOrqpeAiqq1ytKLPo8BjZl75dV5usoZJW5z7mQVwissG4+2Q8EIAABCEAAAhBwQ2CUwEJeIa+QV0EkrpxtkrwieUXyiuSVKavMuSmSopjPjbxCYLm5kWQdCEAAAhCAAAQgEBaBYQILeYW8Ql45oimIJfIKeYW8Ql6ZssqcRyGrzH3OlbxCYIV188l+IAABCEAAAhCAgBsCgwQW8gp5hbwKQlo520ReIa+QV8grU1aZc1MkRTGfO3mFwHJzI8k6EIAABCAAAQhAICwCpsBCXiGvkFeOaApiibxCXiGvkFemrDLnUcgqc59zKa8QWGHdfLIfCEAAAhCAAAQg4IZAv8BCXiGvkFdBSCtnm8gr5BXyCnllyipzboqkKOZzK68QWG5uJFkHAhCAAAQgAAEIhEXAEVjIK+QV8soRTUEskVfIK+QV8sqUVeY8Clll7nOu5RUCK6ybT/YDAQhAAAIQgAAE3BDQAgt5hbxCXgUhrZxtIq+QV8gr5JUpq8y5KZKimM+9vEJgubmRZB0IQAACEIAABCAQFoGUW4FlNZTYHnUlrKjHCAllufxZvqbEVKOqRD7qUVEiP8XIVRTyyhFNQSyRV8gr5BXyypRV5jwKWWXuE3klTtyJwArr5pP9QAACEIAABCAAATcEXAmsbXGlJVbU4krv36WgGrXeVOJKi66oxZXe/xTiSn8WeaVENghp5WwTeYW8Ql4hr0xZZc5NkRTFHHm1Ja8QWG5uJFkHAhCAAAQgAAEIhEVgaoGFvBqQykJe9WRYWYlc1GNTiZwjkaJaIq+QV8gr5JUpq8x5FLLK3CfyqievTiGwwrr5ZD8QgAAEIAABCEDADYGpBBbyCnk1MrUVtbjS+0deicyG6smjcxG/PqtExsNYPquE52GKpCjm60osDxlL60qEMtbUDqG0FOJ8cU2J7bGqxGLUY0WJRZ/Hgimnxs1NkRTFHHm1U16dUuLYnRfd3EuxDgQgAAEIQAACEIBACAQmFljIK+QV8mqCkkOSVz155kFcaenlWVzpbUQhq8x9DhFXWmiFIq70fkKUVea+tsWVllhRiyu9f5/Fld4e8kqJE6ddjk7fKZ18inDo5NUpJY4jsEK47WQXEIAABCAAAQhAwD2BiQQW8gp5hbxCXmWmSXMhr7ryDHlF8soUXFEkrcx9krzqCbM+eYXAcn8zyZoQgAAEIAABCEAgDAJjBRbyCnmFvEJeIa9cpLmQV8gr5NXwZFaUiStn34a8QmCFcdvJPiAAAQhAAAIQgIB7AiMFFvIKeYW8Ql4hr5BXZlnguDllgwPKCs0UVBRzkldDk1daXiGw3N9MsiYEIAABCEAAAhAIg8BQgYW8Ql4hr5BXyCvk1ThZZf4ceYW8GtkPy0k/RbkckLxCYIVxy8k+IAABCEAAAhCAgDcCAwUW8gp5hbxCXiGvkFemnBo3R14hr2ZZXpHA8nZDydoQgAAEIAABCEAgaAK7BBbyCnmFvEJeIa+QV+Nklflz5BXyatblFQIr6FtOtg8BCEAAAhCAAAS8EdghsJBXyCvkFfIKeYW8MuXUuDnyCnmVBHmFwPJ2Q8naEIAABCAAAQhAIGgC2wILeYW8Ql4hr5BXyKtxssr8OfIKeZUUeYXACvqWk+1DAAIQgAAEIAABbwQ6Agt5hbxCXiGvkFfIK1NOjZsjr5BXSZJXCCxvN5SsDQEIQAACEIAABIImkMo33y22BVZdCSvqUVPC8nnkawME1aj3qkrkox4VJfJTjJECqqKE65+XlchFPTaVyG1OIJiC/MyGEtkQRmZDiaHjnBJTSaagPn9WiYyHsXxWCc/jjAvZ5Pc660osDxlL60qEMtaUGCeZgvo58gp5lTR5hcAK+paT7UMAAhCAAAQgAAFvBHoCK2pxpffvs7jS20NeIa+yXsVWCOJKy7Gh4kr/LCgZNe12PYgrLb08iyu9Db9FlJvtDRFXWmiFIq70fpBXYnFVdceKEos+j4WVAYJq1Ht3KbEQ9TitxMIUY6SAOq2E65/fqcSJqMcpJU6cUkJLqWnGsTsverurYm0IQAACEIAABCAAgcAIdAUW8qoruqJOXen9T5G60p91nawat27UqSu9f5JXXak1rWQK6vPIq648Q16J7fSVI5CiXPosrrQIQ17Np7wigRXYvSYbhgAEIAABCEAAAr4QSOVr76ZsUCe1kFc9GYa8Ep3UFsmrXvILeYW8WlM9caVfRymtnH0jr7qprylSVzqh5TpZNW7dqFNXev8uk1dOSosEli/3lmwEAhCAAAQgAAEIBEIgeoFF2WBXnpG86vXaInlF8sosN3RT5uf3OiSvegLLEUhRLpFXyCtTmHmUV8dPqRQCK5B7TTYKAQhAAAIQgAAEfCEQrcBCXiGvzLQX8gp5hbwa3EeLnle91BfyCnkVgLxCYPlyX8lGIAABCEAAAhCAQGAEohNYyCvkFfJqcOP2oHpYTbtdygYpG6RscHA/rKibtev9UzbYaxTvQ/JKyysEVmD3mmwYAhCAAAQgAAEI+EIgGoGFvEJeIa+QV2bSypz7XQLoZnuUDVI2aDZ1R171emiZKago5j7KKwSWL/eVbAQCEIAABCAAAQgERiB8gYW8Ql4hr5BXpqwy525kk9/rIK+QV8irnqwyG7hHIavMffosrxBYgd1rsmEIQAACEIAABCDgC4FwBRbyCnmFvEJembLKnPstotxsD3mFvEJeJVledcoFnbLB/iVN3H25t2QjEIAABCAAAQhAIBAC4Qks5BXyCnmFvDJllTl3I5v8Xgd5hbxCXs2lvCKBFch9JhuFAAQgAAEIQAACvhEIR2Ahr5BXyCvklSmrzLnfIsrN9pBXyCvk1dzKKwSWb/eWbAgCEIAABCAAAQgEQiB4gYW8Ql4hr5BXpqwy525kk9/rIK+QV8iruZZXCKxA7jPZKAQgAAEIQAACEPCNQLACC3mFvEJeIa9MWWXO/RZRbraHvEJeIa/mXl4hsHy7t2RDEIAABCAAAQhAIBACwQks5BXyCnmFvDJllTl3I5v8Xgd5hbxCXiGvTqlOY3eauAdyr8lGIQABCEAAAhCAgC8EghFYyCvkFfIKeWXKKnPut4hysz3kFfIKeYW82pJXJLB8ua9kIxCAAAQgAAEIQCAwAv4LLOQV8gp5hbwyZZU5dyOb/F4HeYW8Ql4hr/rkFQIrsHtNNgwBCEAAAhCAAAR8IeCvwEJeIa+QV8grU1aZc79FlJvtIa+QV8gr5JUhrxBYvtxXshEIQAACEIAABCAQGAH/BBbyCnmFvEJembLKnLuRTX6vg7xCXiGvkFcD5BUCK7B7TTYMAQhAAAIQgAAEfCHgj8BCXiGvkFfIK1NWmXO/RZSb7SGvkFfIK+TVEHmFwPLlvpKNQAACEIAABCAAgcAIeBdYyCvkFfIKeWXKKnPuRjb5vQ7yCnmFvEJejZBXHYF1x8XAbrjYMAQgAAEIQAACEICANwLeBBbyCnmFvEJembLKnPstotxsD3mFvEJeIa/GyKvjd6jUMQSWt7tK1oYABCAAAQhAAAIBEnAvsJBXyCvkFfLKlFXm3I1s8nsd5BXyCnmFvJpAXiGwArzbZNMQgAAEIAABCEDABwLuBBbyCnmFvEJembLKnPstotxsD3mFvEJeIa8mlFcILB/uKtkEBCAAAQhAAAIQCJDA9AILeYW8Ql4hr0xZZc7dyCa/10FeIa+QV8irKeQVAivAu002DQEIQAACEIAABHwgMJ3AQl4hr5BXyCtTVplzv0WUm+0hr5BXyCvk1ZTyCoHlw10lm4AABCAAAQhAAAIBEphcYCGvkFfIK+SVKavMuRvZ5Pc6yCvkFfIKeeVCXiGwArzbZNMQgAAEIAABCEDABwKTCSzkFfIKeYW8MmWVOfdbRLnZHvIKeYW8Ql65lFcILB/uKtkEBCAAAQhAAAIQCJDAeIGFvEJeIa+QV6asMuduZJPf6yCvkFfIK+SVB3mFwArwbpNNQwACEIAABCAAAR8IjBZYyCvkFfIKeWXKKnPut4hysz3kFfIKeYW88iivEFg+3FWyCQhAAAIQgAAEIBAggeECC3mFvEJeIa9MWWXO3cgmv9dBXiGvkFfIKx/kFQIrwLtNNg0BCEAAAhCAAAR8IDBYYCGvkFfIK+SVKavMud8iys32kFfIK+QV8soneYXA8uGukk1AAAIQgAAEIACBAAnsFljIK+QV8gp5Zcoqc+5GNvm9DvIKeYW8Ql75KK8QWAHebbJpCEAAAhCAAAQg4AOBnQILeYW8Ql4hr0xZZc79FlFutoe8Ql4hr5BXPssrBJYPd5VsAgIQgAAEIAABCARIoCewkFfIK+QV8sqUVebcjWzyex3kFfIKeYW8CkBeIbACvNtk0xCAAAQgAAEIQMAHAl2BhbxCXiGvkFemrDLnfosoN9tDXiGvkFfIq4DkFQLLh7tKNgEBCEAAAhCAAAQCJBCIwMrXlJhqVFVXIEW5rCiRn2LkKkoEMkyRFMV8U4ncphLZKMeGEtkQRmZDDRZX+v1zMRlnlch4GMumiHIzdyOb/F4HeYW8Ql4hrwKUVwisAO822TQEIAABCEAAAhDwgYDvAmsqcaVFV5TSytn3FOJKS65AxJXebhSyytwn8qortJBXYlt8+S2i3GwPeYW8Ql4hrwKWVwgsH+4q2QQEIAABCEAAAhAIkICvAgt55UFumSIpijnyKj7yykPiyklrbQsoN4krZx03ssnvdZBXyCvkFfIqBHmFwArwbpNNQwACEIAABCAAAR8I+CawkFcu5VUUomrQPpFXyCtHWjlLv0WUm+0hr5BXyCvkVUjyCoHlw10lm4AABCAAAQhAAAIBEvBFYCGvkFee+2WF0O9K99SKfc8rkldi2RFdyKuuvFpVYjEOY0WJRZ/Hgimnxs3vUmIh6nFaiYUpxonTariA8vKzO5U4EfU4pcSJU0ocdzdSx8eJqUl+fodKafHk1zh2x8UAb7nYNAQgAAEIQAACEICAFwKeBRbyCnmFvPKp2TvyCnm1psTSmopX6krLM5/Fld4e8sqD2IpaXOn9J1BekcDycjvJuhCAAAQgAAEIQCB4Ap4EFvIKeYW8Ql5tJ6ac5JTXJckrklem4Io6daX3P0XqSn82kORVHMRVguUVAiv4m072AAEIQAACEIAABLwQcC2wkFfIK+QV8gp51U1M6dSUH2PRSV/FoWSQ5FWvXBF51StXTGjyyilBpITQyy0l60IAAhCAAAQgAIFgCbgSWMgr5BXyCnmFvPJHWjniC3k1oKyQ5FU3yUXyqtcvy8d+V4606l8isIK96WTrEIAABCAAAQhAwAuBqQUW8gp5hbxCXiGvkFfT9sWi55XLskLkVWjyihJCL7eTrAsBCEAAAhCAAASCJzCVwEJeIa+QV8gr5BXyCnm1uycWPa+GPo2wJ6AmeargsM8EnLxyUlgksIK/8WQPEIAABCAAAQhAwC2BiQUW8gp5hbxCXiGvkFfIK+TV8VNDZZUwfjZj8kqlEFhubydZDwIQgAAEIAABCARPYCKBhbxCXiGvkFfIK+QV8gp5ZQgqU1j1z2dQXiGwgr/tZA8QgAAEIAABCEAAAhCAAARmn4BYXv+gWFpX4QyfnhzoNGGfZknDdhq2Dy05pOdVT3yFVjaoxZUzLs7+X1LOAAIQgAAEIAABCEAAAhCAAAQCJRCewEJeicVV1R0rSkybrBr3eRq207D9+LBeVpO+H4m8IoEV6F94Ng4BCEAAAhCAAAQgAAEIQCAhBMIRWMgr5NVdSiz0j9O7SwMXRrw3ND112qW40uuRvIo4eUUCKyHXEU4DAhCAAAQgAAEIQAACEIBA4ASCF1jIK+RVv7jSr0eIqkE/Q14NbeDeE1CTpqwGfS6y5BUCK/C/8OwAAhCAAAQgAAEIQAACEIBAQggEK7CQV8gr5NXwpNcpJU5M/nTB/mbt+nVC5JVKHfswPbAScj3hNCAAAQhAAAIQgAAEIAABCARGIDiBhbxCXiGvkFfbjdqdtJWx/DACK7C/7mwYAhCAAAQgAAEIQAACEIBAgggEI7CQV8gr5BXyaiJ5hcBK0PWEU4EABCAAAQhAAAIQgAAEIBAYAf8FFvIKeYW8Ql5NLK8QWIH9dWfDEIAABCAAAQhAAAIQgAAEEkTAX4GFvEJeIa+QV1PJKwRWgq4nnAoEIAABCEAAAhCAAAQgAIHACPgnsJBXyCvkFfJqanmFwArsrzsbhgAEIAABCEAAAhCAAAQgkCAC/ggs5BXyCnmFvHIlrxBYCbqecCoQgAAEIAABCEAAAhCAAAQCI+BdYCGvkFfIK+SVa3mFwArsrzsbhgAEIAABCEAAAhCAAAQgkCAC3gQW8gp5hbxCXnmSVwisBF1POBUIQAACEIAABCAAAQhAAAKBEXAvsJBXyCvkFfLKs7xCYAX2150NQwACEIAABCAAAQhAAAIQSBABdwILeYW8Ql4hr3yRVwisBF1POBUIQAACEIAABCAAAQhAAAKBEZheYCGvkFfIK+SVb/IKgRXYX3c2DAEIQAACEIAABCAAAQhAIEEEphNYyCvkFfIKeeWrvEJgJeh6wqlAAAIQgAAEIAABCEAAAhAIjMDkAgt5hbxCXiGvfJdXCKzA/rqzYQhAAAIQgAAEIAABCEAAAgkiMJnAQl4hr5BXyKtA5BUCK0HXE04FAhCAAAQgAAEIQAACEIBAYATGCyzkFfIKeYW8CkxeIbAC++vOhiEAAQhAAAIQgAAEIAABCCSIwGiBhbxCXiGvkFeByisEVoKuJ5wKBCAAAQhAAAIQgAAEIACBwAgMF1jIK+QV8gp5Fbi8QmAF9tedDUMAAhCAAAQgAAEIQAACEEgQgcECC3mFvEJeIa9CkVcIrARdTzgVCEAAAhCAAAQgAAEIQAACgRHYLbCQV8gr5BXyKjR5hcAK7K87G4YABCAAAQhAAAIQgAAEIJAgAjsFFvIKeYW8Ql6FKq8QWAm6nnAqEIAABCAAAQhAAAIQgAAEAiPQE1jIK+QV8gp5Fbq8QmAF9tedDUMAAhCAAAQgAAEIQAACEEgQga7AQl4hr5BXyKtI5BUCK0HXE04FAhCAAAQgAAEIQAACEIBAYATE8toHxVJEAmtxTYnOWFU9gRTl6xUlFn0eCytKTDVMkRTF/LQSC1OME6eV8H3cqYYLpTB/dkqJE6eUOO5upI6fUt7HHSp1PIRxbJTA+rAWTUGNi4H9gWPDEIAABCAAAQhAAAIQgAAEIJAMApEJLOTVALEVhawy9zmFuNKSy3dxpbcZpqAatS/kVaojtQITV44QQ2Al43LCWUAAAhCAAAQgAAEIQAACEAiOQCQCC3mFvBoqvkYJpTB/hrwKSV5RQhjcn3e2DAEIQAACEIAABCAAAQhAIDkEQhdYyCvkFfJqgrLCEEoGdVlidGWDTvoKgZWcywlnAgEIQAACEIAABCAAAQhAIDgCoQos5BXyCnmFvNrdS4sSwuD+xLNlCEAAAhCAAAQgAAEIQAACySAQmsBCXiGvkFfIq93yigRWMi4lnAUEIAABCEAAAhCAAAQgAIFgCYQisJBXyCvkFfJqsLxCYAX7J56tQwACEIAABCAAAQhAAAIQSAaBwAUW8gp5hbxCXg2XV7ESWOryd79WXXnbXsa0DA7tVVdCGJcOv079f297dWc88JaXqz8/8pxkXIk5CwhAAAIQgAAEIAABCEBgLIFABRbyCnmFvEJejZZX8RJYD771N9Qn3qa6461KfSJu44hSD8Zt3KzUg0PGlZuVCn48oh68+VPqwcMfV1du/m115eaz6sEjP6su3/wT6sqh71Zaej34PS8cezHkAxCAAAQgAAEIQAACEIBAvAkEJrCQV8gr5BXyary8iqnAipu40sdzpDtiJbCGiCsttIIXVyP2cVipK7vGQ+rK4f+urhz+ZXXl5nerBw/eoD5+4CvjfYXm6CAAAQhAAAIQgAAEIACBbQKBCCzkFfIKeYW8mkxeqdSxD8XmKYSqk8BCXk2W8popeTVIaCl1+bAef62uHCqry4cW1eUjUl08+uztCyQvIAABCEAAAhCAAAQgAIH4EPBdYCGvkFfIK+TV5PIKgTW2TDGOyStdxjhEYMUveTVKXjkSq3/5qLp088fUpcM/ry4ffpu6/9AL4nPF5kggAAEIQAACEIAABCAwxwR8FVjIK+QV8gp5NZ28QmCNFFjIq8lLEXeVDA4WV7q0sJu8mnT5ZEdoXT6c7zSqV3uumuNbBk4dAhCAAAQgAAEIQAAC0RHwTWAhr5BXyCvk1fTyCoE1VGAhr2IgrwZJrr9Vlw+f6qSzKDeM7uaFPUMAAsERSC+Wnyetxiv32403pAv1N8tC63uE3XinsJvvkYWmLQutn03brdv1kIXmurSb5e5oVGWhccHNEIXGBVfDalwQsRq1C8LyeeRrF8RUo3pB5KMe5Qsiz+gy2Lwg8psXRDbKsXFBZEMYmY0LYug4e0FkEjCWz14QnseZC2I56rF+QSzP6Fhc+7RYWlOeBvIKeYW8Ql65k1cIrIECC3kVU3llCq1/VpcPr6orh95O76zg/i3NliEAAR8JpEvll8hCU4hC8/tloXlc2s1b04Xmqiw0f0sWmpdkofl5WWiqyUdDyYK3IQoN5WpYDSU6o66EFYdRU8LyeeRrSkw1qkrkox4VJfJTjFxFCd9HWYlcHMamErlNJbJRjg0lsiGMzIYSQ8c5JTJRj7NKZDyO5bNKeB5nlFiOeqwrsTxkLK0rEcrwKKC8CCzkFfIKeYW8ci+vEFi7BBbyakbklSmz/lFdPvxhdengW5QqXe3jPzfZFAQgAIHpCIjSPS8SVmOvtJrvkIXWyY6gspp/IAvNf5xcTE0isbyJKy2+XIkrvR7yaoDYilpc6f1PIa70Z30XV3qbcRBX+hiQV12hFbW40vv3KK70+p7Fld5G1OJK73+IuNLvhyKu9H6QV2JxVXXHihKLPo+FlQGCatR7dymxEPU4rcTCFGOogDqthOuf3anEiTiMU0qcOKXEcXcjdfzUBHJq3GfuUKnjIYxjd6jU0PFhlZpYMgX12Q9pWTVo8BTCHRJLN0iP20hsw3ZTQnmcH1Lq8iGlrhz6tLp88Fb1wKFXTPevTj4NAQhAYEoCN1p3v1gU6zcKu3UiXewkqXSK6ml/RdUgmYW86qW+fE5d6RTXVKkr/XnkVVeGIa96aa8QUlc62TU0daV/hrzqiS/kVVeQIa+QV6Ysm0JcacnlWlCNWjcO4kofA/KqK7SCElLTbHeguHJkFgJrW2DFTVwl+mmDHmWV2Qx+S15pgdUbT6nLhy6oSwePKnX0min/WcrHIQABCOwkkCrUXyqK7e8VduNnZLH5a9JufkbaTbU9pir9GySlJn0PeYW8MoUZyate8ovkFckrM7GFvEJeOYkrZ+lz6kqnuEheuZRbyKteaiuE1JVOdg1NXemfTSOZgvrsSHlFCSHySk1eMnjz8CcL6qcLmmO6pw16EFo7pFW/wOp//ZfqyiFLffzAV+78FykzCEAAAkMICLv1cllsvl33qZJ2+z5pN5/ellX94kq/Rl5F0AeL5FU3+YW8Ql6ZSSySVySvzJJEklckr0heDS9RJHk1I8krEljIq+DklZZZoQisieRVv8h6WF05dBvlhUP+wc7bEJhnAlpYpe3mu2Sxfae0W38u7Zbqjb6kFfIqAlllNolHXiGvzHJFklckr0heDe6jhbxCXiGvkFeJSF4hsDoCi7LByRJYAxJWZuKqfx5PedUvsh5Xlw+uqotHrp3nf69z7hCYewL73td+nbTbeWm3Pibt1tM9YYW82m7wTsP2AT2xzBK+KOYkr0hekbzqJa2QV8grpzxw2JKywW6zeHpe9WQWyasZS14hsD6BvJpTedUVWZcOKXXp0NPq0qGmunRIzP0/5AEAgXkgkF4sP0+ebN4kC+3bpN361GBhhbxCXo1q5B6FrDL3ibxCXiGvkFdmmaA5J3lF8orkVU9Wmb22kFczKq/muAcW8gp51RFYWmI544K6ePj18/BveM4RAnNFoCOt7PYPpO1WU9qtR8dLK0dgUTYoOukrs3wvqjllg5QNUjY4+KmD9LzqySwattOw3UxgkbwieYW8Gty4Pagm7NNsd2zDdid11b+cw6cQIq+QV9vSypFXzlInssrqwUOvmqt/4HOyEEgcgVLpalFs35i2W7dLu/WFyaUV8qqTvqJskLLBXEWJgcOUSFHN6XlFzyvKBikbNGWVOUdeIa+QVwmTV3OYwEJeIa+GyitHYunl4+rSodvV/Ydelrh/13NCEEgygW5Pq+atabv1d9NLK+QV8mpY6aBZwhfFnLJBygYpG+wlrZBXyCtTVplz5BXyCnmVQHk1ZwILeYW8mkhe9Yusf1YXD1nq4tFnJ/nf/JwbBGaawI3W3S+WdnNR2K0H3Usr5BXyCnk1OHHlJLGiSlqZ+yV5RfIKeYW8MmWVOUdeIa+QVwmVV3MksGZIXj14s5pMNAXxucQ9bbC/YXu/mJr29Z+rBw4emul/5HPwEEgaAWm337RVIviId3GlBRY9r+h5ZUqsKJJW5j5JXpG8InlF8sps0G7OadhOw3YattOw/Q41WFo570/Tmyqoz7rqedXf/0ql3vuhOeiBhbyaTIjFUV4d7gqoy4fcL3tN2qeVVrs/f/nQeXX/kW9ImgfgfCAwMwSOHLvnOeli66gstC74I61IXpG8MqWVMzdFUhRz5BXyCnmFvDJllTlHXiGvkFfIK0dSDVsGJaSm2a4v8moOBBbyCnlSQ8r2AAAgAElEQVQ1ddngbnHVL8EuHvy8unzwhFJHr5mZf/RzoBCYdQIiV/sGYbd+Ttqth/wVVySvuqmrhhJWVE8XNPfL0wZ52iBlgzxt0CwTNOc8bZCnDVI22C0TRF4hr4ZJK+f9aSRTUJ/1TV4lXGAhr5BXPsurSweVcsbFg/epi2/ZN+tegOOHQKwJSKvxSllo3ybt1qP+iyvkFfLKSVv1L6NIWpn7JHlF8orkFckrM2llzklekbxCXiGvHEk1bBmUkJpmu77KqwQLLOQV8ipAeeVIrEsHn1KXD95Kk/dYKxAObhYJ7D/ZeM1Wf6sngxFXyCvkVb+0cl6bIimKOfIKeYW8Ql6ZssqcI6+QV8gr5NUwaeW8P41kCuqzvsurhAos5NVk8ko3gZ+i79Vl3Y8qjOGh35XuldVf7ufb677kVU9e9aex/kw98JbrZtETcMwQiBUBYbeuSxebq9JuPRWcuEJexUteBVAyaDlCapplFLLK3CfyCnmFvEJembLKnCOvkFfIK+SVI6mGLYMSUtNsNxB5lUCBdUSpT8RNYN2slH6y4KBxJYgnCU66TeTVZLJrjLzqCa1H1cWDeaVKV8dKCHAwEJgFAqli6/q03bpb2q1nghVXyKt4ySvd/yoAgZWfRlzpz5oiKYo58gp5hbxCXpmyypwjr5BXyCvk1TBp5bw/jWQK6rOByauECSzkFckrvxNYE8urXhrr0qELPKlwFowJxxgLAro5+1ap4NPBiyvkVbzkVQDiiuSVErmKy2E2To9ivqlEbmtkN5WIbGwokQ1hZExh1T8/p0Qm6nFWiYzHsWw2X3czp2E7Ddtp2E7D9jvVcHGlf3aqO46fUsLFSB0/pbyPO1TqeAjjmCOqBi2DElLTbDdQeZUggYW8Ql7FQV5tC69/UpcPvSMWgoCDgEAcCRwolb9c2q2StFtfCkdcIa+QV4NSWVEkrcx9krwiedUvrvTrqMWV3r9HcaXXR16prngyU1Ru5iSvSF6RvBousJBXqY7UmkYyBfXZwOVVQgRWHOWVLmOkbHCynlkee14F0vdqW0T1JavcvHfT7TR4j6M94ZgiI3CgdO+zhN2+Rdqtz4QnrpBXyCvk1fBkVhRJq0H7JHklOoks5FVPfJG8InlF8orkFcmr7VQXySstrxIgsJBXc528irW82hJelw/+sbp40zdGJgzYMQTiQkCebN4k7eYD4Yor5BXyCnkVb3lF2WBXXJG86okrnd5CXiGvkFfIK+QV8qojrBxx5SwvxuXfNurBt/6G+sRb1eQDeYW8ilXZ4PC01sWDn1WXDn1XXP5b4zggECqBtNX6Jmk3fyt8cYW8Ql4hr5BXk/TSCqHfle6pRc+rCcsKkVfIK+QV8gp5hbwaKK9mOIGFvEJezYy8UuriQT2e1E8pDFUcsDMIREmgWy7YOiHt1iPIq4aSBXdDFBrK1bAaqiuw9JP+oh40bO896ZCeV92eVySvekKLssFe+gp5hbxCXiGvkFfIq6HyarYF1oO6z1ScBj2v6Hll9MnqiitHYDnLs+r+Qy+I0iuwbwgETmC/3XhD2m79cTTiiuQVySuSVySvSF5N3gw+Dg3b4yCu9DGsDx9Lbpqvu1mHhu00bKdh++CG7VvN2vUTB108aVCv4/1Jg3obITxpUO+DnldOyaC5nMESwjhJK+dYkFfIq4nk1ZbEOnS/euDQKwKXCOwAAmET2Fs6/3xpN2+Vdusp5JW7xJWT1HKVutJpLZJXSuRNgWU++S+KOckrkldmGSHJq27yCnnVTV1p2YW8Ql4hr5BXyKutZu2muHLmMyawHGEUpyXyCnk1jbzqlBNqkfV36uLBN4TtF9gfBAIjIO32EWk3/1d04orkFfLKFFd6HoWsMveJvEJeIa96ZYK6SbszkFfIqxBKBhdXlFiYdpgiKYr5aSUWphgnTivh+xhXzhfGz0le9dJYH1apY1GPD6nUMY+j+zRBR0hNu5whgRUnaeUcy4zLqyuH1WTyyevnDimlnxjoZVyauZ5XTsngqOXD6uJNhwMTCmwYAmEQEKV7XpQuNlejFVfIK+QV8oqyQcoGKRt0I8QoGxSLa6qXfDKFUpjzFSW0bPJ7IK9ciq0w5NS4fSCvkFdmP6zbZ0RgOcIoTkvk1WTyy6O40tIrmfLKEVuPq0s3/VAYnoF9QMB3Avut9j5pt/4cedV03aTdKRnUS8oGRzR731UWOEhY9b9npqCimJO8InlF8qqXtnJSV3rpRjQFsQ7yCnllJrOiSFqZ+5widaUTWr6nrvQ2x4mlMH6OvEJe7ZJXKvXeWRBYcZJWzrEgr5BXrsoGHWllLp9RD9xU8l0usEEIBEdAXSXszhMGH0deIa96TzkcIaAsDz9DXqnh6arKiJ+VVVcgRbnkaYM8bbBfXCGveiWD9Lzqpb4CSF1RNuhBbIUhp8btA3mFvBoor2ZAYDnCKE5L5BXyyld5pdTFm7rj0sHblCpdHZxzYMsQ8IGAsFsvF3br16MXV5QNUjbYn7hyXkeRtDL3SfKK5BXJK5JX455ASMP2rsBCXokFJ4FF8qqb/EJeIa+GyquYC6w4SSvnWJBXyKuA5JUjsS7eVFYXjz7bB83AJiDgPwFRbH+vtFv/iLzSqSuSVySvTHGl58gr5BXyCnmFvOqlq0b10EJeIa/MJBbyCnk1Ul7FWGA5wihOS+TV7Mor3UfLEE9+zC9uP1HQLAmccL6VvOrJq6001sF71J8feY7/9oEtQsAlgfRi+XnSbn9Q2q1nkFfIq564qivhpTRw1LqUDY4oDaRsUGRp2E7Ddjc9seh5Rc8rel4N7plliqQo5sgr5NVYeRVTgRUnaeUcC/IKeWUIsMDklSO1kFguVQur+U1gX7H5Cmm3/yge4oqyQcoGnVLB/uWgJFTY75G8InlF8orkFckrkldOOeCkS8oGKRu8Q/XElX794RiMD6nUMY/jvaaMmnZ+u5ZVg0bMnkLoCKM4LYfIqwdvVupKVOOwUlemGJcPq8kElJfPxfFpg7OWvHLklbNEYvntYtjelATShfabZaH9D8grJ3VF2WAvfeWhKTvJK5fpKpJXJK/OKZJXJK/E0pT9sxbXFMkrklckr06p1PFR4w6VOh7COGYKq/458irVEV8DxZUjs2IksI78hnowTuJKHwvyajLxhbxSEyeyHDk16RKJNaVy4eN+ERB2+xZpt59EXiGvetJKlwxSNijy/ekuklckr0hekbwieUXyatLElfM5klckr/rFFcmrrrjSKa2R8kr/HIE1VJohryaTVzq15VFgXdJJKb+HUfIX655X42QWEssvJ8N2JiBw5Ng9z0kX26vSbivkFfIKedUvq8zXyCvkFfIKeYW8Ql45UmrSJfIKeYW86gmr/tLCsfIKgYW88qG0cE7klRZgE6esBn12nKQa93Mk1gTqhY94JZAq1F8q7PZHkVf94oqywZ7Eomywl75CXiGvkFfIK+QV8mpSaeV8DnmFvEJeeZBXCKyBAovkFcmrAemtSOXVttxqqnsPPMuro2B9CAwkIP5/9u49Po6svvO+ZgYCJCHckoVAEhIgyQYCT4hHdVozvsiWWp4JgVye+Mlmk0BIdh3csmxJvkjqCVllNyHJZjdhBksaz9hjyx48vowtyRMgLElYEkLYxeOb1PIAGXjIhXCbABkuA8P4t3vUqu7W6aruuld19+eP86quruoq+bygXlPv1/f3O7/10A/niuc/Bl6BV1WwsksGKRuswpVOYYFX4BV4BV6BV+CVjVJet+AVeAVehcQrAKsOsMAr8CqzeCWypCErf8gRH/iSGQgzA9Zvnd+SK57/EngFXoFXZpmguQ9egVfgFXgFXoFXXtHKPg+8Aq/AqwjwCsBaA1hZxCu9ymHWVhvsoJ5XqZcNVpJXq3i1ul/q/09hrILfMgNrZiA3sfDzueL5r4NX4BV4ZWKVuQ9egVfgFXgFXoFXNkp53YJX4BV4FRFeAVgVwAKvSF5lPXllYlZfYQ1CsMMMBJmB3B3nd+WK558Cr8Ar8MrEKnMfvAKvwCvwCrwCr7yilX0eeAVegVcR4hWAtQJY4BV41Wp41S9S6v+WlPp/JohZ8BtmoKurS25QxYX/WoYrVhvMTdQC1pzkJsINNTEngcb4nKiVUdt7Kq3PNGyv9r0Cr8Ar8Aq8Aq/AKxulvG7BK/AKvIoYrwCsR8Ar8KoF8WqlF1a/yGL/V+VqXw8cwwz4nAG5IVc8fxd4VYtW9udwcKXhKxBc6d+BV6LGzhrDTEGlsQ9egVfgFXgFXoFXXtHKPg+8Aq/AqxjwCsByA6xruvdUWqMNe14tD4iUoh4O8KR7VoUd2VhtcG3PKxusareLK4ClEevzcrnvR3wCBqd36gxs23b6ptwd5+8Dr2ywqt2CV+UyQpJXJK9OSxmt7O0pUftXx75TolIbJ0XtS2DsNcGqdv8BUXvTHidE7Q059pwQZ5Ty+v07Re3Jwrhf1B6XMdoMnaI6flzUaEpj5LiolXFMvAFTnOfNihqJYQzPivI1bEBKcwtegVfgVUx41eGA5ZK+Sg2u2rRhO3jVHKNqYcrL5ypeacDS41FZ7Hthp5oM/26PM7Bu+8Gn9xQXzoBXtWhlfwavwCsz3UXyiuRVLVzpz2nDlb5/SLjSvwevREWGWynBlQYz8MoBttJEK/ve4BV4BV7FiFcdDFjglbfSwQERDVBhBsmraAGrHq9sxPqQfPz2Z3ikDE7rtBl45eTpb+spnp8Hr2ywqt2CV+AVeLU2cUXyStWlsMCrMnxlIXWl/waX1JX+PjKcanYt8Kqc+oohdaWTXL5SV/p8G5DS3IJX4BV4FTNedShggVfglVFq2HplgzZamdtjneYy/Hs9zMBK2WDxoQfAq1q0sj+DV+AVeAVemUkrcx+8Aq9MzAKvwCsTysAr8Aq8SgCvOhCwwCvwqm3xahWz8rs9kAandMoMaLxSE+dPgFc2WNVuwSvwCrwCr0ysMvfBK/AKvHLur0Xyqpr6Aq/AK/AqIbzqMMACr8Crdscr3Q+r71tydcvtneIz/DsbzADJq1qsMj+DV+AVeAVemVhl7oNX4BV4BV6ZSStzH7wCr8CrBPGqgwALvAKvOgKvNGDp8QVZ3vLSBrTBofafAbkhVzx/L8krE670PngFXoFX4JWJVeY+eAVegVfglYlV5j54BV6BVwnjVYcAFngFXnUUXtmIdUk+1POs9nca/oWOM6CKC/8VvAKvylB1Tuq3Z0WNxzDGzoryNUxISmOf1QbLmHVK1P7Vse+UqNTGSVH7Ehh1TdprAQu8Aq/AK/DKxCpzH7wCr8CrFPCqAwCrxfHq2lbxhk9hzwu50qBepbAjVhvMR7ui4FK/+/XcVxs0G7fbYOW0nXLEDb5s7xnIFc+PgVfgVT1a2ZAVA1xpDPMFV/r8NLDKvCd4BV7VwpX+DF6BV+AVeGVilbkPXoFX4FVKeNXmgAVeecMv8Eo8r0LYAJwaYZTfY9HgVRm0lvrf2N5aw79uzQz0TJz/jVzx/PUyYC1IrpiFMS+5osuYcIKmOL6jbJCyQfCKskETq8x98Aq8Aq/AKxOrzH3wCrwCr1LEqzYGLPAKvIqybDDB5JXGLs+AtdLvyil5Vfvd47LY/2NrkIOd9pyBXPH87bni+SfBKxPAwCvwCrwCr0ysMvfBK/AKvAKvTKwy98Er8Aq8Shmv2hSwwCvwCrxabea+CllbFumH1Z5mVflX5YrnfzJXPP84eAVeOZcOUjZYLVmkbJCyQfCqjFUnZO32naL2ZGHcL2qPyxg1kSmu/eOiRlMaI8dFrYxj4gxKSX4/K2okhjE8K8rXMCEpjX3wCrwCrzKAV20IWOBV6+KV7qNlwFMU+57LA3XKymkkVDYYffKqNoWlP7+9gh18aK8ZUPvf/X254sI/gFfgFXhlJq3MffAKvAKv1qKVjVhZgCv9N7jAlf4evEoYtGKAK41hvuBKn58GVpn3BK/AK/AqI3jVZoAFXoFXBoA5gpQTUrl91zZ4pQHruixtfkN7yQ3/mq7143/6vFzxfAm8Aq/AKxOrzH3wCrwCr8CrZhCWUupKp71IXjnglglJaeyDV+AVeJUhvGojwAKvwCvwam3ZoFN/rC2fk0fyL4Z92mQGtm07fVOueP7d4BV4BV6ZWGXug1fgFXgFXoFX3koSSV5VU1/gFXgFXmUMr9oEsFzw6pHbRK6lNbaKXPMxlreKN4AKc14WVxukbDDihu1m2aDT/v8Q6bqhTQins/8ZPcWH3g5eRYtXamJOAo/xOVEr45w4g1KS39Pzip5Xp6WMVvb2lKj9q2PfKVGpjZOi9iUw9ppgVbtPw/YyZlE2WC1LJHlVxi3wCry6T8poZW8Pi9q9OnYdFhVgWLsOS/hxSKxdCYwhE6xq9+8VayjtcY9YQyHHznvEGaW8fn9QI1KaYykrb4DyyO3vlUduF38DvPIOXyEBq6SxKephpKboeeWyAqFTmirEd1f7tmfl//f8HQFnoKf40BvBK/DKGcrAK/DKRit7C16pCmiBV+CVmcQCr8ArszSR5BXJq1q40p/Thit9/5BwpX/f+njV4gks8Aq8cgCwUH2v2qrnlVP6yv7uK1LqfUVAOuFnac/ALRMP9eSK55/IFRckG2NeckWXMWEiU1z7c5KbCD4Cp650Yovklaixs8YwS/jS2KdskLLB2tSV/gxegVfglXMZIckrkld24srekryyKmks8KoMX6mmrmoSX3e3aAILvAKvwKvmPa8apbS2fFBOb7spbYvh/j5noHvfu17UUzz/6WzAlQY0F7jS34NXCZcSkrwieWUnruwtySuSV/Yqg/aWskHKBo8ZqxmCV+CVjVb2FrwCr8y0VmbwSqydrQhY4BV4BV6Fw6tV2FraMuyTTzg9zRnonXz/01Tx/AfAq1ocC5660oktkldN0KsuWWUmrcz9NJJW5j1JXpG8InlFw3YzaWXuUzZI2SBlg2t7XYFXVbSyywdJXmUseaXxqgUBK4t4pRvFZ61hu2723iE9r3TfLMoG7dJAv9uvyuKWl6dpMtzbxwz03HH+j8Ar8Kq+71UThBoPeBy8ErX/TIBhp5/S3JK8InllJ67sLckrklckr6pJK/AKvLKRym0LXmUUr1oMsMArklckryJJXi2uKS38S1Yl9IFIaZ2am1h4Q664cD0bgEXZIKsNkrxyxq000cq+N3gFXtloZW/BK/AKvAKv7ISV25aywWoCC7zKMF61EGCBV+AVeBUDXpUTW0t9b0rLZbivhxnoGV94Ra648CXwyk5fUTZYTmEFTFY1S2SRvAqQutJJLRuQ0tyCV+CVjVb2FrwCr8Ar8MoNrezvwSvwKtM9r+zSQXvbAk3cwSvwCryKDa/KaazHZLHvhR4ohVOSngHd9ypXXPhb8Aq8Wls6CF7RsN2EMvAKvLLRyt6CV+AVeAVe2UjltgWvwKuWwqsWSWC5ANY13XsqrdGGPa90z6xS1MMBnnTPqrCDnld+e101Pv9qn8jV/hNJ2wz38zADuTsW/hC8Aq/AK7NRu71Pw3YattOwnYbtZoN2c5+G7TRsp+cVPa/cel3Z31M2mPGyQTt9JdZg1lchBK+8pa9CNmwHr0SW+qMdi/0insaaflSNoWlt76pozl3BKw1YfSJXtmzxQCqcktQM5H5rrjdXXHgqfcCi5xU9r+h5Rc+rU6L2NRonRe1LYOw1wap2/wFRe9MeJ0TtDTn22AmqoFuSVySvSF6RvHJLXNnfk7wiedVyySuNVxkHLPAKvDLSWiSvokGrWgirBayrfR+Vj9/+jKR8hvs0mIENE+/+np7iwqfBK52+oucVPa/sxJW9JXlF8qoWrvTntOFK3z8kXOnfg1dSxSczSeV3n+QVySuSVySv7ISV25bkVQslrzIOWOAVeNXueKUTWhlKX1Uga8tYA1bhUFIzkCsuLIBX4FW1dJCeV/S8oudVtccVeOUMXSSvqvgFXoFX4BV45YZW9vfgVQviVUYTWOAVeAVexY5bFbBaLR9c2d8icnXLV+VS7w8m5TTcx2EG1MT8m8Er8Aq8stNWtVuSVySvwCvwqlkSC7wCr8Ar8MpGKrcteNWieJVBwAKvwCvwKkW80oClxxkHVuGrJGZA7T/7fbniwr+kC1j0vKLnFT2v6HnVqN+VPpZAvyt9D3peeSgrJHlF8oqeV/S8sntbuW3peUXPq5bteWWXDtrbpSTeybzcQx657b3yiANgpbbSoF7hkNUGva1MaKBT2FUG7d+3Xc+rzJYN2nBV3V7Z3Ofl/7ecE+kMyA2quPBn4BU9r+h5VZu60p9JXpG8MjGLnlflJBZ4BV6BV+CVG1rZ34NX4FXb4FXGElgOgNUqeKWhazmJwWqD4gm1Il5RsNEKhZ5WGrRXJMxkz6sqWpXTV+X9K32XRCZvjJRnuFjjGcgVzw+BV+AVeAVelbGKnlfu6SvwCrwyywgpG6RskLJBygbdygXt7ykbbOGyQTt9lW3AAq8MFAOvvOFVXqQROEV5rF3xqgpZv9ZYXDga2Qzccse7XporLjyeHmBRNkjZIGWDlA1SNuhtNUNWG1R77OTX/aL2uIxRE5ni2gevwCvwCryykcptC161CV5lF7DAK/DKU9JKY5U5spi+aqHkVRWvdBLrM/LIrc+ODGm4kPsM5O5YeAi8Cp6+UhNzEniMzwl4BV6BV+AVeGWjlNetC1xp0AKvpIxKZnlfXPuzokZiGMOzonwNE5LS2D8iatjH2H1EVOTDLt1Lc0vZIGWDbVU2mO0EFngFXtWhlIlUbvvgVV0DePfVBp1LB9cClsjVvv/sri4ciWQG1MT5XwWvwCs1flZiGWMmTjXbN0v40tin5xU9r+h5xWqDzSCM5BXJKxPIfMCVRq7I4UpfM020su8NXoFXbYtX2UtggVfgFXgldQi1GDDBFRqvVlYk/Jpc6f2+SKCGi9TPgDVx7gW5iYXPpgNYlA2SvDIxKw2sMu8JXoFX4BV4BV55S3DFkLrSSS5fqSt9vglJaeyDV2U8A6/Aq7bGq2wB1rXb3iupAZaP1QY7umH7gIi9QmCU28BoZSexSF7VoVc0eLXa0H3LTL288E0kM5ArLhwHr4KlrwKXDOpyQ8oGRdUls0xISmMfvAKvwCvwCrwCr/wCGHgFXpm9r+h51UY9r2rLBwGsFTADr6SkYcrLyEcPWOBVdIkrO6kVJV6VSwqflKu9/zYSsOEi1RmwJuY35IoL15MHLJJXJK9IXtHzip5X9Lzy2uvKPo+eV2rkeMK9rdx6ZpG8qqa+wCvwCrwqY1XbJ69syFqqvk2l+0lSSWCBV97giuSVeF5xMGC5n41PYbfR49VqCmvzyXSfEG12997J9z8tN7FwFbzyn74iedWkV1ZdssrEKnM/jaSVeU+SVySvSF6RvCJ5RfKK5FWwHlqUDVI22DF41eEJLPAKvPJYetjpeFVOYV2Xq5vXtRkjpffP6Sku7AOvwKvIm7aDV+KcrDrT5PvTUgakNLenRO1fHfuapaPiPH5S1L4Exl4TrGr3HxBv6ag4zzsham/IseeEOKOU1+/t5FPaW5JXJK/Mvlh+oSmO80lekbwiedVhyasOT2BlEa+2iiwPhBueygC9lArWnkPZoLf0VZsmr9asSrj5PemJTxvduXvfu16UKy58OVnAomyQskGSV864lSZa2fcGr1QFtOJEKa/XDglXGr7AK1GjzRJVXo+z2iCrDZoABl6BV+BVh+JVhyawwKtUk1e6+XuovlceU1NLEZxH8qpcPliLWJf717cRJaXzT8kVF06BV/7SV5QNUjbojE/NklXNjtuAlOYWvAKvTPBKO3Fl35/kFckrkldq9xGpH/dJsFK/KH9H2SBlgx1VNminrzoQsMAr8MojbIFX9Xi1AlmksEKpV88d87ck27id5BXJK5JXzviVJlrZ9wavwCvwyj2pRfKK5BXJK2coA6/Aq47Fqw4DLPAKvAKvpDZNFfTz0uZbQyFOx/54cvLGnuLCR5JLX4FX4BV4BV4165eVQL8r3VOrUiLo9NlraV+c51E2qPaQvFKjepVBe7itAJjk96w2yGqDZmoLvAKvOhqvAKxrLqi1rPtRJTE6pOcVZYMiYVcXNH8f12qD3lDr3R1rUGH+4bmJhTeBV95LBykbpGzQGZ+alQU2O26nn9LckryqglacKOX12uAVeLWa9gKvRA1TNlhfMqjLCE1ISmMfvAKvOh6vOgiwXKDKCbASgasOatgOXrUbXpVLC69sVmEsp+N+2zNy+lm54sKnkgEsklckr0heOeNXmmhl3xu8Aq8oG6RssFmKi+QVySsTyMAr8Aq8sgbv7hDAAq+8lQ7GsNogeNWeeKVTWle2PNRxCBXmH9wzMf/b4JW39BXJK5JXzvjULFnV7LgNSGluwSvwCrwCr8CrKk6ZPa7MfVYbZLVBVhvs4NUGNVY5jaUw72RR/lau3fZeuXabRDvAK/DKQ9+rlm7Y3ufSbH1L3N9fl6Xen4jyGdC211LFhRfmiguPxwtYDVJXxXnJTSQ1vCFVbsL5PPAKvAKvmvWsCnM8oX5X9LwStceEKqd9u+dU2ltWG2S1QcoGKRs8LNauRuOQWLsSGEMmWNXu3yvWUNrjHrGGQo6dZpLK7/5BsXZmYdwt1k6X4QxPThgV5Ls2Bqw2xKvlAfEGUn7OI3klngCrL/o0ldnXqtG+Y8+r1PDKxrHjbYtOUf7DeooLB8ArZ7CqhSzwCrwCr8LgVLPfgldqr90Ti55X9Lyi51V9rysbscwUVBr7JK9IXtXClf6cNlzp+4eEK/178CoIWJm/aVPAAq+8QRd4BV6FSmp9Sxa3vDxK62m7a+XG534wV1x4Ij7AInlV7nc1J2r8XAZGE4QaD3h8zOxp1Wz/QVFjaY8zosZ8jP3NSgCDHE+zXNC+dxbKBsEr8Mop5UXyiuSVjVb2Ng2sMu8JXoFX4JUzdGUhdaX/BpfUlf4+3uSVff02BBs9DNAAACAASURBVCzwCryibFC8rSZoJ6nCbN/RdugU5T8oV1w4Dl41Tl+RvGqCWuCVBEtm2YCU5ha8oueVWTroBElpfAdegVc2WtlbE5LS2AevwCvwCrxqCmFtBljgFXgVJV71p1s2qEsKHUsHQ6WmwmCV02+/Lku9L4rSfNrmWrcU//THc8WFp+IBLJJXJK/MFFbaiSv7/j5SVzqhRfJK1L5m5X9Bj5O8Inll4lgDuNpzv7g3WI/62GoJ32gK25HjAl7ZaGVv08Aq857gFXgFXoFXzfBqRqew2giwwCvwCrxKMHlVxawrWybbBp2i/IfkigsL4JV7+orkVZTJKxuP0t6CV2q/TnyRvCJ5lcXkFXhVhisNWM1WAkzi+KyokRjGsI1SXrcmJKWxD16BV+AVeOUFr9oJsMAr8Aq8SgevNotc2fxZ+WTvM6O0n5a/Vq54/idzxYXr0QMWySuSVySv3FNbaZYL2vcGr8Ar8Mo9yZVC4spOeZG8kvrG7WlglXlP8Aq8Aq/AK6941S6ABV6BV+BVinilAUvkau+vtTw6RfkP+L+AdR68ck5fkbwieeUOUGFKCm1ASnMLXoFX4BV41Sy9FUPqSie5SF6J2n0kwLhPyoCU5vawqN2rY9dhUQGGteuwhB+HxNqVwBgywap2n9UGy5hFw/ZqQ3iNVrWj1UsIfeDVta0iy0mMAZHlkKM0IN5Qyut5rDbobbVBel55hjCNVmvHokjXDVEaUMteq2d84bXRp69IXpG8InnlDl9popV9b/AKvAKvwKtWwCszAZXWPskrkle1cKU/g1fglZnEqoUr+3MrAxZ45Q25sohXeZElD6mpKM5Z1CjldfSl27Q9+w3by32v1sJVFbIu921uWXSK8g9Xxfm5aNNX4BV4BV6BV80audOwnYbtNGxXdrmgvaVs0EhmpYVV5n3BK/AKvKJs0MQqc98GK3PbqoAFXoFXHgEMvKo2W78aweqFbnhV/n4+SgdqyWt1v/X8q6JdeRC8Aq/AK/AKvKri1APS+PMJUXtDjj1mksrvvglJaezTsJ2G7WZZoYlIae2DV+AVeAVemVhl7ptoVbvfioAFXoFX4JXnUr8o0Mq+RmO80kmsp+TKxh9qSXiK6o/uKS6ciS59BV6BV+AVeAVeNQarWtAKCVcavsArcS8DvN/nMRq2l1c7zELPq7SwyrwveAVegVfglYlV5n4tVjl9bjXAAq+84ZXujRVD6eCSLv0LMzzCU6Klg5QNesKw5nhlN3P//agsqOWuY02c+5Ho0lfgFXgFXoFX4BV45Te9RfKK5BXJK/dm7mk2arfvTcN2q9LEnZ5X9Lzyi1catFoJsMAr8MojgFE2mGTZYLUHVhm5Pi8fv/0ZLYdPUfzBuTsW7okmfQVegVfgFXgFXoFX4FVdTyu7t5Xblp5X9LxyXYnQBqQ0t1nAqwRWGbRXMqxAlZm60vvgVXbw6m6xdjYYgyYyxbXvlLZy+q5VAAu8Aq/AK09JKbvcL6qt1+TVmvO2/FIUHtRS11DFhRfmigtfDw9Y4BV4BV6BV+AVeAVegVcOpYfDZrqq0b5ZvpfWPmWD2SkbBK+qcHaPWEMhx857xLkc0Ov3B8XamYXRSnjVKgks8Aq8Aq9aB68260TWB1oKn6L4Y1Vx4W3g1ZzkJuZEhRnjc1IGrHOixtMeZ0WNxzDGTKBqtP+gqLEsjDOixnyM/WfEHaGCHjstan/a45So/atjXzNkius4qw1WcYueV2qPhi7KBikbNCErLawy7wtegVdm+orkFckrM8HllLJq9F3WE1jgFXgFXrUYXq2WFPb+eBQu1BLXuHX/wrNVceGL4QCL5BXJKxOysgBX+m/wAVf6XPBKVGy4BV6BV2YyC7wCr8Arel4dFmtXo0HyiuSVmfRqkLrS5YSZKxusBa0sA1YW8WqryPJAuFHSDdajHjE0bNdN4GnYLrIYYZP3q30idWNLtP2qoigdXFMOuJKoMvtcNd+/3PuOlsCnKP7IXHF+BLwiedU0rUXyKiBupZ260vcneaX2npTyqF31L63PJK9IXq2ucEjPK3pe0fMKvPLcTytkyaAuOWyLssFWxqsslxCCV96RC7wST03bI4SoIKhVB1cas9oUr8oA9ph8sveZUfhQtq8xOXljT3Hh0eCARfKK5BXJK/fUFnhVTnORvCJ5RfKqricWeAVegVfgFXjls49Wq+NVVgELvAKvKBtMBbeiSF7VXuNy7y9mG58i+Ot6Jh76WfAqRPqKnlei1iSzKBusYhZ4BV6ZCS+SVySvSF4px0buZu+ptPbpeUXPK3peOae0zBK+NPbbAa+yCFjgFXgFXqWCVzoNVotP0Xz+swiIKNuXyBXn/zwYYJG8InlF8qqKVWbvLPAKvAKvylhF8orkldnjytxPC6vM+4JX4BV4BV41659V28sq4OedM4tZeTuUa7e9V675AKxl3Y8qiUHPK2+9sDzC01IE53kqGeyPtn9VO5cNxoNXGsSeksWN35+VZ0zkf4eamH9lrrhw3T9ggVfgFXgFXjVbpZCyQcoGwSvwysQqc99EpLT2wSvwCrwCrxLAq8EZsQozFyN/qQt4QV+AlQhc0bDdG1zpZu8RoJTXa4BX0ffOiiZt5ZLg6r0j4CMh+z9TxfN3g1cBygcpG6Rs0HWlQpJXJK9IXpG8Wi0THDW29Lyi5xU9r+h5Rc+rDux5VZfU+khW3hI9AxZ4JaJXCIxysNpgtGmtVmnYHl/yqhazPiHSdUNWnjOR/R3rx//0ebniwlf8ARbJK5JXJK9IXpG8qiarTKwy9+l5Rc8rel7R8+qIKFe40sfuy8A4LGr36th1WFSAYe063ASnmh0/JNauhMaQmbaq3b9XLM/IFNe5rDZo7dQ9ttql55UBWDtn/jayF7qQF/IEWOBVtHClEQy8SgCv2n7FwVqwqv98uXd9yMdD9n6eu2N+F3jlM31F8orkFckrKSes3BCLssEqboFX4BV4BV6BV95gKyG40kAGXolzqeA9Nd+n0aDdvGeb4pUuIRyc/uusvBk2BaxWwavlAfHeiN3ruREnruz0FngFXsVaPrh5FbN6Z7LynIns78gV5xe9AxbJK5JXJK9IXrmhlf09eAVe0fOKnldmjytzP60eV+Z96XlFzysTs+JKU/m5Lsmrtk5ereDVjHQPzrw/she6kBdqCFjgFcmrpr2v+qLFKL9N2x3LBjs8eVXFscdkadu3hXxEZOfnuYmFW8ErH+krklckr0hekbzaa5YHuu2TvCJ5RfKK5BXJK5JXfuBKnwtedQJeWYMzogoz78vKW6ErYIFX4FXW8UpjlyNgbYm+4bruWxVmVFGpvtQv1mNbXp+VZ03ov6Pnjvlj3gCL5BXJK5JXJK/shJXbluQVySuSVySvzKSVuW8moNLaJ3lF8orklXMJoVnCl8Z+O5cNVvtgdQ/OLIR+mYvoAo6ABV6BV03xqj/d5BV45RHCtjwQ0aMi3cv0Ts49N1dc+GpzwAKvwCvwCrxyQyv7e/AKvAKvwCsTq8z9tLDKvC94BV6BV+DV3WINNhpVaNJpqThG9+BMZl4q6wALvAKvwKtwaavapFas6Sq711XD7dfkw7d/V7r6FMHde+44PwxeeSgfpGyQskHKBikbpGxQyuWAJlK57d8vak+DMXq/qETGagnfaArbkeOiVsYxUSNpj1lRIzGMYROoGu2biJTWPngFXoFX4FUjuNLH4gGruusWpg9F8EoXySXWABZ4BV6BV+2EV+WU1uUtvxrJwyLNi+SKC1caAxbJK5JXJK9IXtkJK7ctySuSVyZiNYArjVqJwJW+TwpoZd8TvJK1va/SwirzvuAVeAVegVcZwSvdA2tw5s403wVr710BLPAKvAKv2g+vVhJgve+u/f98y33uGV94LXjVJH1F8orkFckrklckr0he2SjldQtegVe73Rq33ydlQEpze1jU7tWx67CoAMNbU/bD4n7eIbF2JTSGTLCq3ffbXD2O82nY3ikN2+vSVxqwds78flZeIpMFrAGR5ZCjNCAS6chHD1elvMhS2NEvspTA8IRWut8VPa88N3FPv2zQ7I/1TSltfX5Wnjm+/46e4sLb3QGL5BXJK5JXJK/cElf29ySvSF6RvKpLeYFX4BV41QCuNGolBFf6PuCVOKet7qn5Po0G7eY9O6NhuxNgdRdm3ur7JS6mH6wAViLpq5BwpeErUrjS1wOvyjBlA1WjbV+6TdtZbdBEKR/7vSJXet8U0yMk3sv2Tr7/abniwmecAQu8Aq/AK/DKRiq3LXgFXoFX4FWjflf6mFm+l9Y+ZYOUDZqYFUeSyu81SV51cvKqglmFmZ3xvvV5v7os3/ZeiR2wwCvviawEUld2sstz+gq88pS+yl7ySsOVPc57fypk6MzcxMIbwCuX8kHKBikbpGyQskHKBikb9FouaJ9H8orkFckrkldDXhELvAKvVpvE75j+91l5RYwfsMAr8CoEgJG88pG0MlcjrOCVRqwn5EL/c7Ly3PH8d+SKC2frAYvkFckrklckr9wSV/b3JK9IXpG8InlF8kq5YpXZ+yrNXlf2vel5VS0l9ApMcZ4HXoFXq3hVmJHuwt23eX6Bi/nEeAEri3gVU+lgq/S80ukrklfRNWu/uiUEMJngFOX+Grwqp7Au9f5yzI+TaC/fM3n6+bniwjfWAhZ4BV6BV+CVjVRuW/AKvAKvwCvwCrxq1Jzd6Rg9r6xKMgu8Aq+qeGUVZiQ3eEBF+6YX/GrxARZ4RfKK5JWkUlbogFe6lPBy71zwJ0UKv1TF89vBK6N8kLJBygYpG6RskLJBygbtckCvW8oGKRt0TWLZ6ac0tySvSF7VNmvXn83m6Wnsd27D9pq+V6LxyipMS09h6hUpvA463jIewAKvwCvwKmN4pQHra3Jl4DscHwRZ/LJnYuEvqoBF8orkFckrklduiSv7e5JXJK9IXpG8InlF8sopXdXoO5JXJK9MIAOvynBVxisNWNbggRdk5X0xesACr8Ar8CqDeKUBS+RS789m5dnT8O/o3veuF+WKC98qAxZ41fZ4NWbiVLP9B0WNZWGcETXmY7imp86IO041O3Za1P60xylR+1fHPhuTkt6CV+AVeAVegVfgVSOocjoGXoFX4FUlcTW4tmxwBa5W8Gr6G11dckPDl7cED0YLWOAVeAVepYNXun+WQ+mgRqs1Y9PhBB8vwW+ligu7wavV8sF2LxsEr8Cr0OgFXoFX4BV4BV6BV05A1eg78Aq8Aq+a4lUZsD4V/K0u+l9mCrBKusF61CMvUop40LBdZDEEVDn9ltUGQzaD94JXGrM2fVZOb7sp+idJxFfMFRf+NldskLyamJdcYmNOchPBh5ow+lj52QevWr/nVSypK53KSjt1pe9P8krtPSnl8YBUESmtzydE7Q059pwQFWqYkJTG/v2i9jQYo/eLSmQclzpU8tqzKux59Lyi5xU9r8TaBV5VgarRaoU0bKdhu0vySuNVeXw44le9UJeLDrBCpq8ih6uYVhvUGBYKsPpF9EqASQxWG+yA1Qa9Jq9qkliXNt8a6qER949vueNdL80V56+7AlZicKWRLDhc6d8GxqsKXM2JGj+XgXFW1HjEoxOSV+BVk4brYcsMSV5V0SwkXGn4CgVX+vdpYJV5zwZwpVErEbjS9wGv1MgxUSOz8YzhZmmr2uNHRQ1nYRwRNexjuALUEfGetDLPTbNRu31vGrbTsJ2G7dbg3eI8ViHJLuVLcrvSrL2m51UVr8QqTJ2L+/3Pz/WjASzwyhtqJQRXGsfAK/BqTelgDWBd7v0DP8+IxM/NTcztB680XIFXqoJcWeh3pf+GtPtdkbxSlXJD8Aq8Aq/qoIzkFckrV/iyASnNLXgFXoFXznClQSureDUt1o7p6cRfCBvcMDxggVfgVcBywlYpG7y6JWR5n05JxTG8lg2uwSvdK2u5wSMh/UO54rxz+SDJqxSSWBGnrnSKq4JSXj+DV9UG7xkqG6xAUtgUVZDfg1fglQ+8Six1RfKqnLoiebU28eUjdaUTWq4AFeZYmmhl3xu8Aq/Aq5bEq8K0dA9O/1b6b4jVv0CWt75PlrdKsAFegVfgVTw41Qy8AuKVncp6uPcV1adAhj713PHQSxzLB8Er8CrVVQdJXpV7bqW90qDGroTwqtLbyu5xZW7T6nNVe1/KBstliw3KBsErqaKShqUkBmWDVcACr9RuDVjgFXgFXrUqXukeWN07pn8lQ6+LXbI88D/BqyZN3ul5FW3TdpJXIRNZIfGqjFg7s/Qcqvwtqjg/WFc+CF6BV+BVBpq2g1dt1bA9dL+rFuh51Ql4VSkZPJ4QTjUDsBjwyle/K937Kgv9rvTf4AOvYkld6cSWnX5Kc7uKV7sOiwo4Gjdjb9So3T6W0GqDQ4ekClVOnxs1Uk/qWMiG7TtNiAqyb678l8b+3WLtbDBce1S59a4K+n1KZYOVflduPa8qzdtXmrjfvHMmUw2UpXTbB/0DFskrklckr1oyeWUnsC73PlRBoyx9yBXn/3wNYIFX4BV4BV6tlCuSvKJskLLBNT2vOgGvdBN4X4DVgnjVCWWDAeFKg1fL4NUuJ7Cq/S4poGp0n5B4NRQEq8zfpIFV5j0bwJVGrXbHK91rqwJYa6FqdcVBe+XBynbd9oPfm6X3RVne+mF/gAVegVdR4lVftM3Wdb+qKEYsPaualQU2Ox5J8kqkjFhfkY/f/owsPYu6eiZPPz9XnH+yAljgFXgFXoFX4JVU4UqXD4YsGyR5FfFKhCmtNtgJeOULrlo0eQVeNUxlgVeNMMrvMfDK2qkhC7zyi1dWYfrrXV1yQ5ZeGmV56wXvgBUSr5YHREpRjyblf6WAxykbTKBsELzynuKKFK/KiHWxtz9Lz6Ku3MTCm8CrcymglX1PGrarCpjR84qeV23Y8wq8Aq9i6YFF2WC1bJGywTU9rzoheUXZoFieygrNFFQa+w3wKrHUVYqrDVZSV97KBmvSWJlb/Uuubb3sDbDAK5JXJK+8g1OzNJWf4zHglU5hXer9o2wBVnH+3ApgkbxKAbHAK/DKXOGQnlf0vNJ9rmqHWcKXxn6HN2wneeVQUkjZYHXlwjR7Xdn3pudVtQ+W35RUHOeTvCJ5VVsy6BuvdBnhn2bqhbGrq0uWt36sOWCBV+BVQLxa1CkrpxFRqV8U5YL2Ndq/bNAuH7S3VzPzPLp96N3PyBXn/zUHXoFXlRTUg1JFpaQ+k7wieUXyai1a2YCVBlaZ9wSvVAWwmjVTT+I4ySuSVzZa2Vvwqq3wylOyyuxxZe6nkbQy79kgedUJPa+CJ69WemB1F6azlXgoA9Y/NQYs8Kp18ao/2jJAjVF+B3gVYsXBmJJX1UbuIosbvz8TiKXG5wbAK7uUL8ktyasqkoFX4BV4BV7d36TMkJ5XaqUMEbwCr2y0srfgFXjVYnhF2WClSXtNuWDdd2pw5tcz8bJY80fI8tYvuQMWeAVeBUArG7nAq2zj1QpkbXpzzeMgvY+5ifk7kwOsOclNBB9qYk4CjfE5UZWRJFK53Qu8Aq8oG6yWCYJX4BV4VcapZukt8Aq8stHK3oJX4BV45b564YxYeuW/pEfI5JWNWmrHdC69N0TnO8vy1iedAQu8Aq/Aq7bqeVWbvLI/X9o06/xkSPjb3MT8x5MBrOBwpdErEFzp31XgSn92A6UkvwevwCvwCryyywPdtmYJXxr7lA1SNqhXGKwdLdjzavcRqfapivKzDUhpbsEr8Aq8ale80oi1fsf08xJ+LWx4O/lk7zPBq7x4gyqn8/pFlhIai7oc0OsIAU92eirMluRVCySvelf7YG36p4YPiSQO5vaf+zHwCryqglJS/a70fSgbpGyQ5BXJK5JXJK/8ohirDbLa4CGpwpX+HEcDdr/XDNmwvRN6XlE2WFciaCetnLbdhen0XxSNl1G51veCesAieeUdtMCrup5Y4FUL4dUqYl3Z/KPGoyHZXTUxvzd+wCJ5VU5+kbyqQhl4BV6BV+AVeAVegVdljPKb4iJ5VQUsv9AUx/ngVdPVBsErX3i1ClrvSfatsPndZDn/w2sBC7wCr0Kkt8Cr1sMrXUp4ZdOO5k+LGM/ITcz/ZbyABV6BV2aqC7wCr8Ar8Aq8Aq/AK/DqkFi7GowhM2ll7seBUX6vCV6BVzNiRdTzqjaJpQpTvx/jK2CgS8u123qqgAVeZQ6vdHkiZYMiV7dEN65sDoFMcf02gdUG7Z5XTtsrvacDPUCi+NG6yYe+PTcx/0R8gAVegVfgVRmr6HlFzyu3Xlf292n0uDLvSc8rel7V9rvSn/0iU1znUzZI2SB4ZTmWGR6UMiClub1brJ0ug+RVkOTVym9UYeoXonjfi/Iacm3gp8uABV6BVySv2r5huxNerSSwer8gMnljlM8Wz9fKFeduB6/i7n9F2SBlg+AVeGUjldvWhKQ09sEr8Aq8cm/27rfEL47zKRukbJCG7e3csL02faU/37xj+mWeX+oSOlGuDbxJlrOIVwMipXz0Y8mpEbuf7xLqeUXyKrrElZ3eInm12rTdbt5ubC9u/n8SeuysvU1ufP6P4wEsklckr0hekbwyywTN/QdE7U17nBC1N8TY4wZSfr5PA6vMe4JX4BV4BV4dFmtXo9Gg1K9RGaDfY5QNinPSCrzqJLyyCtNf6uqSG9a+uaW/J9fyo6EBq6SxKeoBXnkrHQyRmgqzyqD9W3pehShHdCgbvGKgkltiKpbvNw2l8kTKTcxfjR6wwCvwCrwCr0ysMvfThit9/xBwpX8LXokabdbHys/x46JGUxgjxwW8Aq/Aq0ZwpY+BV9WVDul5Rc+reHpeGQmsv0zl5bDJTeXa1t8LBViRwxXJK29wpXtjgVeeemO1SvIqVbzScLbpVJPHRfSHVXHhhbmJ+evRAhZ4BV6BV+CViVXmPnhVxi8zBZXGPskr8Aq8Aq/AqypONWvgDl6BV4nglW4K/7vRv/2Fv6IsDxwKDFjglYgu9Yty0LA92tJB8Kpx2eCaJNemfw7/RPF5BVWc+xXwKo7+V/S8oucVPa/oedUsoZUGVpn3BK/AK/AKvAKvwCu/zd9dmrXrJu40bA/csN1IX4m1Y/p1Pl/tEjldrg28JxBggVfRwhU9r6KFK933KpN4pVcxdCgdXANJaZQRbtIJLJHFLS9P5MFj3yQ3MXc0OsAieUXyiuQVySszaWXuk7wieWWWFKZQMqjLFCkbFDUMXoFX4BV4BV5ZgzPieRRq01fT0WFVoe5a163BAy+w39mytJXlgau+AatV8Eo3gQ/VtD3idFWjpBbJq2gBC7zyk7wq45UGrEsb35To8yk3Mf+paAALvAKvwCvwysQqcx+8Aq/AKzVyTOrHrKiRiEcdTplYZe4fFTWchXFE1LDHsfuIuANUmGNxrB7o95qsNshqgzRsd09z+QAnPzjV7Nzk8ErD2HKiL4U+bibLA1/wBVjgFcmrNY3bt0QLT/aKgWG24FUwvFoBrE33+nh8hDvV+q3zPwReRVk+SNkgZYOUDVI2SNmg96buJK/KkBUxXGkIA69CwJZfaIrjfPAKvAKvOhyvpHtw+r5wb3rx/Fo+2ftMWR647hmwwCvwCrwKWJqY4bJBDVfVcS2ep43DVdXE/JvDAxbJK5JXJK9IXplJK3Of5BXJK5JX9akrncQCr6qpL4+pK53OInklatdh12HtalYW2Ow4qw1Wywpp2E7D9tqSQf25rtQvlu+6d0z/isPrW+pfycf6XgZemWWGlA3WrW64Bq36RFb2M5i8ymzfq5bBKw1Z1+XKLf8mkYdT+P5X4BV4BV6BVyZWmfvgFXgFXoFXzUoTwSu1Wye5SF6RvCJ51enJKxvIet4y85JEXgh93kRKWzd4AiySVySv1iAWeOW9QXxL4VU5iXVp88/4fJQEOz03Mf/J4Aks8Aq8Aq/AKxOrzH3wCrwCr8Ar8KqMU81KDcEr8Aq8Aq9W012D06Vgb3fx/0qu5X+tKWCBV+AVeNXuZYO1JYQilza9LfanT/cd898PXoXtf0XPK3pe0fOKnlf0vKLnlVNT9kbfUTZI2aCJWeAVeAVegVc1pYmD03fF/jIY8AayPPBfGgIWeAVegVedhVe6F9bFTX8R8JHi/WdqYu5XgwEWySuSVySvSF6ZSStzn+QVySuSVySvSF6RvDJ6aQ0dkipUOX2+V6q9p9L6TM8rel6l0/PKLh3UWzV4IJlyHO+vjpUzZXnriWQBKy9SimEsmX2s/OzT88pbzyvd+yqDpYOZXHGwBcsG7SbulzbpBNa/yultN1UeFHF8yBXn7/UPWOAVeAVegVcmVpn74BV4BV6BV+AVeAVeWTvNVJWX/YNSBqQ0t3eLtdNlDN4t7kmpqI/NiDWYwijUAlZNKiqh5u1WYfqJ3sLUd8bx/hfFNWV54H+5Albk6asY4EpjGHgldQC12Bf8uzWJK7thO3jV1j2v1uKVBiyRy5tfFcUzxvUaueL8sj/AAq/AK/AKvDKxytwHr8Ar8Aq8Aq/AK/AKvAqLWSnAlcay9PFKr2j4HtcXuAwckOWBxxwBC7yKtnRwsV/E0wgBT2HQyv4teBWwXHDz6u9aPnlVxqsVwNr467E9onon556bm5h/yjtggVfgFXgFXplYZe6DV+AVeAVegVfgFXgFXoFXteWA/j/P7IztJTDkheVS73PBqwTKBz3BlQaulPFK398RsCgb9Ja+aiO8KpcRHgz5iHH/ea44d7s3vAoHV7mJOVFBx/icqMoI22w9it/TsL3csP2MqDEfY/8ZUbEMs3l6GvunRO0/JWpfmuOkqH0JjL0mVpn74BV4BV6BV+AVeAVegVfglX+wMsoUd77jh9zf4tI9IktbrTrAInmVUvIqA4AFXoVIX7UdXukk1uXYnlBqYv53kgAs8KoBeo2dFeVrmAmotPbBq3ISC7yqrj4IXoFX4BV4BV6BV+AVeAVehcarwvRSbC+A+tJqcAAAIABJREFUEVxYSlvfvAawwCvwag1ikbzq0OSVXUb4pFxY9+0RPGrqL5GbmH9fY8AieVUuGdTJrQYIFfSYL7jS0JUWVpn3Ba/AK5JXZaw6IWu37xS1J+1xv6g9LmPUBKY494+LGk1hjBwXVRnHxBmUkvx+VtRIxGN4VpSv0QyVkjp+RNSwx7H7iKhYxn3iDZjiPO+wqN2HRe0KPqxdhyXcMJBpV0z7rDYo3jArzUbt9r1dmrXrJu40bNf9qBIeU5P1b27Z+UZKW/97BbDAK/AKvAqQwGrh5JVu3F4uFXTfPtybi/6JNTl5Y25i/kvugAVegVcmXOl98Aq8Aq/WopWNWGnDlb6/C1zp78GrFDArYrjSEOYLrvT5SeFUs/t4hCsNXLHAlb5unCjl9drglVVBrXvFGkp73CPWUIgRaHVBcwVCG5DS3IJX1abtSUOV0/2mRP3m3a+M/uUvuitKaeufrQAWeAVegVfglTNmFaJ74qxeqWds/tXglZeeWCSv6Hll9tWibLBcNpiFkkH9N5wIN/bYABVmC15VgSyF1JVOelVSV/pzkgkrt3uBV2U88wFX4FXTVFa41JVObcWUtDKvW0GqQ1IFq9rPacOVvn8IuNK/Ba8iTmZ19GqDNemuKVGFqWuRv/hFfEG5NvAP0hF4lY8WqJYaNH733LCdnldy1WOJ4hV7hb8sbds8eVXFrHsjfux0deUmFv6jM2CRvCJ5ZSavfKSudEIrlmbt+romJKWxD17R88qELvAKvDIRC7yqJr98ABbJq4aABV5FiV7glbVTJ75IXmUteWUVpsQqZLx88NH+50hp4Hq0gJUXKcUwljRAhRkNwKkRRvk9Bl6JZ5QCr0Qu90Y4NonokkAvo4pT7qWDlXM2XogcsHqKCwfrAQu8Aq/AK3coA6/AK/CqilVmWSLJq3LyC7wCr8xyQsoGqymsKBEq6LXAK/BqRqpwpT87lfEl/d0KXGm8klxh6scif/GL8IKyOHALeBUxbHkGrD6RxRTHmnLBPpGVfY9pKK/wFMV5JK88ApdHuPLS86oCV5X+WE/IhXVPj/DRoxNYcw+vBSzwCrwCr8Ars7+VuU/ZYLX/FcmrKmaBV+BVbQ8sH6krygYbpq50o3eSV0Ghyul34BV4lW28sgpT/zvSF74YLiZL+cHoACuG1JVOcoVKXSVYNqiTWuBVtOkr8CoLeLWa0Or9icgeQbcPvfsZuYn5b1QBC7wCr8Ar8MrEKnMfvAKvzNSV3gevwCvwyrlBPMkrkldmr6w0G7Xb96ZssJq+Sjpl5XS/avJKp6/UjunByF74YrqQlPL3ZRqwwKvoU1okrwI0arf7bmWx55UuQfSYvqpPVnkoH1xNYV3e9ObIHkM9d8xZ4JVTA3cattOw3eyrRdkgDdspG6wmrUzAAq/AK/AKvKptzu702SkJlfR3JK9IXmU+eSXW4IFvrNt+8Lsje+GL6UJSGliMBrBiSF+BV+BVphJYDnh1Jcr+VUGvlQBeafi6vOmuyB5Dany+UAYsklckr0hekbwyk1bmPskrklcZgStWGxQ1POswahEprc+UDVYhi+RVOXmVNFK53Q+8Aq9aAK90+qowdTayl72YLiQXXv/tUhp4MjxggVfeSgdT7Hele22RvIo2edVJeKUB6+Kmv4rsUZSbWDiUmwCvwCvwCrwyscrcB6/AK/CqnLIyVxrU+zRsLzdsB6/AKzN55YZJSX8PXoFXrYFXK6sP7ph+XWQvezFdSJb614NXIRu40/OqM3tedRpelUsP/yWyR1Fu4tyVsIClJuYk0BifE1UZTmV8SX9H2SBlg5QNVlcXrAUs8Aq8Aq/Aq2aJLvAKvAKvrJ1mryt73+47leaWnldZ7nm1AleFlT5Y//+2badviuxlL6YLyfLW4XCARfKK5FWEqxZmqlzQ7nmltw6lg5eDlvtF9buEygbNnlmXt7wk9OOod/LIM3MTc0+GAaxAcKXBqwJX+nPSUOV0P/AKvAKvwCuzx5W5z2qD5R5YKfW7omzQoWRQlxE2g6UkjoNX4BV4BV7dLdZgozEj1mBKo1CbvnJqoJ70d2sbttfglVg7psdCv+QlcAEp5Y8FB6wY8Cr0ioMh01R6FUGvg+RVBySvwCsxAevh3ttCP5qsOxZuBq80ZoFX4BV4BV6ZWGXug1fglVk6SNkgZYP3SRWu9Gd6XtHzyk5c2ds0E1f2vbOQvEoJrjSYtRJeFaaeuOUtM/8m9EteAheQ0sDfBQMs8IrkFckrSSWFlVLyqgJZvXtDP5rUxPybgwIWyasG6DV2VpSvYfafSmP/jKgxH2P/GVGxDBOS0thntUFWGwSvnFcbJHlVLSMEr8Ar8KqMVSSvSF41Sl3pY+CVVbATXg2SV7p8cMf0sdAveAlcQJa3fi945SNxZSezSF5Fm7y6uiVEY/XaMr+oP1M2WJe+KiPWbOjHU8/43NuDABZ4BV6BV6dE7YtrnBS1L4Gxt7bHlfmZnlf0vKLnVRWrSF45lylSNlhNX5G8InllJ67srZ1+SnNL8qqavrIBKc1tE7wqTMnNb5l5begXvAQuIMsDv+gfsEhekbyKMHkFXon3FFfayatNsgJaFzc9HPrxlJs495d+AQu8Aq/Aq7jgSl83AbjS9wCvpApUZtqqdp+yQcoGwSvwykxamfvgFXhlo5W9TROt7HuDV62GV6ow9b7QL3cJXUCWtx7wB1jgFXgFXnkHp6iatevrZASvdALr8qavy+lt4RaoyBXnPu8HsMAr8Aq8Aq/U3iTSWSdE7Q0x9tQiVNDP4BV4BV6BVyZWmfvgFXhlo5W9tQEpzS141Wp4pZu4dxemwjc4TgywBq54ByzwCrwCrzoer+w+WBd6/23gx9St+xdeDF41ACk/jd199bvS/bHS6HFl3tNHvyvdGyuWflf6umn0uDLvSc8rel6ZyAVegVfgFXhlYpW5D16BVzZa2ds00cq+N3jVinhlFaaWurrkhsAvdgn+UK6+7nlSGnjKG2CBV+AVeAVerZYQXtqoU1g/F/hxpSbmf8orYJG8agBd4FUI3DIhKY198Aq8Aq9o2G5ilblPw/YyZtHzip5XNGynYTsN26sN2Zv102re80onr1bTV78c+KUu4R/K8tbXgVceGri3dMP2vuibreueVWHHlaibrUdxPRq2uzRsL/e9spNXGq9WxoaJwI+s3Pj8mBfAAq/Aq3jSV2lglXlP8Aq8Aq/AKxOrzH3wCrwieVVOWoFX4BV4FQdeWYWpj27bdjpcX5jAb4T+fyhLA3/SHLBIXrVu8gq8Es9QBl75w6sVxDrq/6mz+oueibljzQALvAKvwCt6XtHzKslywvtF7XEZo+aqgHHtHxc1mtIYOS6qMkxISmMfvAKvwCvwyi4PdNvapXtpbikbbNGywZX0lVWYemPgF7oUfiilgeXGgAVegVcRpK1q01qeQSmKRJXXa4BXAfBKp7A+HPix1TMx95FGgAVegVfgFXgFXoFXiWFWBa40YqWBVeY9wSvwCrwCr9zQyv4+TbSy7w1etTRe7Zj+u97JyacFfqFL+Idy5fbvA68alA+2Stngok5ZOY2I4akWoYJ+Bq/EWw+tDK02WFc2aJcPrmy/GPCxJTfkJuYedwMs8Aq8Aq/AK/AKvAKvIkSs4VlRvsZRKQNSmlt6XtHzirJBygYpG4ypbLDc+2rH9K8EfJlL5WeyNLDdHbBIXnlLXvWLaEBKc4BX4r1M0ExkkbwKmLxa7YG1UeR/977I9wPs1rHzPwBeNUAqtxUIadhOw/Z9YWHrpKh9CYy9J6Xc38pp+4Akg1PN7nNC1N4QY4/ZvyrIfpJI5XYvl5JBXUpI2WAKaawI0Wpk9Vq+4EpDV5poZd8bvAKvwCvwCryKE6+swtSVrsnJG32/yKX4A1nOn3UGLPAKvIo4vUXyqt2SV1XAutTb6/sx1jN+7jYnwCJ51QC1wCvwCryKEL5CwJVGL/AqQtxKqd+V7rNF2aBDKssGpDS34BV4BV6BV+BVzHgl3YWp23y/xKX4A3l/79OkNPDFesACr8Ar8MpbmV+vR5Tyep7HssHLm4wVAePcX1MuWINWNd9f3vibvh9lueL8iAlY4BV4Rdlg2HRVo98nkLrSyS6SVx5xyy0NleT3JK+qgGX2n0pjn+QVPa/oeUXPK7u3ldvW7juV5paeVy3d86owZTdu/4DvF7iUfyBL/evBK6P/leeeV5QNitceWCSvPCJXi+LVJQ1Zm/7Y9+MsNzF/Ty1ggVfgFXjVCJ/CHgOvqiWLJK/UHo1k4BV4ZfbESjNxZd+b5BXJK5JXJK9IXsWdvLIKU0+pHdPrfL/ApfwDWc7/wVrAymLyKi+yZCBTXPvglXhGKfDKI0q1cvJKp7pqUlaNP7/L9+MsV5z7axuwwCvwCrwKC1SNfg9egVdmqgu8Aq/AK7X7iDgPMwWVxv5hUbsPi9oVfFi7Dku4cUisXQmMIROsavfvFWsoC+MesYZCjJ1uaSo/36eZuLLvTfKqTZJXogpT9/h+ecvAD2Rp4JEqYIFXlA1SNkjZYG0pome80gmsR3w/0nLFuc9rwAKvwCvwqhE+hT0GXoFX4NWalQzpeUXPK1e40qCVBlaZ9wSvymWEWYAr/TeEgCv9W/BKrMFmiSqvx2fEGkxpFGakXfDKKkx98bVDd32P75e3lH8g1/pfDV7VJLs8p69YbdBTSouyQY8JrSyWDfpKXtkprSfk9LabPD/WeifnngteNYArvQIhDdtp2E7Ddhq2r5T6mQAVZp/kFckrklfOqSvwqprWSiB1pZNdJK884padfkpzS/KqjfBKp692e35py9CJ/xev/lMZsDo8eaXLEcGraEsHwatOw6syYl249Qc8P+KsOxZuJnnVALDAK/AKvAKvwCtZk5zSKwaGGSSvSF6RvPJQUgheVUsWSV5ZOzWagVfthFdWYepS7+Tk0zy/tGXoRCkNXI4NsJZ036owoyYZFVe/K/u64FVn4tUVr72p4jzPY/rqUm1ZX9yf/ZQNGude3rTZ8yPOGp/7pUCANT4nqjLOiRpPezRAKJ2iCjLAK/AKvAKvwKtwWGVCF3gFXoFX4JWvXlrgFXhVWzKoP09nYFRWD7RXEfS71Y3bc55f2DJ0oly77QfBK5JXnkoBvTZr1+e1SvIKvNI9qxyGAVKNm7bbpYPl7UX92w3/wfNjTo3PvdU3YFXgSiNW2nCl7x8QqBr9DrwCr8Ar8Aq8Aq9GZkX5GcNmWWCzfXvFvzS3rDZY7bdFzyt6Xpm9stIsF7TvTfKqzZJX0r1j+k88v6xl7EQpDeyVUgylg6FSVwmuNkjZYLSpK/DKY8mgneZqs+SVxqvy+H3Pj7rcxNxRX4AFXjn0xHpQ1Fja44yoMR9j/5kQQNXot6dF7U97nBK1P2zD9bC/p2E7DdvN/lj0vKLnlYlZaaKVfW/wCrwye2DRsL3a7N0GpDS34FW74ZU1eOBTvYWp7/T8spaxE6WU/1+RAxZ4JbIYcYP3q30idSPilQL9JKzcziV55QOw2havNGKd9vyoUxPzH/QMWOAVeNUQvtKGK31/8ErtPRlhcuqBkNc6IWpviLHnhKjQw4SkNPbBK/AKvKJh++EmpYP0vKLnlQll4FXb4VVh6np3Yeo2zy9qGTtRlvM/DF55KR+MGKP84lYdXGnMAq+8lyn2iuhSwdpx2U5ApbVta7zSgPWw58edmpj7rCfAAq/AK/BKVNOyQpJXJK9MIAOvwCvwCrwCr6o41SzhRc8rel61Zc+rlR5Z3YMHDnh+ScvgiVIa+N1sARYN2+uSW+BVyH5aBlzR88qh35XugRWy51W1dNAuIfySp0ferfsXng1erfbPoudViJJCkldl2AKvwCvwas3qhDRsp2E7DdubpK40bJG8quIWeAVetS9eWYWpR1u6dFC6bpCl/CciBaxQpYPgFXi1OSRWmb8Hr5wbtJtN2yPHqzJiXeh/TlPE6i7O/URTwCJ5RfKK5BXJq71+SglDlAzqcsPQJYP6GiYkpbFP8orkFckrklckr6o4RfKqjFNmmaC5T9lgG5YN6vTVkzfvfMetTV/OMnyCXMtvAq8alQ9SNuipTDGTPa80ZIFXqeKVTmRd2Pjqpo9Aa2LuZxsCFngFXoFX4BV4FQDEwCvwCrwCr8Ar8MrEqWb74FWb4pV0F6be2vTFLOMnyFL+UGSARfIq2qbtrVI22EorDtLzyqF0MKbklV1O+PD6n276GFTFud2ugAVegVfgFXgFXoFXo8dlTVlgs33KBikbpGyQssGhZmmr2uOUDVI22NZlgzp99YFt207f1PTFLMMnyCd7nyml/BcjASzwCrzKVAqL5FXqySsbsC5tKjR9DObGz/2xI2CBV+AVeAVegVfgVTOsMo+DV+AVeAVegVfirVSwNo1F8qpdk1dWYepf1m0/+ANNX8oyfoKUBn4ZvHIqH6Rs0FPZIMkrEc+JrjZbbVA3e7eBqvn2D5o+CnPFc+fqAAu8Aq/AK/AKvAKvTJxqtg9egVfgFXgFXoFXgzNi+RmF2vTVtFiFtMfUymqBViGS7bdu3jF9e9MXshY4QZbzfxMasEhekbwiedUEsjoar0QubjjR9HFoTcxdXANY4BV4BV6BV+AVeNUMq8zj4BV4BV6BV+AVeOUHrvS57Y1XogYPDDd9GWuBE2Sx7zXglZm+ymLyqk88p6F0IiqpkSm0slcdpGww9rJBf8krO6X1waaPRDUx91gFsMAr8Aq8Aq/AK/DKxKlm++AVeAVegVfgFXgFXq1Nbu2YPtb0RaxFTpBSfiYUYJG8SiB5BV6JZygDrzKKVxqx/r7hY/HW/QvPBq/OOqCV/d2DosbSHmdEjfkYDQHqjKjAx0+L2p/2OCVq/ykPwBTnOSdF7Utg7D0pynU8IMoXMsV1/glRe0OMPSdEhR7vDIBNUf+G1QZZbZDVBlltkNUGWW2wtp+Vl8/0vKqmr9IuGdT3j6RcsHKd7sLUwz0jf/yshi9iLXJQHnnDs6WU/3JgwAKvwCvPsGSno+LcglcZxisNWN+SC+ue7vp47Bmbf/UKYJG8ckCstOFK398HXOlzA+NUs9+mDVf6/uBVGbTiwii/1w0BVxq9QsOVvkbUEBXkeuAVeAVegVfgFXjlBaxqzwGv2hmvrMLUP6uhu77P9QWsxQ7I8kABvLLLB1MuG1zUKSunkWA5oNeyw0yhlQ1i4FXG8Wq1jHDLS10fk1bx7OsUeAVeNYQv8Ert04muBFJX+h6uqSt9zC8yxXU+eFXGM/AKvAKvwCvwCryqhSkvn8GrNserJ9SO6Zzry1cLHpCl/NVAgNV2ySuNWCkDFngl3ssEbbSyt+BVa+CVXrFwU4/ro1KNz22vAtY5UeNpj7OixiMeY3Y5oNctyatqkgu8Aq9MBAOvwKvjUoUr/flYBsasqJGIx7CJU832j4oaTnscETXsYzTsW3VE3HGq2bH7RO1OexwWtfuwqF3Bh7WrGU41O35IrF0JjKFDYrmOe8U7MMV57j1iDYUYO+8RK/TwgktxnwNetTleXbd2TL/J9cWrBQ/IYn8veJWR9BV4BV5d2iTeECroeRtFdOP1oOOixqcIxsMbf971cakm5n+nDFhpw5W+f8Rwpa8HXoUoKwSvwCvwyrlMkeRVFbDAK7UCXWnDlb6/D7jS54JXrrgVHq40bCUAV/oernClj8UJUn6uHQKuNHqFhit9jbhhysv1was2xyvd/2q/60tXix6Q0sB7fAMWyavok1rgVWfi1eWgEBXkdyHgKthqg+7Y9fCGna6PzNzY3KH0U1fgVbVRPD2vqo3i6XlFzyuzV1aQHlVR/wa8Aq/MJBZ4VcWwtFNX+v7hklfglR+Y8nIueFXGM/Cq3fFKFaZ+3/WFq0UPyGLfa6SUv+4LsMAr8CpTva9auGwwUbzS4BUCsKJIXdVe4+ENv+f62LTGz70nfcAieVUGLPAKvDJ7YJkJqLT2KRukbJCywXLSCryqYpWZ4gKvyvhF8qqa/AKvwKsZqcKV/tx+qw2urF6448DRri65wfWFq0UPyHL+RHJ4lRdZ6k9mLNolgV629LwSL03bM4VWbdDzqpPxSkPWw5uOuD421fi5q+kCFngFXpmliiSvSF6RvFKj90v9OC5qNKUxUgtYlA1SNgheOSe1wCvwyiwlJHlVBax2xaupud7Jyae5vmy16AF5ZOCHpJR/0jNghUpegVeOzeEpG6RsMPaeVxlLXtkprIc3vNf10akmzj2WHmCBV+AVeOW86mBaSSvzviSvSF7VwhUN26spLMoGq0ksklckr8xSQpJXJK86JHn1lqk/f8XQXc9wfdFq4QOynD/QdnilE16e01ckr0he9YpcjmpsEtGpKi8jEbSye2RlqGzQxquLG0QeXr/o+PjsnTzyTDV+7no6gAVegVfgFXhlJq3M/aj7VwW5Hj2v6HlF2WAVq0hekbwyscrcB6/Aqw7Bq8LUh16z94++w/Elq8W/lGt9L5BS/iueAKtVklfglXgCKS/lgvY5lA16BC6PcNXpZYMrgLVBRAPWxQ2POT5Gbx5/8GXg1YNShqQ0tvS8oucVPa/UHhOt7P0g2BT1b8Ar8Aq8Aq/0ioKNBmWDlA1SNmgNzkhlFGoBq03LBt8y9QE1dNd3Ob5gtcGXUsr/HniVUgKLssE2KxvUCS6PgEXyysYrvb0u7+99Zt3jVI2dW588YJG8InlF8orklY1UbtuoISrI9cAr8Aq8Aq8awZU+Bl6BV+BVBa40YnUCXhWm3tUz8sfPqnuxapMvZLHvhVLKP94UsEhesdpgphJYDqsNXomq/C/MdcArqZQGbhT3z5XkVRWxLvX+YN1jVU2c/YVkAQu8Aq/AK/DKDa3s74NgU9S/Aa/AK/AKvAKvqjhllgma+5QNUjbYIXj1lqn5du15Zb8oSin/dvAqhfQVyatok1fglYhjoiujPa/KZYNVvNL7lzZ128+lylaNny0kB1jgFXgFXoFXNlK5baOGqCDXA6/AK/AKvAKvwCszWdVsn9UGq+mr9iwbVDumjrfjaoOVF8Ouri5Z6v8BKeWfaAhYJK9IXpG88tD7iuSVe9qqNonlkLyyMevShtfVPp9WPufGz04mA1jgFXgFXoFXbmhlfx8Em6L+DXgFXoFX4BV4BV41wyrzOHjV9nj1lqmprsnJG+teptrsC1nKHwKvEk5fkbwKkbzaLKKTVuaIbOXAoKWD4FVovFpJYG34tbpHrDVxdjp+wAKvwCvwCryykcptGzVEBbkeeAVegVfgFXgFXpk41WwfvGpzvLqudkz/dt1LVBt+Icv5H5ZS/sn4AKtfRK8EmMRY7BfxNBLGqkXjfuAVeOVY5rfJpfwv6PctVDZop6/09uEN++setWrs3Nl4AQu8Aq/AK/DKDa3s74NgU9S/Aa/AK/AKvAKvwKtmWGUeB6/aHK+e6N4x/St1L1Bt+oUs9Z8ErwxgMsEpyn3wCrwCr9b2vKrFqzJg/VHd41aNn/vr+AALvAKvwCvwykYqt23UEBXkeuAVeAVegVfgFXhl4lSzffCqzfHq0ze/Zcaqe3lq0y9kMX+zlPJPuQJWqL5XCaWudLLLU+pKn5cgVDndq1Xw6uqWkMikS/ziGJQNOjdoNxNaLZq8qkDWxtm6R64aP/fReAALvAKvwCvwyg2t7O+DYFPUvwGvwCvwCrwCr8CrZlhlHgev2hyvrtwyeOCldS9ObfqFSNcNUsr/NXiVEGqBVyFRC7zqDLzSzd03vrvusavGz30pesACr8Ar8Aq8spHKbRs1RAW5HngFXoFX4BV4BV6ZONVsH7xqc7x6lxq667vqXpra+AtZGngTeAVeiU5b1Y5YklNh01jgVefg1QpgfWTNo/eVk6e/TY2fux4tYIFX4BV4BV65oZX9fRBsivo34BV4BV6BV+AVeNUMq8zj4FUb49X17sEDb+uElQZrXwjlkTc8W0r5TzsCFmWD0ZYakrwieZX1nleXNurUUwxDY1Sg8ana51XXrfsXXgxePShlcIpye0bUmI+x/4yoWIYJSWnsnxK1/5SofWmOk6L2JTD2nhRnuNLfP5CRcULU3hBjjw1QYbZRQ1SQ64FX4BV4BV6BV+CViVPN9sGrNsarz928Y/r2NS9KHbIjpYE/Aq8SSF854lXf2sRTbfopzc8kr0Qu93oYm0QuexiJoJXd+ypEz6vs4ZVGr6+teRT3jM2/OjrAInlF8soEMvCqDFrglarAVxBsivo34BV4BV6BV+AVeNUMq8zj4FUb49UHet4y85I1L0kdsiPL+R+WUv6JOsAieZVA8gq88t7cnbLB2MsGs4lX5dTWh3qeVXkk90yc2xQNYIFX4BV45Zy+Aq/Aq/tFjdaO46JGUxojxwW8Aq/AK/AKvDJxqtk+eNWmeHVdFabuXLf94NMrL0cd9kFKA+8Br2JOX5G8omwwkQRW2yWvakoOb31x5dFsjZ/9ufCABV6BV+AVeNWspDDqFFWQ65G8Aq/AK/AKvAKvmmGVeRy8alO8+qy18x1bKy9FHfhBSv3/H3gVM14t6pSV0zCapadZLmjfm7JBDyWDuqzQQ8mgPicRtLLv0854tUHkSu+PVx7Ravzcr4cDLPAKvAKvwCvwam3CqjZtVfs5pdSVTnuRvBI1DF6BV+AVeGXiVLN98Kod8ap78MCC2v32F1ZeiDrwg3y097ullP/sGsBqu7LB/mjLADVG+R3gVYj0FWWD3hAsi3ilm8AHatju/LuHN22oPKat8XP7ggMWeAVegVfgFXgFXh0TNeJnzIoaiXjU4ZSJVeb+UVHDaY8jooZ9jN1HxB2gwhy7T9TutMdhUbsPi9oVbFi7msGUl+OHxNqVwBg6JJbruFe8A1Oc594j1lCIsfMesUKPZrCUxHHwqg3x6otqx/T2yotQB3+Qpf6T4FUAkPIDWOAVeBV7CqsD8EpD2KUNP1N5XKvxs28LBljgFXgFXoFX4BUkqNtUAAAgAElEQVR45Qeu9LkRw5W+HngVArbShit9f/CqDFpxgpSfa4eAK41eoeFKXyMJnGp2D/Cq7fBqx/RDt+58R7WPSuVtqPM+yNLA68Er8Ep06SBlg9GWDSZaOtghePXwBpGHN/xa5UmtJs7d7R+wwCvwCrwCr8Ar8Aq8Cpbi8pG60gktkleuySySV35gysu54FUZz8CrNsOrz1qFqTdWXn46/INc6n2uLOX/sQJYlA36LwtslsIieRUCxlq4bBC8ci7/C1NKWMYrDVgjlUd3bvzcaX+ABV6BV+AVeAVegVfgFXgVNr1F8orklZnYapaKSuI4eNVWeDV44J2vHbrreyovPnzoklL+GHgVY/oKvAKvKBuMBrKqeKWv958rj281Pvc+74AFXoFX4BV4BV6BV+AVeAVeee6X5drvSvfC8pKKSuIcklckr2akClf683QGxpRYhYBjx/Tl7sEDGysvPHxYmQFZzv9UNHiVF1nqT2Ys6kbsXkeMMNUsdaWPg1fgVex4pVcdDFE6eFE3V49jRNiwXSe2avFq5fP6A5XHuJqY+4g3wAKvwCvwKrt4dULU3pBjTzOY8nL8naL2pD3uF7XHZYzWrggY52dWG6w2dafnVRm7KBusNooneUXyiuSVNXi31I8ZsQZTGoVawGppvPoXVZjavW3b6ZsqLzt8KOPVYt8LpZT/9ApghSobTBCvNJKBV7LSq0r3q4pi0POqhXtedSpeaRxb/87Ko1yNn/toc8ACr7KDVyYipbV/StT+U6L2pTlOitqXwNh7UpzhSn//QAZGSLjS8AVeibdUlRf0Aq/AK3N1Q/AKvDJXHkwiVeXlHiSvSF7VwlVLJ6+esnZMH6NcsPKKt+aDyOSNUsr/OXgVU0KL5BXJK5JX0ZcN1qawLm54V+WhpsbPfboxYIFX4JWJZOBVGbTAqyp8pZ260vd3SV3p7zsqeeW3vC+u80lekbwyywxJXpG8InlVn7rSSayUUlf6vm2QvOouTP0PtWP6NZWXGz7UzYAs5d8KXoFX2VtxMIsN23tFdDN2LyMRtNKpqw5OXlUQa/1fVR5savzcV90BC7wCr8Ar5/QVeAVemTCWheRVXBjl97rgFXgFXpWxiuSVtdNEK3s/iYbsze5Bw/YqYLVk2eDfdg8e6Ku81PDBcQaktHWDlPJPCmWDrDaYqfJBB7y6ovEo7QFeeeuRFXfPK6MP1oWNl1YecLo+XI2fu+4MWOBVdvDqjKj9JiSlsU/yiuSVWW5I8qqc7soCXh2XaumeX3CK8nzwCrwCr8ArG6ncts1gKYnj4FUL49WStWN6W1eX3OAoNnxZmQEpbX2+lPKfAq9iSF9RNhht2SB4tZq0shNX9rYTG7YbeFVOYT268mBbP/6nzwOvHpQyVDltz4ga8zH2a2iKeqQBVU73BK/AK/DKuRQxC3gVJUCFuRZ4lR28MhEprX3KBikbNBErCZxqdg/wqoxXWUhd6b/B80qDn1A7prfToL3iUw0/iHTdIKX8AngFXmWrdJDkVbkk0AaqRlvwqmY1ws+tPPDWjZ3+gXrAInmVneSVEySl8R14BV6BV+BVM9gCr8ArE8nAK/AKvMpuz6uWwqtL1o7pf987Ofm0hmLDwTUzIKWBCfAKvMoWXm0W0Ukrc1A26JC+6gC8uuiYtJIatKr9/PWVB1zP2Pyr1wIWeAVemUAGXoFX4BV4BV6VccpcXdDcZ7VBVhuk5xU9r3RT9kaDhu1WwcazxskrtWP6g92FqddTKrjGpTztSGngdinlvxUOsPpFlhIai/0inkYMILXo45qUDYYoGwSvSF4ZfbMqDdo9QtbSK7+tKzdx9tYqYIFX4BV4Vcaqk7J2S8N2GrbTsN29vxbJq+wkr45IFZDMNFSS+ySvSF6RvHJGLPDKA149Ze2YfkjtmM55khpOqpsBWep7pZTyXwavfMCUF8QCr8CrRFYdJHnlksAS+VDP87t6xs/dVgYs8Aq8Aq/WopWNWOAVeAVegVdm0srcz0LyKkmganQv8Aq8Aq+yi1d28intrUPyavDAY9bggf++buiul9eJDF94ngH5aO93Syn/KHgFXmWrdJCyQW/pK/DKFa90WuviLS/tUhNnf0GNg1fgFXgFXpllguY+qw1mZ7XBZuV8SR0neZWd5FUjUEryGHgFXoFX4FUzHKvDqwu6Mfu67Qe/3bPScKLjDMiFdU+Xpfz/BK86FK+ubgmZkNIlfnEM8Aq8qikd9Fs2WHv+hY2v1oD1q5ED1thZUb6G0+p/SX/nY6VBvSph5CsN6muaiJTWPj2vyphF8orkFckrkldm0srcJ3lVLVkEr7KDV/eINRRy7DQhKsh+s5UAkzjOaoMZXW3w61Zh6nR3YeoWR4nhy0AzIEv5e8Er8CoehAoKW+AVeBURXmnIurTxli41/uD2SAHLF1xp6EoaqpzuB15V8Qy8Aq9IXtGwvVmCi+QVySsz1QVegVcmcCWBU83uAV5lDK+uW4WpD1iFqd9Yt/3gcwIJDT9ynQFZ6h8Hr8Ar8KpXpOGKhptELnsYifS62rS68iBlgw3LBisJrPUiF24Z0Ams4cgAC7wKmMxKK2ll3he8Aq/AK/AKvGqd1QZNREprH7wCr8ArygbdywZVYeqaVZiapLeVqz2FPiBLA2+Spfz14ICV0EqDekVDTysN6vMixii/12uVhu2UDTYBq1rQ8gBXGrdaBa8ubRS5GMeoSUxdjOhzBaE8rjZYd/56kYfXi1y89Q1davzsRCSABV6BV/tOiQo1Toral8DYazdnd9pSNkjZIGWDlA2aZYLmPmWDlA0ekjJa2dt7xRpKe4QsGdQlh5QNijNE3R3g+yysNuiOStWVAGM6Z3D6U92Fmbd3F6a6Q+sMF2g4A7Kc/zlZyj8JXkUIXo541SeisShrI5aeVUHLBe3fUTboDcFCJK86Cq80etmAteHf6QTWfwkNWOAVeBUKrjR8JQBX+h7glVSBykxb1e7TsJ2G7WYSi7JBygbNhBfJK5JXJno1K+lL4jhlgymWDX5CFabuVIWp9V1dckNDdeFgJDMgy339spR/ArwCr7JTOghegVc1qa26JFWQBNYqXpUR6806gfXfQgEWeAVegVei9kaR3Doham/IsacWoYJ+Bq/AK/DKuYyQ5BXJKztxZW/TTl3p+5O8snbaMAZeJYxXT1mF6QvdhZm3dg8eeFUkIsNFPM+AXOvrkaX8V8Ar8Aq8qi0TND9TNuitzLAGnTJTNliTvLITWA+vH+yyJs5OBwYs8Aq8Aq/Aqz1Rg9f9ova4jFGzvC+u/eOiRlMaI8dFrQwTkdLaJ3lF8ork1dpyQfCqvtTQBqQ0t+BVQnj1easwfVrtmN7e85aZl3jWFk6MdAZkse81spT/F/AqQrzSPbIcSwcpG/QGZCSvSF7VIFj0yatyGeGFW/fqBNaRQIAFXoFX4BV4BV5FC13glajhWWOY/afS2Cd5RfLKRit7S/KqilhpopV9b/AqRrz6qjU4/RdWYeoOtWN6Xdfk5I2RSgwX8z0Dstj/Y7KU/2x74RVN2z331qLnlcem7SSvvCWvdBP4GniK4nNceKVTWBc2/HaXNXHulG/AAq/AK/AKvAKvwKsRn+msOpwyscrcTwOrzHuCV+CVjVb2FrwCr8ym7m3VsP0rqjD9Pr1q4M07pvtfMXTXM3wLCz+IbQaktPVVspT/NHhF8spbKspuqh7nluRV6yavWgyvNGBd3PA2ncBa8AVY4BV4BV6BV+AVeAVeiRo2cGv3EVGRD7N8L619GrbTsJ2G7c4rFLY0Xn3LKkwvqcLMke7CVEEnrHonJ58Wm75w4VAzIEt93bKU/wJ4BV6BV2afq9p9j8mry5vEGzxFcV4WVxtsQbwq98F6e5c1fvY9ngELvAKvwCvwCrwCr8Ar8GrXYVEeh7XrsIQfh8TalcAYslNWTluSVySvWjp59c3uwsxVa3D6naowtbd7x/SmW3/98LNDiQo/TmwG5Fp+kyz1/yt4BV6BV7VYZX4Gr9qybLDawF33wTrYlRs79+eeAAu8Aq/AK/AKvAKvwCvwyiNcaeAKD1f6GgnAlb4HeCVVoDLTVrX7dt+pNLf0vGrQ8+qbVmH6Easwfd4qzPxhd2Hml9WO6des237w6YlpCzeKdAZkuf91Usp/LThe5UWW+pMZi7qXldcRMUbpJux+Bg3bJTiGtXDZYKLJK53eCpG+uqhTUnGMFup5tRavRB6+9XiXGj/3V00BC7wCr8Ar8Aq8Aq/AK/AKvBJrKI0k1j1iDYUcO2sRKujnNNHKvjd4ZQ3OPGYVpi9ahZl5VZi6UxWmdt+8Y/r2nsLUKygBjNSOUr+YLA/8oizlvwle+cSpZpAFXoFXl6IoDWx2DfBKPDV0X19eYbAOqxy+v7D+jO6B9eGGgAVegVfgFXgFXoFX4BV4BV6BVzttREpr27Z49TVrcOYfrMG7L1k7736vNTjzTjU4c2d3Yeat3YW7C6pw9y/kds70dg8eeFVvYeo7U1cV/oBEZkBK+d+UUv5bLYFXOuFF8ko8ryR4dUvzc1ltMNrVBkletdZqg66YtWFB98C66ApY4BV4BV6BV+AVeJUsXj2lho9+QQ0f/bgaPvoRNXz0fbnh2dNq+OjB3PDRP7SGj/5ubvfsWG730V1q+Oh2NXLk31m7j2zTQ40cHcgNz/YHG/f154YZa+Zg6L7+XIBx89B9/e0x7um/eYjBHNT+b2C6/+Yhf0P3mtLN0fVYN3Tw5TfvmH7Zuu0Hv3f9junnrdt+8DmJSAg3aakZENl2kyzn/yAcXCVYNgheNccoL2BVew54BV5FXjrYymWDa5JY7+7KjZ9ddAQs8Aq8Aq/AK/AKvIoWrx5Tw7OX1PDsgho5dqe1e3aftfvoG3tGjtymds++pnvfkRdt23b6ppZ60+CPZQaYAWaAGWAGIpoBeeQNz5ZS/jx4FXHJoC4ppGywzcoGdQN3j03bEykXtMsJKRuMvGxwbRrrfbqE8KN1gAVegVfgFXgFXoFXgfDq6GfU8OwHrOHZe1eAavj4z3aPHH1Vb+E0ZS8RveBwGWaAGWAGmIH2mwG52vcyKeWXwCvwKnhz9c0hkMrttw4N26+Yq/+lsQ9eeWvw3jbJq9U+Wbd+QAPWJ9cAFngFXoFX4BV4BV41x6svq+HZC2pk9pgamd2ty/Y2DN33Pe33SsG/iBlgBpgBZoAZiHcGZCl/q5TynwWvwCvwyguGgVediVe6lHDDhzRg/VMFsMAr8Aq8Aq/AK/CqHq++qUaOltTIsYPW6NE36kRV1+TkjfH+5zxXZwaYAWaAGWAG2n8GZHngN6SU/wZ4BV6BV+CVN5jaKM3Pa7fkVaUP1gXdxP1zK4AFXoFX4BV4BV6BVyOzYo3Mfk6NHp2zRo6OdO8+0r1u+8Gnt/8rBP9CZoAZYAaYAWYguRmQf+h5lpTyd0pJN1wPO/pFdDP1JAarDUbbtD2TDdt1OaFD6eBlL8AU5zkkr5rDlcatiPFKX+/hsKMCUKulgIH3r3SpibOPKfAKvAKvwCvwqpPx6l/UyLEHrdHZ38wNH/uxri65Ibn/hOdOzAAzwAwwA8xAZ82ALPW9UpbyV1fwKjRgJQRXrDYYLVzpVQfBK4+rDWoUA6/AqxX0utalxs5+0R9gPShqLO1xRtSYj7H/TECgavS706L2Z2GcErX/lKjQABXmGidF7Utg7D0pynU8EBFAhbnOCVF7Q449J0SFHu8UFTlG+b3m/aL2uIzR+0UlMo5HC1KjPq43clzUyjgmaiQLY1bU2rLAb6mR2Q+q4dm3qtEjOVb+66wXJ/61zAAzwAwwA+nNgCz3v1FK+a+CVzGUDLLaYAQoRvJKPK1a2AGrDWYreWUnt/6uS42d+7J3wEobrvT9fcCVPhe8ihm3EoArjWOucKWPhUGnqH4bEq40fIWGK30Nv9AUx/kucKVBKxG40vfxgU1Rn5tdvPpabmT2ITV8dPu64ePfm95/unNnZoAZYAaYAWag82ZAHu1/jiz1n6zAFckrEQ1OUY6rfSJ1Y0v0ySmdngozSF6RvLropY+Vn3PaumzQxiu9/XudwHrcG2CBV2UMy0LqSv8NJK/KqBUVQIW5DnhVhTPwKmPJqy/rVQKt0dmf7p088szOe13gX8wMMAPMADPADKQ/A6urDH4KvIoYrGrxqw6uNGaFhKa4fp9JwCJ5RfKqBsGy0/OqFq/053/WgPWV5oAFXoFXZokhyaty8gu8Aq9W017ZSV59VQ0fO2mNzP4caJX+Swt/ATPADDADzEDnzsBqo/a3SSn/JHgFXq2AGnjlMX1Fzyt6Xjk2ev+cBqyvNwYs8Aq8Aq+cyxTBK/AqQ3g1fOyCGj62/db9h5/dua8K/MuZAWaAGWAGmIFszICUtm6QUv7aGriibDDaksFW6nml01zgFXgVaelgTWIqqpUHs5u8spNYn++yxs4+4Q5Y4BV4BV6BV836ZFE2mGLZ4D+qkWO/c8u+oy/Pxn+u81cwA8wAM8AMMAOdPQNyqfe5UsrfKaX8U+BVjKkr8CoCEKNsMPaywUt++lj5Obcj8Urk4vrHdALrm86ABV6BV+AVeAVeNWwIn1rZ4PEPWqPHtq3bfvDpnf2awL+eGWAGmAFmgBnIzgzI0sDrZSn/j3VwRfIqoeRVRvtekbzqzORVR+HVBjshFe/2wvovasB6sh6wwCvwCrwCr8CrjOHV49bosbtu3n38R7Pzn+r8JcwAM8AMMAPMADMgj+RfLMv5s45wBV6BV5kDLJJXJK9qElyhywYTwyuRC+u/rAHr+lrAAq/AK/AKvAKvMoRXn8mNzk72jBx6Pq8IzAAzwAwwA8wAM5CdGVhp0r6UH5NS/svgVczlgvaKg46rDZK88t5fC7wCr1oWrzRgPW4AFngFXoFX4BV4lRG8esQamX3TKydPf1t2/lOdv4QZYAaYAWaAGWAG9Ayslgt+whWuSF5Fn7xqpb5XmUtdbRa5Al6BVy2NVxqwvqoB66lyAgu8Aq/AK/AKvMoAXpWs0eNv7J18/9N4RWAGmAFmgBlgBpiBbM2ALPWvl+X83zSEq7bEq/54QMpOVnnZOqavtojoFf6yNMArel5Futqgbu5eA09RfG6tskENV/b4ugasb6gx8Aq8Aq/AK/AqZbwq6cbsXZOTN2brP9X5a5gBZoAZYAaYAWZAlvpeKaX86aZwBV7FA13gVYhVB0letW7yCryqwSuNWN/oUmMPfj19wDojaszH2H9GyuAU5fa0qP1ZGKdE7TcxKen9k6L2JTD2nhTlOh4QZ1BK8vsTovaGHHtOiAo9msFSEsfvF7XHZYzeLyqRcVwaAtNojMfjXW3w79Xwse0krng5YgaYAWaAGWAGsjcD8shtPyql/HEp5Z8CrxLqc2WmscCrzsSry5vEGzxFcd5GEb1qYNAReeJKwxV4ZeCVBqwnNWA9ni5g+YArjVzglah9cYJWAnClccwVrvSxJJHK7V4h4UrDV2i40tdIAqea3cMFrjRoJQJX+j4x4lSza8eHV5/PjR7bdfvQXc/I3n+u8xcxA8wAM8AMMAOdPQOyPPDjUsofk1L+W57giuQVyavMlQ62cPIKvKJssFo2aJcP6u1TGrC+nB5ggVfV1BfJqzJquYFSkt+DV1U4A6/UCmAdEzUS2fimGjl2cN2eE9/d2a8G/OuZAWaAGWAGmIHszYCUBpSU+ueklL/uGa5C41VeZKk/mbGoe1l5HSklruwEFskrkleXokhXNbsGySvx1BNrvcjDCQxnuKoglgasx9IBLPAKvDKTWEkildu9wCvwajXtFUPyyho5dt4anf2R7P3nOn8RM8AMMAPMADPQuTMgMnnjyqqCpYH3+UIrDVfgFckrklcemrZvEtGpKi8jEbSyUQu8aiW8kgvrv9VljT34ueQBC7wCr8Ar9xLDZiV9SRwneRVx8urTavT4/9u5rwb8y5kBZoAZYAaYgezNgDza/xwp9Q9JKf/xQHDVSnilE14kr6JdrTBzcLVZ5Aplg977ZoFXLYZXlR5Y/5wsYIFX4BV4BV4165/VNj2vrutyQTV0/3dl7z/b+YuYAWaAGWAGmIHOnIHVFQXvlFL+8cBwBV6RvMocYIFX4NWGau8sT2WBG6QxYiVQMqjLEpuUDdYcf0KXEP5jcoAFXoFX4BV41Sl4NfsxNTq7uTNfDfhXMwPMADPADDAD2ZqBlbTVUv9/lFL+w6HQqtXKBkleRZu6urolRF8qnZCKa2QRr3q9lQwm2rBdlw6SvGqMVjZqZQ6vRC7c+vWu3NiDn0oGsMAr8Aq8Aq86Aq++aQ3P/gGrC2brxYW/hhlgBpgBZqDzZqDc26p/vZT6D0op/5VI4IrkFcmr2BAqKG454JUuJbyc9qDnlVzcKM1HTWrqYgSf2zN5pfFKj6/qBNaj8QMWeAVegVfgVfvjlTVy7G/Unvtf2XmvCPyLmQFmgBlgBpiBbMyASNcNcu22Hlka+BMp5f8hMrQieRUPXOkVB1ltMEQyC7yibLAGvdobrzRgPa4B6+PxAhZ4BV6BV+BV2+PVU2rk2J3rth98ejb+852/ghlgBpgBZoAZ6JwZWElalQaUlPL/TUoDn5LSQHl1QBudotou5UVCjX4RXdKXxKBhe7Slg5lLXbk0bCd5Jc6gRdlgC5cN2ukrvf2yBqxr8QEWeAVegVfgVdvj1WfUyNGBznlN4F/KDDADzAAzwAykPwPyyd5nyvLWfikN3ClLA/9YRisNV+AVqw1u6QC8cgEsygYdAKsD8EqXHoZOX2Wy51UtXunPX9SAtRQPYIFX4BV4BV61OV4Nzy5Yg7MvSP8/4/kLmAFmgBlgBpiB9p8BeeS2H5WlrTulNHBeSgNfXYtWMeJV6L5XCaWuaNgeLVxltmE7eOWcstIN2s0BXnmDrZbAKw1Yj3Wp8QevRA9Y4BV4BV6BV+2LV9bIsSfUyPHdXV1yQ/u/LvAvZAaYAWaAGWAG0pkB+eiWl8hS/pdkaeBQtTTQhiqnbT6DpYPgleg+V7WDnlchel6BV/VIZaKVvQ9etRleacD6fJc19uDFaAELvAKvwCvwqn3xSo0ce6RndPa16fynPHdlBpgBZoAZYAbacwZWmq/rhFVp4NdleeColAYedU5YOcGV/g688lY6aGBSLSwl8Rm8Aq/qUlI2OEW5Ba9aF6/Wm2WDtfuf0SWEH4kOsMAr8Aq8Aq/aGK9Gj/3ZurHTz2nPVwf+VcwAM8AMMAPMQHIzII/kXyxLA6+X0sCkLA88JKWtn/cHVrWQBV6BV53Q98phxUF6XlE2GLj3VRbLBhvilYasv9eA9eFoAAu8Aq/AK/CqjfFq5NjB3sn3Py25/7TnTswAM8AMMAPMQOvPgFwZ+A5Z2mrJcv4/rDRcLw38pZQGvhAcq2rhiuSVN7jqX1vCl0TSyrxHqySvMtv3CrzyVjpI8qpNk1d2CutRXUL4N+EBC7wCr8Ar8Kpt8epJNXxssPVfIfgXMAPMADPADDAD8cyAXHj9t8vS7a+UawM/Ldfyo3Jt4G65NvAXsjzw97I8ICtjZXVAE5/C7pO88gZYlA2Khikv44ruMZW1AV6BVxtE9EqDbbvaYNPklQ1Y13QC6/3hAAu8Aq/AK/CqbfHqCz0jxzbF85/7XJUZYAaYAWaAGcj2DIhsu0mWfupF8shtr5Fr/VtleesbpTSwV5a3vl2WB87J8sAFWd76+QpS2VhlbsErEb1CYJRjUaeqvAzwyhNckbwS8VyOuEnksoeRSK8ru29WiOTVpY0iF+MYNehk41PYbeBywQ1STma1ZNmgjVd6e0UD1ruDAxZ4BV6BV+BVu+LV7Mdu3n38R7P9asFfl8YMyMdvf4Z86nXPk4++/rvlYz//spXx8Z/+Sfm7n10nn3jDRnn0Z/oZDebgYz/T/3/Yu/cwOe67zveyHefOLoFkue8mXEMgWXgUT/WMJFu2ZMm2LjPjoMNZEnLgcNbLJiSenpsCeyBaeIDsZmE3AfasA440F42kkZOHHFjOhhCc3QRbGo0utm7WbdqJQwIk4CTkQuLE38NvRjVT3V3V9a2qX1X9qvv9x+/pW3X1qJ5H/Tz9ej7fz09SrR1b5TKrmtdg+1a5XKF1YftW6aZ10fRM3bVnZW17vVzcdp9c2D4iF7bvlfPbfkMu3vVOubD9PXLxrqNyYfuH5MJ2g1JX5cL2v5UL278Ri1OtWBX22DpgkbyqLl5t0SWhNGkpm8c4l7pit0Fd6soAFnilGxs0iFUAYC2aNFWStSEIVJ3vn9hwwgDWQ+kAC7wCr8Ar8Ko78apWn/ozytrLoKFyPlOu7HmZLO1+jVwbvEeuDf6sLA39siwN/q5cGzwq14Y+LNcGT//j8x+Xa4N/L9cGxe7aLXIt47q6W8Tq2iVyNad1ZZdIqrVT5EqB6/JOkdi1Q+RyyevSDpGmdY/IJdfW3SKX7hZ5wrV1l8gTIeviXSKlre0iF5XrwnaRQtb18b8wlNI+B16RvGrqv1KO8tnEqbhzgVfK9JUidWWSWSSv1sb9siau/PdnTl51AV4tbjAA9xfrvLc9NJ0csMAr8Aq8Aq+6Fa+m/6i/Pv+CciiFT83jCsjDm58j14Z/UBpDQ3Jt96gsDb5blnb/kTQGz8nS4BdlaVDalnWoCoOvjHDlwxd4ZRe3YuHK4FbJcGU+vwmuzGPX4Mr8PeCVHsOUcGWAqxC4Mp8DXsm5OyV+WR4N7DRmqBoZdLWwneSVvluLzisdgpG86pnklcGrZcAa+Mg6b/KhB5IBFngFXoFX4FV34pU3OjW3/r4Hbs4DUThn/ldgGaqu7PoRuTb4U9IY+g25Nvx+WRq8IEuDX2sDqjC08p8Dr+wnsFKlrkxaq8DUlfks8MoihIFX4FXWgvbW9zM2WImxQbP7YFPiyn9M8koHWOAVeBXoziJ51TpS+KfrvL1H/7MesMAr8Aq8Aq+6FK9GZv7bun37bsyfWQMfqcoAACAASURBVPgEG1dguYeqcW9Nrg2+SZYG3yNLQwuyNPRlWRqStRWSrPKRKuoWvAKvOiIWyStd0gu8Aq9a8SnrY/BKh1eupq/AK/DK5mihi8krUwIfgCcb98GrVrwy3Vp/vK62932/rgMs8Aq8Aq/Aq+7Eq77R6XevWyc32IAVzpHPFZBrO/+5NAZ/Uq4N/WdZGnxUlob+YQ2qgmgVvJ8QsMAr8Mp1vGobHXRxbPD66CCdV4ouLcYGRdWPBV6BV5YBjM4rOq+s7zoIXumK2xMUtvtjg8237zeA9X/HAxZ4BV6BV+BVl+LVyNQ78iEXzprlCsjV3d8vS8P/WhpDB2Vp6C/jsSoIV+Y+eKUrds+prN2UwDM2aL8rq6n3CrzSF8OHlLWbAvfSytrNZ4NX4JWiO0vdeUXySuKK2v3XwSu7eFVoaTvJq57rvGrGK5PIOriu720P1TsDFngFXoFX4FV34pU3MjOeBVl4r70rsJywWtkBcFqWhp5KDlZBwAKvwCtld1bHxJXfieXA2CDJqwy7GFYcrworbaewPb6s3RS6K9DJ1jHglahRysepuFvwCrwieWV28su+Fjeacb4EK3Pyyh8n/H0DWD8fDVjgFXgFXoFXXYpXozO/ao9fOFPSKyCy5ya5OrRerg3tk6WhRVkaejYbWvmABV6BV92OVw7vOMjYoCLVlSB5BV6JnLc8PqjaVbDTzoMFARZ4BV6d2azEJtvH3SZiUlWaddpmr1XcuTKkr6yjlem76uHOKwNg5eCV+dx3revbe/SN4YAFXoFX4BV41aV4VZ/5vaTgwvHZr4A8tedbZGnwjbI0dESWhp62A1Y+XKUYGzRjhrn3Xu0WuWZhXd0tOpjSHMfYYGV2G2xLXoFXPTM2CF6BVyrE2iJidv0ra7HboOjK2W8POa7Cuw0WOjZoYAu80o0OWkhWadJZpeGVSXENvGOdN/m+n2gHLPAKvAKvwKuuxasZdhvMjlHaMwTQ6o9kaeir9tHKB6yEySvwisL2juODLo4Nglfg1XaRCzYXY4O6sUFXRwdLhCsDZuBVCEqFQVXYc+CVqNNb4BV41TR++Cvr+va+b0czYIFX4BV4BV51KV6NTH1g876Hn6PFF45LdwXkyp6XydLQfbI09KeyNPRMfmgFXiVLZZG8Inllu/j97gzdVHm9l84rHXKBV+BVBgADr8ArNUDFjQZ2eh28Aq+a8Mr0YI2bBNbta4AFXoFX4BV41aV4VZ/+8OZ9+5+fjmR4V9wVkHN7nitLg7tkaWheloa+lj9agVfglbLr6krguI6pK4dK25t2GyR5RfLKZurKnMtFvNpmf2TQ9GdVpfPKFL+rRgbZbVBd7E5he4IOLTqvVjqt/G6rqNtNIqcsrpObRAdUnY7rhbHBIGJtfNO6/sn5vhXAAq9W8OqIeJPX18QR8Upbh8WbKGCNt4JV8PEh8cbLXnPijWdcY3MSjVLa1w6KN1b2mhVvLGKNxqGTrddnxBstadVnxFte0+LVE6+Tm980/+I4hOH15FdAPr7rR+Ta8DtkaehvikMr8Aq8CqBUEKg63QevRC7ZSmDllZ7Kcl6SV9VNXoFX4NUddkvbq4JXj9kuYE9zPvAKvIpBsFI7r4J4tUHk5MDPruvfO/9qby94BV4F4crcLxuuzOdnhCvzfvBKPGu4VRJcGTDLhlefvmX0vd+TnGZ4R9QVkI/veIk0Buvy5NDZ4tEKvAKvwCt7EJUGtLIgU17vBa/Aq5bdCkle2S92Z2zQ7tggeCXhPViMDepSWTHopClj1xzjEl4tGsDa8JPrBiYOf18iwJo8Kp71NS9ro3tl3Sd55a2mscCrFfgqO3Hlf35E6sqksazhVNy5KotXX6ndP+1FQQzPJ7sC0hj6MXly+PelMfQlafiQVMYthe06xKLzSkwii+RVbyavnrhL5GJZa7uI2UVQu6wWs0eNGzI2qB8n3CpiRvqKWIwNkrw6kyY1ZeM9JK9IXsUgmGt4tQxYG3etW/9L7/sONWBZhyuDYWWBVfBzwSvwqjWt5eNR2bfgVYaxwWf76tM/lYxoOLr1Cqx0Ww3vkSeHPrSMVgau/LUEXsm1QZFru+2sq7tFB1Oa48Ar8CpNuqrTe/JKT2U5b0TyCrwK2a0wI2CdN2N+tldLasp0VmVdJK9IXjk3PljhHQcLKWr3S9x7IHll+rMy917FoJMmVaU5xkW8MoC1uOH2dev3zv9TFWCBVzn3YRXQd2U6tVZTVmH3SV6RvGpNYlU2eSW10al9rRjDY/0VWB4TXBr6ZWkMfnoVrHy4Ki19RfJKB1wu4tUuWQalTh1Vtl8jeUXyqvAEVoLUlUlnFZK8slDabh2ucuq8ylzaXlDqisJ2u6mrx+/IMNp3e87vBa/CxwR9tPJvwSsdbPU8Xomc2vDadWZLeW/v0Wc7IhZ4BV4V0onlQudV2Ykr//NJXmVIXklfferIunVyg55rONK/AnJ1+J9JY2ifNIaeDoUr8EpWUlckr+SKQSntStFblQW0wCvwCry6DmQ9krwCr0hekbxS7DrI2GApY4Mkr0xyys46vvEHl3+zeHuPfiESsMAr8Aq8KngHQvAqC155I9OL/fX5F/ggw63uCsiTu14hjeF3SWPoy5FwBV71Ll5d1UJV2HHglVzeIW3r0g6RptVpfK+s17KM9+X1XsYG9ckt8ErXe0XySs5uaQawqhS2O5u+InlF8mqTiIGrrsWrjXZAKilsLWz+9hXAmnzoE6GABV6BV+AVeGV2ASxqZdttULz69Bf6RqdWZF7nNj1/lHx88FXSGJ6TxvDXO8IVeAVeqdNWQcQCr9rgymBWE1yZx2UBVafPzQugspzXRbwyRfEJRgcZG8zec9Xak5Wp9wq8Aq9sjxGCV+AVeGUtcdUKXI9te9EKYL3t6GNtgAVegVfgFXhVFFyZz8mOV0Jpu97j5Org90jj3gfkyeFnpDG8VsxuoCpsUdh+HbBcLGw3pe4u9l6BV5XGq0tZoCmP94JXJK9CSt7Bq+bkVGuSKuljklcZO7HAK/AKvMoNr05s+LrIupWKmL63Hf1IE2CBV+AVeAVeVQ2vRqb/q55vevdI+eTwt0pj+B3SGP7KClyBV2udVqbXqtMCr+i8ChkFDBsPjHquKskr8EpE1aFF8kq3M2EIPLWmqNI8Bq/AK6d6r8Cr3PHq9K2i67BKelwAnfyxv6y3XbnbYEljgyaFdWJ5Pb36C87be/QPVwELvAKvwCvwqmJ4VRudPkvv1epXeugdObfnxf+IVnulMfy5NbgCrzqDVRCzwCvwCrySJ/JIVsWdk+QVyasQAAOvwCvwKqa0vcsK28ErkZOWdyFcNCCVZFkqYm8dC4x7vIJXBrE+vvojx9v70P5lwAKvwCvwCryqGF559ekv1kamf3j1C407TVdAZN+NsjR0nzw5/JlmuAKvwKsOY4ep+q5M9xVjg4wNxoFU0tcjAEuVkDL9VHmsLkxeXdgmujRVkuNC4ClN0qr1PeBVAXi1RcQUpLu2nEIrvzuL5BXJq0CCK3PyapN9qAqDr0RwVXryyk9gnVv9kVPbe/S3PfAKvAKvwKvq4ZX0jc68cfXLjDtNV0Aag548OXSiHa7AKz1emRSWhfTVVdNTZXN1wKesfVjgVfuOgVEjgZrnGRuU9Mkt8EqXvsq42yB4JXLOcpn72a0iqtWy+1/Szqqsx4d2XoFXooYy8Aq8Aq9y67xaGx1cAayFDY+u/tDxJo/+sn3Amhdvsux1RLzJ62viSM5A1en8h8WbKGCNHxYvch0SrxCg6vQ5c+KNZ1xjc+JlWgcLRqqoz5sVbyxijc6KV8gqcHfBVhizUNju1afFG52aW/0i487qFZCn9nyLNIbftbKzoMGq1hVR1O6Xt1PYHujCsoBXBsDAK7vprMs7RWJXxpE/DU7FHQNegVe57zoIXokqkWUZqDqBlwquDHCBV+qElxqU/FRUEbfgFXgFXhWGVytjhP999cdObeLoW+wCVtlwZT4fvFrDrE6oVNRrGeHKwFcmuDLvj8Kkop+PgCsDWoXAlfmc6uNVX336bza95b0vW/0i4866lXHB4TeGjwv6iAVe6dNX4JWu94qxQcYGk44Fxh1P8orkVcv4oQqp7pRwzAKvQrEsNH3F2KAufQVegVfgVcF4ZVJYM6s/97y9D73BHmCBV95q2quA1JVJdkWmrsxrRQFVp88Br9bwDLzyltNX07KcoDIpqrRrdOZ1q19i3FknS697jTSGT7anrXy4MrfgFXgVMXrI2GAPjg3eI+LcboMGtsAr8Krb8crV9BV4BV7dJjqY0hx3q4gpXk+7TiXdSVB7fACesu40aN5P55VYh6y10na/++r67cC7V3/y9e2d32EHsMAr8KoVssAr8Op62svW2CCjg6vf3eaOPLz5Odd3F/yH6uHVkMjSYLJ1LbgzYF73SV6RvMo4ftg0OmigyMUVl4Iq43XwCrwCr0LTUjbHDUleiQ6qwsYQSV7pgCsDXOW226ABLvBKt+tgSbsNtnZeNUHWgMiJgX2rP4JqE+/bkB2wwCvwCrxaw6rWsUSSV9aSV/XpzwyMT/+z1S+wHr4j1wZfLUvDi53hytXkFXil78WKSE1lLWs37yd5ZTd5ZTqxwKuUvVfgFXgFXoFX11NgdF6JnNmsWLeJnFGu05rUlI1jwCt9Kmtj/jsOVmW3wXi8ElkceOvqzz5vbP5V2QALvAKvwCvwKqJXy2byyqSvRqZ+YvXLq0fvBFJXXwWvbKawSF7pQIvOq9DOK/AqJVx1wdjgxe2iw6esx1HYHt5x1dp95WLnFWODFLZrQCrJMUq4MsAFXtlNXzE2WOTYoElerayFgTes/vRb/0vv+470gAVegVfgFXhVDF711aeOrH5x9egd+fjrfkQaw2fi4Yrklb7vyiAYeAVe2RwbNEksxgblCc0YYsWTV+CVyPmW5FTWx5kK2w1mFQRY6t0GwSvwKglMaY51Ea8MlGVIX9F5ZT+NlSh95ezY4Bpgndhwz+rPv8379j8/HWCBV+AVeAVeFYNXXn36CxsmD33n6hdXD96RpeE3SuPeL+rwKgawlswIXxkrYeeV6cjKvfcKvAKvwCsdNmlAKskx4JUuuUXySpe8Aq9CRxDpvOrNzqtCk1fglVNjgyc3iq7ryj+uCng1YP5NXtPPP2/y6FeSIRZ4BV6BV+BVYXhldisca/rS6qEH8tSeF8iTw+/RwxV4pUcv8Aq8Aq/Aq7tELpq1Pdm6kHUkUPN+8Mo5vDIJL3X6aouEopLNUvZO5wKvwKtCxgdJXukAq4DOq27FKzNGeMz7gaaff97k0U/rAQu8Aq/AK/CqULy6sP6+B25u+tLqkQdydfhHpTF8AbzKI4kFXoFX4BV4BV7J+W2iX5bHBf1xw6qMDYJXoh4HfPx6IXvcLYXtirJ2M1bI2KCoxwx7dLfBbsYrA1iLm1/a9PPP23v0vA6wwCvwCrwCrwrFK6mNTG1t+sLqkQfJRwZJXpG8itixsCq7DV7ZKXI5bmVEJ1O2bmM17TZI55UewhgbrO7YoIGuHAALvLKf0iJ51WXJqwSAVUjiyi+GJ3lF8irF+OGJDSKh63pZu1/a3nz7jMi6G5t+AnqT838eD1jgFXgFXoFXxeKVV59+qOnLqgceyJW7nyeNe/cnS12BV+BVL+CVwS1LAJXlPOBVyh0HwSvwqgXAwCvwyqkE1maRx0LWGU2xep7HKNNX4FVv7jbY7cmrZcja8Om2n4C1iYcOdgYs8Aq8Aq/Aq8Lx6su1kf0vb/vC6uIn5JPD3yqN4Y+AV3mMDLLboG5kcJeISUIVvWKTV+CVfmfDJEXqRR0LXoFX4FXufVgkr+wmrwxmgVcibTBG8orkVWHJq5VdCBcHzrT9/KvtPfrb0YAFXoFX4BV4VThemeL2X2n7suriJ+Ta635AGsOXwCvwSq5GpKmSPN9VY4PgVVfi1RN+/1QZtxS2l9p7RfKK5BXJKwWOkbzS9V5Z7rw6tUl0QNXpOArbZTGAXKEjg/4oYcfRwRXAOjHwp20/Afv2Hp0MByzwCrwCr8CrUvDqrzdMPvhNbV9WXfqELA3fKY3hp63iVWNIZKmMNSiylHBdywut/PNS2O5s+orklehx6p6YY4tKUyX5nIjkFXgl7YmsjDsOJipj1xa3t6SmbHRggVfglVN4dTtjg20JK7/jqvW2B5JX4JU0wVMQodLez45XBrFm2n4C9k0cfWM7YIFX4BV4BV6VglfijUy/ue2LqkufkKWh+6Qx/DXwyscm27fgFXiVsTeLziu7nVfgVe/ilQGwTIC1VcTsBFjEOrtVRLW22AepswnOydhghrFB8Kp9PLAVrfzH4JUulUXyqgnA7OCVAazfavsZ6E3O39kMWOAVeAVegVcl4VV9uvGqffPPbfui6rInRPbdKE8OvTs5XMUUtpO8krVCd/AKvAKv9DsEJklWxR1L8qo9YbU9BK7Mcz2SvAKv7EMXeAVeqdNTPkSluQWvwKvAOKA2iWUPr0QW+9/W9jOwf+/8q9cAC7wCr8Ar8Ko0vBJvdOoNbV9SXfaEyJ6b0u00CF6t4VRcUqvH8Mr0Y1Wl94qxwZhRwLhRweDrcZBUxuvgFXgVMnpI8souYFUFrx6/IyMymZRUHovdBnXpK/Cquni10f44YBl4ZXYhXBj42bafgpt+cf5lK4AFXoFX4BV4VR5e1Uanz67bt+/Gti+pLnpCzu15rjw5fJTkVRxAZXkdvNJjVsE7DoJX4NVFx0vbL0QlpWw/T/JKN05Y0MigGUtUjQya4xKM+OVxLHiVEbXAK/AqUPx+slMZu+Y1F8cGuwivDGAtDuwI+SkoN3iT81/zJssGrCPiTV5fE0dkDZOKvn9YvIkC1vhh8SJXKySV8XhOvPGMa2xOvEzroESDUpGvzYo3FrFGZ8UrZEXA0mgBz9dnxFte02Z3wNxWrT69K+QLqmuekk/teqE0hv8/8CoLTsW910W82i1WdhaM2oWQ5JXI5YyjgsH3V6Xz6lIZ6apOn+li8spgWYIdB8ErERtF7cFzkLyyC17gFXjF2KCIKVu3scAruyktm2ODBq78dXzDa0N/DHp75z9ZLmCBV2uYVQZWtX5mRrgy8JUJrsz7iwSqTp8VAVcGtAqBK/M5BSBV1GcUhFdeferR0C+nLnlS/mrbi2Rp+M/AqziAyvI6eEXyKiNkgVddVNgOXol6Z8KQkb8gQqW9D16BV7mM/6UdKSR5lXvy6vStIqfyWJbAKohe4FU18Gp5hPCWbw/9OehNzC+WB1jgFXjVCl6dQKnI18CrIpJXJtXVzekraQx9szSGHwWvsuBU3HvBK/AKvKKwPTieSPJKB1jglW500MWxwS0ipmPKteUUWvnYBV6BVwEEy4xXZrSwgNHBRTMKmGSlKFvX9lp1Oi6v5NVKAusZmd9zUyhg1Sbn/6gcwAKvwCvwKjrJ1QvJq+WRxAvd2n21gldDp8CrOIDK8jp4BV6BV+XglRkpjBgdLKXrygesLsQrs1uhOlGlPRa8Aq8sAxh4JXJms2LdJnJGsQoZF/R3JsxQ2N5TySvwSoKYlS9emTHCp0LxyjzZN3nk94sHLPAKvAKvwKtp8Uamfzryy6nCL8hTe14gjeH/CV5lwSnNey0A1lXTU2Vz7cqv94rOKzqvnujURVXka+CVbsfBjIXt4JWIKVm3uSpd2E7ySr8zIckrklckr5rAKYhPNu5HAlagw8rvskpzuzAQXTHj7T3ya8UCFngFXoFX4NVy+uoT6+974OYKO1Xony6L990sS8N/DF5pACrLMRbw6ppNuKKwXa7sFGG3Qbu7DTpX2E7ySgdXZudC8IrdBjOMH1altJ3klSJ1ZZJZitSVOYbklZ2SdqudVySv2iAsb7xaAa+HQn9omSf7Jud/oTjAAq/AK/AKvFrZzbA2MvWWyC+mir4gsu9GaQwfAq+ywJTmveCVbnRwpyyjkoGlIhZ4BV6VMj7I2KBuxJCxQd3Y4Fa7BexnUyAWeJVhx0GSVzoEc3Fs0JTAB1JTNu7TeWW3sN0kt4rBKzNC+O7In4PexJHXFQNY4BV4BV6BVyt45dWnP/ua8ekXRX4xVfQFaQz/F/BKA1BZjgGvwCubvVf3WEQnm+cqchxQ+1mMDerSVySvqpu8Aq/UxfAkr0heWd91ELzSFbeXVNheLF6JLA7sjfw5WJs4siF/wAKvwCvwCrxaxSvxRqZ+OfJLqaIvyNLwr3cPXg2JLA0mW9eyoJT2veAVeAVelVPaDl6BVy0JrnN3ig6qwo6z3GvVqSNL3XkFXoFXmhL2JMcwNihq5AKvwKuW7qyFgTdE/iSsve3Qy/MFLPAKvAKvwKsAXtWnv+rdP/dtkV9KFXxBnhx+M3ilRai0x4FX4BV4BV6x26BuXNDfjbAFnc5begxe2R8zZGywN8cGC+29YmxQ1COFG0VO5rwWN4oOrfzjeiR55Re+nxy4I/In4eZ9Dz/Hm5x/Jh/EAq/AK/AKvGrCK+kbnZ6N/EKq4AuyNLhJGsNfSw5YQyKNDmvJpKDKWCSvdLsSsttgZQrbL+8QuRRcNkf9bJ5LO8pX5HEVT15dNGXqRSzGBnVpLJJXEtaJBV6BV7mXt4NX4FVKACuu88r0XgXWxu/t+LPQm5xv2Acs8Aq8Aq/Aq2a88urT0jcy1d/xC6lCL0pj6OXSGP4b8CptqkrzPpJXJK9sJq8MZNlEJ1vnKhKltJ8FXunwC7zS4ZUZJSwIsBgbFPU44ON36I6l88pu51WhySuzu2EGwFKPAZoS9iSrR8cGTbIrUfoqJTyZzqqsqzS8GviGnHvVczv+JPQm5h+2C1jgFXgFXoFX7Xjl1WdOd/wyqtCLcm7Pi6Ux/HhyvBrujuSV6cjKvfcKvAKvwCvGBlOMDZK8ErE1LuifJ9PYIHhF8ur2DCmrsPdWeLdB8Kp3dxsErwIJq2Daqu3+U7E/CWuTRw/YAyzwCrwCr8CrMLyalr769M/FfiFV4ACRdTdIY/gIeJUnYoFX4BV4BV6BV9XvvCoQr0zCS52+2mK/xypsPDDqOcYGM4AWeCXqkUOSV7rRwZz7rvw+LZJXSsDa8LHYn4O1ySP77AAWeAVegVfgVTheefXpp18zPv2i2C+kChzwj91VbwevwCu5aqkH68ou0WFV63E7Ra4UuC7vlPjeq4zoZPqqbKymzivGBvUQxtggY4MtRe9VSV6BV7pRQO3IoDmOsUHGBhONBGrGBxkb1I0PWhj/Szs+WN7Y4BpuLWw4GPtzsDYx/zPZAQu8Aq/AK/AqEq+kVp/+7dgvowocII3hQWkMfyM5YHVBYTtjg2INrXz8qgpeGSirCmCBV6IHq2AfFnhVXbwyuw62wJONx+CV/ZQWyasMMOZi8mqziBkJ1Cx1asp0VmVdJK9IXqVAMBfwaqXI/ddjfxJ6k0duzwZY4BV4BV6BV9F4Zcrb++v7Xx37ZeT4AfLxe79XGsOfA6/ySl8xNqhLYhWYuvITXuCVxfL3IBq5ch+8Aq9aAAy8Aq+cSmCF4NVjBo/KXuCVrrid5BXJq7aeq7XEVdPugwMiC/33xf4k7Buff0V6wAKvwCvwCrzqjFde/cDJ2C8ixw+QxftulsbwI+AVeGUlhUXyys6oYHDckOSV3eTVE37/VBm320VMEbt2XdguOoDKcpyLuw2SvKLzSrmLoHZ00Cm08svbwSt9IovkFcmrSievVlDrZP/22J+Fm/c9/Bxvcv6Z5IgFXoFX4BV4FYdXU+KNTo/EfhE5foAsDf0n8Aq8Aq/CRgkt9VYFMSrpffAKvMoVscArUSeytoqYPqoiFoXtdnuvwKsEiS6SV6Ukr05tEh1QdTqOwnYJ9mNFjg1uiE5ItSambD9e7H+l6mdhbXL+48kAC7wCr8Ar8EqBV/WpZ26Z2P/tqi8iRw+SxvBd0hh+Nhlgdei8agyJLJWxBkVMj1WSdS0vtPLPy9igbmzQFLgXPDrI2GBvjg2SvApJc2UErPMmKWV7tYz80XkVsQMhuw2KJn3lJF6ZBFZI+oqxwZCOrB5IXoFX0gRPQYRKe99FvDox8HW5cvfzVD8Jvcn5/6kHLPAKvAKvwCsVXklf/cD/q/oScvQgaQx9szSGPwFe+eBk8xa8Aq8yprdIXpG8yjV5ZUYOewSvDICpU1ZhxxaUumK3QbupK2d3GwSvGBts6c062SlVpXmN5FUTgLmJVyIn+pfUPwm9vUemdIAFXoFX4BV4pcMrrz4lfaPTe9RfRA4eKI2hg+CVTbTyzwVegVfgVbrdArMWv0cUtpO86t3kFXhFYbtzCSySVzrAInmlGykEr6qBV8tF73+q/jno7Z3/9/GABV6BV+AVeKXHK68+9fTmffufr/4icuxAaQwNgVc+ONm87TG8umrG/9IuxgYlrA+L5BXJK5JXIjbGBsGr3sUrZ9NX4BV4FUhfdWXyaqP9cUDtGKGzyavruxQuDvye+uegN3Hk/+wMWOAVeAVegVeJ8Eq8kQP71V9Cjh0onxz+VmkM/7UesOi8ElVflot4tVuslLMbqApb4JXdHQfBqy7CK7PDoWu7DTI2qB8lZGxQzrZ0bD2+RaRtWd4pUNNppTnGudQVY4M6uLpN5DTJq+omr8Ar6VT6vjgwqv5J2Pe2+TuiAQu8Aq/AK/AqIV4tjw9O7VR/CTl2oDSGD4BXNlNX5lzglT6JRfKq0smrS1nH/Gy/38WxQfBKX+yeQ2E7ySuSV84BFskrHWCBV+DVhuQJLteTVz5qLWzcpf5J2Dc+/4pwwAKvwCvwCrxKjldeferzVR0flMbQZv2ugySvSF6RvArFprDRvyzPVSV5BV6JXDQ4FbdIXukAC7ySs1sjdhgMPt+ShGpNRuX9uC11ZZJYJK9EjWTgVe54ZVJbp/JYgXE/s1OgjcXYYHKg6jRCWBW8Moj1aO2H1YC1Z8/8Td7k/FeaEQu8Aq/AK/AqFV5JrT51iNIvngAAIABJREFUUP0F5NCB8tSeF8iT917Rpa/AK/AKvAKv7hG5ZNbdK+sJ2+mpLOcjeSXqrix2G9SNDjI2yNigGfWzucAr8CoAX5nxyuxIWEBp+6IZBUyyUqSmOqGU9rUq4dXCwDfkyt3PS/SzsDY5f3YNsMAr8Aq8Aq/S4ZXZfbA2Mn1voi8gRw6WxtDbwSsHRwevmp4qmysCnsI6rJI+R+dVb3ZeOZe8MvAVAVix6ai49FSW17sweXVhm+jSVEmOI3lV3eSVo+krq+hkC7DAK/AKvGraIVALU5rjqoVXIgv9S4l/DnqT80dXAAu8Aq/AK/AqPV559akvvWZ8+kWJv4RKfoNcHfweadz7xXjAInmlS1652nsFXsnlnRK/dtiFqDTjg4wNpixsB68KS16BVyLnLKeyVCODZnzQxbFB8EqfzgKvwCvwKje8MsAVCVjXd/zze6fKvl0YMHglcrz23xP/FPT2Hvk1bxK8Aq/AK/AqE16JV59+KPEXkANvkCeHj4JXNtNXLpa2g1fxcGVwC7xaGQv0xwOjbl0cGwSvwKuQ9Na5O0U3Ihh2nGWg6gReVcErg2dV6b0ieSVyZrNi3SZyRrFOm10Ai1oZCtt7qvOKscE2CKsaXhnAWuh/Z+Kfg97eI29YBayJI+KVtg6LN1HAGj8sa1jVev+QeONlrznxxjOusVaMSvr4oHhjLqxZ8cYi1uisRIOTzddmxBstadVnxFtecbBUxOtTYkYEO63a6PTPJP4CKvkN14vbpTNgkbwieRUBYIwN2kUvklckr9TdVdtFD1bBYzN2XpG8KjF55Wr6ysHSdvBKAVcGtxRwZY4pDK7MZ7mIV6YEPpCasnGfziu7he1VTF6t4JXI8f6fS/xzsG/y0GuXAas0uDJoVgBcmc8Ar8SLxS0X4Mr8DRFwZZ4Hr0zaqcDVGa6uo9azGyYf/M7EX0AlvkFk3Q2yNLxYPbwaElkaTLau2UxYRZ2L5JWoQGunyJUCV1XGBk36qwmwotJPZT+fpVw9r/fSeaXDLPBKl8ZyMXkFXql3NwSvwCvruw6CV7ri9pIK26uMV8sjhAP9iX8Obt43/2Jv4sizJK9IXrmRugKvVlJXJn1VJFJFfZYKr0wy63TiL5+S3yBP3vtT4FUURiV9HrwCrzKOH4JXKdNX4BV41TI62HVjg+AVeKUZBUxyjDJ5VWj6iuSVqFNZ7DbYNDpYzbHBlf4rA1gf3fiSVD8JvYkjT5UDWCSvVkYWM44MmpHD2GRV3DEkr9aSXSWNDJpRxYqNDa6OFI5M/0aqL5+S3iTn9jxXGsNXowHLxbFBklf6HQkjRv6S7iwYdrwqZbVL2kGrwNSVSXiRvBJdn5U20ZVXeirLecEr8Aq8yr3Unc4r0Re0t+5SWOHCdvCKscHFjULyylLxu1/Y7o8Nrt1+OvVPQW/iyIeKByzwCrxqRTPGBqvUebWKV/Up6a9P35b6C6iEN0rj3hHwKmnKKux4klftUAVeJSqDJ3nVm8mri8FeqjzvMzbI2GCGXQvBK/CqkP6rDOkr6+OCpu+KzisdXBngYmxQ4nYzjMYrkRO1P0/9M7A2fvh3igUs8Aq8Aq+ayuGrmrxaKXb/wvr7Hrg59RdQwW+UT+16oTSG/yocsEheUdgekd4ieWW3sL2t88p0YGnTUEUelyUhldd7K568Aq9Ezrckp7I+zjQ2aHYgLKj3Sr3bIGODjA0mGQnUHOvi2GDG0nbwSuSk5XFCdeoKvIqFKwNbnfBqOYVV+73UPwO9iSNvLg6wwCvwCrzqIrySWn3q/am/fEp4ozx571g4Xg2LNDoA1pIZ4StjJSxsNwXvuZe2k7wieWWz8wq8kie02AVeMTbYgl/glVgfIyR5RfKK5JWdEUJ1r9Umie7AsoxUUegFXokKpeISV/7rsXjVL3Ki/9+k/il4y+ShLcUAFngFXoFX3YRXy2OEI9NvTv3lU/AbpfEzz5fG8F+GAxZ4pYMv8Aq8Aq/04KSFKc1x4BV4VVG8Mgkvdfoqw8jfWQvvBa/AK/AKvOqIWYwNxkKXBq9MAuvYhlrqn4L99fnvyh+wwCvwCrzqOryqT8lr3zr9o6m/fAp+ozSG6+BVloQWeOUkXqlK2zOikxn5s7GaOq9IXukhDLwCr8Ar60mrVvACr8Ar8Aq8Aq+yJbGW8cqMD/bHrWflYxu+KdNPQW/iyOfzQyzwCrwCr7oRr7z61N+u27fvxkxfPgW9WRbvu1meHH6qHbBIXpG8Cum9qkrnlQqvzK6ElgAqy3nAKwrbL/RaYfs2+31Xpi+rKmODJK9E3WX1+B26Yx9r3enPhcchuw0+pumlyvsYZe9VIWhl+q7ovIoeE2wdIWRssKkg/sQGkdBlaZdAf+wv660er0SO91/J/BOwNnFkIR/AAq/AK/CqS/GqUv1X0hj+WfAqbfqK5FV1k1fglb4cXjPGV/QxJK+qm7wCrxgbVKIUeCVyxjZmgVcruwn6uwpG3W6yk7g6df08dF7Z35kwFK4MaFUYr1bSWe/LDFje+OFpu4BVEFxNHBZvvNM6JCuAVObtnHjjGdfYnHiZVisilfV4VryxiDU6K14ha0aaQGm0wMfV3m1QljuvVnYeXLk/Oj2S+cungBOIrLtBGsPnmgGL5BXJK5JXhSSzSF7ZTV49cZfIxbLWdhGzi6B25Zq48tNc20QuZFznDTbZXi0jf1l3GiR5Zb+s3YwQMjZod2yQ5NX1pJWfuPJvbxU5nXKx2yC7DbYhVuXxSuRE7e2ZfwJ6E0fG7QEWeLWGZhnhysBXJrgy7y8Lq1o/NwKuDGgVAlfmcwrEqtbP6ja8qk9J/+jUj2f+8ingBHJteCd4lSZ9RfKK5FXG0UPwCrzKFbEywpWBL+twRfKK5BXJK/uJKm1Ci+RVKckrk8DKnL5ibFA3NuhY+irJ2GCwF+t4/3Dmn4D2diIEr8CrBHAFXolXny54TbUnqYKpKv39z+3ZM39T5i+fAk4gjeEPrwFWh+RVY0hkqYw1KLKUcF1LA1JJ3gNe6fBql4jpoSpyXTZjgXErIzxl6bry3wtegVe54pVJYGUELPBKxPRU2VzsNqjrsqr02KDp3QrpvbI+BqhFK/848Aq8ikGwjgXtG0WaXndxt8EuwSsDWYsD35f5J2DfL77/W7MnsMAr8KoVr8xjklfecvqqaKgK+zxreCXe6NT/yPzFU8AJpPG6V0pj+NkVwAKvGBu0OTYIXkWOIIJX4BV4Za/APVNpu2Wg6oRd4BV4VRpigVfgFXhVeC/WcvoqdrfBsN0IP2fqXaz8DKxNHPl4esQCr8Ar8KptRLELxwZXe7BGp37VyhdPzieRxvC7wCuSV3I1BK7856qy42Bs6orC9q4sbKfzStqL3HskeZW59wq8EtNzFVx0XmXovCJ5tbKToN9r1ek2Zd+V6cmqSucVY4MFFrY7lrwyBfLp8cqA1oet/fzzJo58IB1ggVfgVStedUhdMTZY8MigSWJZTF5dP1etPr3L2pdPTieST+16oTSG/07MaGCnxdigrCSzemxs0AAWeCWRKSp/FDDJLckrklckr0heRSaxWjApCEtF3K8KXpnxwscMFrm2GBvUARZ4pevDiklMnbT0etNYYOuYYNjjkkYH24raDVr5y8XS9lTJq5U01vH+/2jtp19t8si+5IAFXoFX4FVPJa+uA9b6kZnvsPblk9OJZOne/6sjXNF5dR2uTELLRbzaLR2TU36CKu0teAVePXF3SnCy+b67REzKKmyVttug2eXQtd0Ge6jziuRVc2rKBm6BVxlBDLwCrzaJmNRV1yavDGaBV7FjiNmSVyuAdWLgf7f2088bPzyYDLDAK/AKvOpFvPJGpp6y9sWT44mkMfhoR8AieeVw8gq8Wi6GZ2xQ9GOB98Qce7fIJZvwZONcEXBV6tggeKXfmfBOe2krg1b+ovPKLmCBV+DV6U7jfrZeI3lF8ioFgK2mrPy0VfC2y5JX/i6ENgrc/d+PA2Pv+xd6wAKvwCvwqkfxSmr3T73f/95w9VauDf+gNIaejQQs8Aq8SpzAYrfB0HHDqowNglciqkQXySsdYAXAyYcnG7fgFXjl1Oggyavck1e59V4FElN+cirr7clNokOqqOMsjQXGjRcyNiixSSrTY5Vk2UherQDW31krcPd/hHoTRz4Tj1jgFXgFXvUqXnkjU+KNHPhF/zvD1VtpDP4meBVX3s7YoL4DC7wCr2wkrvxzkLxqL2Y3I4Jhi8J2UaEWhe1NZe1m7DA0eWWev8O95RRa+d1b4BV4FUCwzHhlUKsAwAKvksGUBrHs4ZUZIfwz678dvYkjH+4MWOAVeAVe9TZeTYk3On2P9S8fiycU2XejNIY+EQpYJK/s9l5dNaN+NleH3QLTdl3570ucuPJL3sEr8MqHJ1u3EYClSkiZEb88Vhcmry5sE12aKslxJK8ksqR9q6y95mJhO3ilL4YHr8Ar8CrXTqzI0cGEySgNQGU5xi5eiZyovcPiT76VU3kTR/5TNGCBV+AVeNXzeDUyJbeMvvd7rH/5WDyhLA1tA68KSF9ZhSs6r+i8iuuwSvq6i51XBsDAq/CkVWv6KmPyCrwSOWc5laWCK4NY4JU65UXySuTMZsW6TeSMYhXSdeV3ZmXovOqpsUGSV20Q1qt4ZUYITwz8hMWffNcBa/zIG8IBC7wCr8Ar8MqMD059bt06ucH6l4/FE0pj6ME2wCJ5ZTd5ZXYttApYJK+EwvaYEvYkgAVe6VNaJK90KS2SV2vpqmDSqvV+yXgVOTrI2KAufUXyiuQVyas2cLK5O2Ev45UBrEf6v8viT76VU92yd+5H2gELvAKvwCvwahmvDGB9zPoXj8UTyuJ9N0tj6G+bAAu8Aq8Sjw8yNsjYoK1xQf88JK9IXrUgmKrb6k4J78CynK7qlNZSJ69cTV+BV+CVn5qyceti8upWkawF7a3vp/NKrENWr+PV8f4nLf7kWzvVnj3zN3kTR760hljgFXgFXoFXq3hlAOu/rX1juHdPnhy8p3y8GhJZGky2rsWN/Nl43cXSdpJXlUleXd4h0rTjYJJEVJHH+mDk0i14BV6BV7mPFoaWtoNX4JUNtPLPAV7pdyGksL0JwHodr0z66nj/XG6/HGsTRxZWAAu8Aq/AK/CqCa+k7/6pX8jty8fCiaUxdGAVsEpJXoFX+tFC8Aq8sg1bLqGV/7eAV+AVeAVeXYc0Oq8UfVemE0vRd+UfU1jvFXgFXm1Il8oCr8zugyLHa2+x8FMv/BTe+JHf8ybAK/AKvAKvmvHKGzE7EE7dHv7NUf6z8vDm56yOD4JXjA0yNiihY4AmSZV0kbwSecIHqSS34BV4BV6BV+CVrqjdL3MHr+SUGQnUrEBfVesIYJrHjA2mA6pOHVng1QpeGcBaGLglt1+LtcnDry8MsMYPixe5DskaIpV1f0688YxrbE68TKsVksp4PCveWIc1OiteIWtG2lBptKDn6jPiLa9p8eplrynx6jksA1Qxa8MvPPiduX35ZDyxNIZvW05fgVfgFXiVHKmiUAu86k28uti6K2Bej9ltMLzjKqz7qqDeKzqvRL2L4OPKEUWSVxVOXpnxwQzpKxVEabCq9RjwShY3SvxKmZrqhFLa18CrAF71f1kW19+c8ade9Nv7xudfUQhgRcKVQa2ywCr4uRnhysBXJrgy7y8Dq1o/swNcGdQqBK7M5xQEVWGfA175sPUll3cglCeH3yngFXgFXuWEV6YDy/bIn43zJUlEFXVsxZNX4JXI+ZbkVNbHmQrbDWaBV21JLjqvRNdvdXvIcRXebdCMDhY2NgheOTU2eFIDVsFjwCs5MSAd18JAEJnyvP+/ovXJ0ive5JFP5YpY4JUCt1ohqYzH4NVK6sqkr8pOXZnPzyF1Zc4Zk7pae336cUtfMbmcRpaGLpUDWAkL203Be+6l7RS2iwqy2G0wcpywKXkFXulHCMErxgZb8KsqeGWQTJ2+2iJtoHS2wOfAqxCUCoOqsOfAKz2AkbzSAVYBhe3gVWeIioOqsNeLwyuR4wO/nsuPv+BJvYnDD+UGWOAVeJUotUXyagXPysarKandf+D9we8Jl+7LteEfBK98GAOvwKsUPVfBEULwirHBC3mNDJrzMjbo3NggeMXY4Bm/g6roWxc7r0he6eBqk4iBpSKWalzQT1+RvOqYujKYVSRerexAuD33343e5JGxXAALvAKvwKsUaa7y8cobOSDeyIF35v7lk/IDpDH81uIBi+SVbsdBdhuUKzslfsfBjOgUBKgs98Er8Krn8Gqb/ZFBM3JI8sp+SovkVZclrxLsOMjYoEiaYvao91SlsJ3kVU7Jq8JGB81Y4jPysQ3flPInnv5tfePz/dYBC7wCr8CrKuOV9NX3/7z+W6TYI2Vp+APFAhZ4BV4lGD+8XBHAAq/AK/DKDmaBV+CVU8XtIWODjxWdtAr7PGX6CrwCr1QJLJJXuuRVoXglcrz/WCG/Cu9+y588r2/i8D9YQyzwCrwCryqNV8sJrPqBbYV8ASX8EJE9N8nS0NPFARZ4BV6BV+UUuhdVwp7kc+i8qm7nFckrOq+Uuwh2226D4FVEETydV7rRQcYGJbgTYaV2GywYr1bGB/9jwp926Q/vGz/8F1YAC7wCr8Cr6uPVyAHpH9v/yvTfKPm9UxqDHnhloffq6m7RwZTmOMYGdWODJpnlwOggySu7yasn7hK5WNbaLmJ2EdSuXBNXfo+Wi51X4BV4BV6J671XJK9IXpG8sjNCuNx5VQJeLQPWwI78fgW2nNmbOPLOzIAFXoFX4FVX4JVJYG2YfDD/+eWW7yHNQ1ka/nfFABbJKx1wgVfg1T1iN6GVJBFV1LERySvwSpoTWeCVvgtrq4gpUy9isdug3dJ2p8YFgzsPhowOloZW/gghY4Ny6laJX5vs4pXpwsrce0XySpe82mAHncJ2DkzzXJl4tdD/dTm9+Zs1v+esHFObPHxvJsACr8Ar8Kpr8MobOfA5K18sOZxEloY+mD9ggVfVxatdsgxKpki9qEXnlUXAKgqkknwOeNWMVH7SKuw2I2CdN0kp2+tOOz1XpqjdX3Re0XnlHGKBV6JKcPXA2CB4JU3wFBz/S3s/cmwQvBKTulpbJ3P46Rd9Su+X5r4tNWCBV+AVeNVNeGV2IDwX/W1R3ivX+68+ly9ggVfgVQL8Aq/Aq8LHBxOMDJrRwkLGBs3n9AheZd5xsKDUlUl2kbwieVVaAovkVXzqyiSzSF5JZccGHcMrk9ZaTl81gVIQl/K/f2LgPxT+K9GbOHwtMWKBV+AVeNVteCXeyP7/UfgXkOIDpTH0Y+BVyv6rqnReXTUJqrQrATzZSGeBV+AVeHUdyMAr3eggeCVntzSntx7fItK2LPdVaUvZOx3nXOLKHx0keUXyKoBgjA3aTV9VJXnlAl6ZFNaJ2lbFzzm7h3gTh2YSARZ4BV6BV12IVwekVj/wB3a/XeycTZaG35wfYJG8Kj15BV7ZL3mnsL2LCttNUXyC9BXJq7WRP3/0L+ttptFB8KqyeGVgy0nAAq/Aq27Hq412QSrJCCF4lTSx9RV5pP8Fdn7xJThLbeLwv1UDFngFXoFXXYlXpsDdGznwGwm+Ogo7VBpDc/kAFnilwyuzIyGl7ULyiuRV4ckr8ErfjRXoqsoKVsH3g1fNyanWJFXSx22pK5PEcjB5BV6JfvdCxgYZG4wpfleNCxq08teGcgALvEqKV2Z88U8L+0EY/KD+sblXqgALvAKvwKtuxiupjUyNBr8bXLkvjaGr9gELvAKvEowegld28epSkjL1Io51sbAdvAKvlOktOq/sIxjJKyVggVfgFXglaXYNzPKesjuv1srbRY7XJkv7vehNHP5ER8QCr8Ar8Kqr8coksPrqU/9HaV9CER8sH9/xElkaetYuYIFX4BV4JZfusYhS2nPdLQJeiaiSXIwN6gCL5JWutL2lgyppcirr8SSvMo4jMjaY+9jgaVOunscKjPvZKm/vys4rxgZVEOYSXi33X/X/eMRPuPyfro0fOhAJWOAVeAVedT1eLQPWyIEd+X/bJPsEuTp8B3ilLHC3WtjO2KCYwneSVxaRy0W8MumuiPSVCplMSiqP1YV4ZXYrPG97gVfVxStHRwdJXvVm8qqn8GqTyMmY1JSN11fHAf2xwLhbxgZjAcs1vFro/xuRdTcm+2Vn8Whv8tBPhwIWeAVegVc9gVfLHVij+2sWv1asnEqWhifsAZaLyatBkWtKoOp0HHgly+BkY5dB/xzgFXiVC07FgRd4pYMu8Aq8stydBV6BV1YTWC4mr8ArCRa603mVovOqP/CegVkrP/bSnmT9yMx3eBOHn21CLPAKvAKvegevRg5If33m+9N+h+T1PnsF7l2MVwa2rAIWhe0kr7QjgZrjSF7pU1rgFXil6L2qdOcVySv9zoaMDTI2GECwzGOD4FUTXhnIigSsAYlNQ2XpsEr6XveSVyuIdaL/X+X1+099Xm/i8LlVwAKvwCvwqqfwyiSw1o/NvVT9hVHQgbI0dCF7Agu80gMXeAVeaVBKewx4BV4xNijnFCilPaYqeGU6s6rSe0XyiuQVySs7Y4VVGRsErwIpqmCiKsn92tfleN+3FvRzMPpjvMkj71oGLPAKvAKveg6vDGBt3rf/+dHfEMW/Iuf2PFeWhp7JBljgFXhFYTuF7cGdDOm8kgvbJX5tEzG9VVkWnVdSDl5tFclaup71/eBVhtJ2klfVTV6ZEvhAasrGfZJX0pacCo4BprlP8iojYNVEFmofK/6XYcgn1iYP7fbAK/AKvOpJvPJGDjwT8rVQ6lNybfDV2fBqSGQpIWBdM51UeS8LnVeMDfZu59XlHSKXgkubhir6uCAauXIfvIqHK4NbGeGKwna7cGXSWerkFXgljyu7sUhekbyymrwCr0SdwCqpsJ3kVUa4MgmtZbwy5/nFUn8k+h++YfID3+SNH/5aOGIdEm+87DUn3njGNTanAKpOxxwUb6zsNSveWIeVCKBmxUt9/Ix4oyWt+ox4y2s6BTbZfs+UePUc1siUeOp1QJZL2Ecy3T7tfxe4ciuNwZ/MBljglS59xdhgZcYGwSuRJ9JiGHgFXrUUv5+7UyT1sjgWGDc+CF6JGqXAKyVKbVYed5vIGeU6fZvoklNZj7tVxOwamHZZRysDV+AVeGWxN8vVzqtVvKqJHO/7l678XlznjR96pB2wyoYr8/kZ4cq8v9vxKjVEpUGskuDKgBl41QJbmdAqCF+fdOaL6PofIteG9qUHLPAKvFKODlZlt0HwCrxSjf5pxgOjjiF5pQMt8Cp0RJGxwd4cGzTABV7ZHR1kbJCxwYUkfVRFHeunr2p/KbLuBmd+N3oTh36tGbDAqxX4Kjt1ZT7fhdSVwS7wyqubFFcOqStzTnXqyhxrDa/M5z7hzBeRD1hLQ/PpAAu8Aq/Aq9J6r1InpNImq+LeV/Hk1cUobLL9PHilwyuT2ioIsEhekbw6o01K2T5OmboqFK8MlJG8EhVubbRTyn4y5jzqkcGN9kEqSfcVnVcWRwdN+qr2/zj1m7F/Yv62NcACr8Cr1nRWSXi1mroyCSzbI4BpztdteLUMYaed+jJat26dLA2dSQ5Y4BV41e14Zfqviu6z0nxeHCSV8Tp4xdigzbFB8Irk1e0ZUlZh761wYTt4ZTd1ZQrfVTgVd1wMOsWhlPZ18ErkRC+MDQZ7r5bxSuSYd6dTvxlftW/+ud744S+W33dlYWww88igGTskebXWkQVe5Za8SpS6sp28Wklx1UYOLDj1ZbQCWJ9PBlgJ8coUvFPYLnLVYgfWlV0iqZYSna5YOq6yY4Pglb4DC7wCryqKV4lK27eUu+MgY4MZQAu80o8ekrzS4RZ41bRjIckr28krkePe03LuVc917Tej6cH6k/IBi86rFTxjbJDOq9axQptjg4Fz3X/gUZe+jOTSrpeCV9d3K7y6W3SpKs1xFrGqFb5SwZUBL0sopT0PeGU5wVVGsiruM8Er8Aq8Ck1LnbUIXuAVeFVI9xV4BV6l2LUQvMoBr0wCy5ty6ffi6t/ijc29qVzAAq/Aq2BZO2ODa71YAXCy2n+1fN7/tfol4MAduXbvLXrAInmlAy7wahnLYgFrh4gpTC97XTJpq+DSjPEVfUwcJJXxOnhVXbzaJnK+BZ5sPE6906C/S2FBnVckr+i8Kq3zynRoKXuvCkErvxgevAKvuh2vBixAUx4l7quF7SJm98Hj/uofcuBnYvuf0F+f/y5v/NCz5SBWRrxibFDWRv5a+6vSPGZssJvHBptK4O8/8Oft3wblPSONwZ/UARZ4BV4lSHDF4tXO8uGqbbdBxgYZG+yFwnbwStSl7RZTVGkSWSSv7CavHrNdwJ7mfOCVnLpV4tcmu71XdF7ZL3evVPKqanhV+5Isrn9heb8OYz7ZGz90snjAAq9IXvVI8sqBzqsmvFpJc30o5muh0JelMbg3HrDAK/AKvCqn0L2MZFXcZ5K8InnVkt4ieWW/Hwu8Aq8KSWCRvCJ5RfJKFvJIVsWdMyp5VRM5VntfoT8Gk35Y3/ihtxcLWOAVeAVerY0KBnuvch0blABkfTDp90Sex8vS0O90BizwCrwCr8ArH7Ui8OqJu0QulrW2i1xMsC7YTlmFnW+byIWM67xJStleLfDE2KCEp7FIXsnjd8SPGT4Wtttf2c+FFLaTvJLwEvcewCsrOw5S2K4rbN9gd7fArDsPLpjUVeWSV9dHCPt/Ks/ffpnP3T966MeLAyzwCrwCr0rGKwNZbgFWY+h90YAFXoFX4BV4BV7pEldByAKvRJXKovOqrQCe5FWG5JXBsxDAKrXvis6r+HFBf6TQ8tggeFXg2CB4pU9xdUherfRffUke3vzizMiU9wm8sUON/BELvAKvwCsH8Mo9wFoafDQcsMCr6uIVOw5GFsM3lbXTeZW584rklbTjVo/glUlvqZAq6jjwCrwA2FkPAAAgAElEQVSyndYCr8KTVn5Ru39L8oqxQZtjg+CVRbwy44OH87YnK+f3xg79br6ABV6BV+CVI3jlIGANfbwdsMAr8IrkFckrklftOBVMWYXdB690qAVegVfg1epuhIV0XYFXOrTaJCvHMTZYybFBM3ZY2bHB1d0Hh60AU94n8SYOb8sPsMAr8Aq8cgivnAIskXU3yNLQV5sBC7wqHa+umgRV2pUAnq5YOJbdBsUedPlg5NItnVd6xAKvwKuU3VmMDTI2WAhikbzSIRZ4BV7FFbAnfT12bPB691Xt8/JI/wvyticr519/3wM3e+OHn7aPWOAVeAVeOYZXbgHWpV0vBa92iw6sgsftEjHIlNcCryRyBPDyjuSvMTYo+lHBIJ65iFemKN61wnaTxAKvwKsuxytT6l6V0nY6r0JK28Gr6uLVRvtdVovKEcITZjwwag04WNqeFJaKOF6NVyLHvSkruFTUSfrGDx2xC1jgFXgFXjmIV24B1tLuH1oDLJJXesgCr4TkFcmrUnYdBK90OxPmsNsgnVfSNvZ3NiVa+e+rSvIKvBJRo9htsjoaeKbD/UISV4wN6tDK5bFB8Eo0uxFWfmzw+vjgidrdRdmTlc+pjR1+vT3AAq/AK/DKUbxyC7CuDg6sABZ4BV4lGCcEr+zi1aVg6smF+ySvGBsMATAK2+0CFniVMdFFYTuF7YFdC0/6CJX21sWxQfCqp/DqeO2vZXH9zVZgqaiT/NjI/m/2xg99LTtigVfgFXjlMF6JN7L/g0V9r8R9jlwb3ilL4BV4BV7Z67G6JwFu3S0CXomoklwkr0heKYrfz24VUa2MySk/QZX2FrwCrwpJYGUYGzx9q8ipPFYAnU5Zug9e2R0xjBwZdGy3wa4obPeL25dvfyvud5uTr3vjhz6cDbDAK/AKvHIcr9wCrKXBNyYGrGuDIrmu3SLXLKyrwc4qG/cZG2RsMAlOxR0LXungis4rHVxtEzEjfnksklcFJK+2iJgxPdcWnVfK0cEOo4LBMcJC0MrC2GBP4ZVJbBWQvlo0aaokS9lRpe2y0h4HXoksZO3FStJ5FQSsvn/pJFDF/VF9Y4d+Pj1ggVfgFXhVAbxyC7AaQyOJACtXuPJhDLzS7UCYIDXFboMJUlFx8GTjdRfxyowuRowOqhJSBpryWF2YvDKF7+dtL/Cquskr8EpfDs/YYO5jg+CVfdBKBFcljg0a5IoELArbdbCVFq9qp+KcyNnX++vz3+KNH/pqcsQCr8Ar8KoieOUYYO1+uxqwqoJXJr1lNX1F8orklQ208s8BXumhC7zSQRd4BV5ZTm+RvCJ5ZXV80NKoYHDkMPPYIMkraU1lgVcZ01ep8UrkWP+Is0Cl+cO88UN/nAywwCvwCryqEF65BVhLg+9UARZ4JXLVMmRd2SW6pFXrcSSv5PIOaVuXdog0LR+MXLoFr8ArkldyTtFlpT1G1XdlerFK7rwyn1+V3ivwCrwCr+yksEheiaqEXbPLoH9Mt+w2eDw4Olh7Ro5536ZxImePSbYbIXgFXoFXFcMr1wDr92IBC7wCrzruOhiCSWHAlPdzzuOVgTQXdhhs/RsYG9TtOLhNxIz+ZVmMDUo5eOUAYIFXGUrbGRus7tigKYG3nL4ieWW3sJ2xwYypK9OXlSF5tQxZ/X/oLExp/7DXjE+/yBs/9MX4FBZ4BV6BVxXEK9cAa6ojYIFX4BV4Zak/qxWOXHgMXoFXLeOHXVfYDl6pi+FJXpG8spq8Aq/0pe0lFbaDVw7gVU3kmHeP1omcPs4bnzvUGbDAK/AKvKooXrkGWEcjAQu8Aq/AK/Aql2L2qLJ3Oq/ovFKMF6rHBsEr8GqzEqW0xyl3GzQ7Dxa24+CtIqZ4Pe2yjlYGrsAr8Mpi6Xt3jg2KrIwRfkLm99zkNExp/7ja6KHd0YAFXoFX4FWF8cotwLq2+09CAQu8Aq/AK/AKvMo2Mshug3ZHBk0vFnglapR6XFnsTvJKiVzg1QpM+UDV6ZaxQR1gkbyK7chyFq9aRgebO618nIq/Pdb/K1ofcv649fc9cLM3fuiz7YgFXoFX4FXF8cotwFra/ZE2wAKvwKvK4ZUpcHeprN3/W1wYE2z9Gyo+Nnhxu+jG/rIel7Hvqmfw6k77SBVV4A5egVdntEkp28e5iFcm5UXySlSdWBvtlLKfjDlPotJ28Krn8ep47etyzPtu52EqyR/ojR96TzNggVfgFXjVBXjlFmA1Bv+ieMDaLXLNwrq6W8TasrzDYHDHQnYbbN8xMGuhe1NhO3glT7QiVdRj8EqHX+CVqLuwFCN/USCV5HnwCrwCr1rGEsEr8CoFgp3YIBK6LI78+TsGZrnt9uSVSWwt1D6QxIYqcaw3eeT2NcACr8Ar8KpL8MotwFoaPNYEWLmnryzAlcEva3BlzgVeScfE1U5Zed3F3QbBK/Aqa9Kq9f3glXN4lWh0cIvI2RIXuw325m6DhXZekbzSwdWmYlJXJpVF8kpi01RJMKsX8Gpl98GdlUCpRH/kvn03euOHPumNg1fgFXjVNXh1/37XAGtxFbDAK7uYRfKK5JU6GRWVmLL1PMkrklc2dxsscGwQvCJ5RfKK5JVqTNCAVXDFjPvFjQNqXwevehOvFmrx/Vade7EaXVPe3gpcfeNzv5UJsMbmxMu8DsoKIJV5OyveWMQanRWvsDUj3mgJqx4ErGnx6mWvKfHqltfIlIQjVdTzB8QbcWEtg5RBqfhl8Mo9wDq9DFjgVW/i1RU/XdXpluSVvl/LFjjZPA94VV282iZyvgWebDxWjwcaqApbBY0NglfgVWl4ZTq0lL1Xhe02SPKqGaiCWNV6H7ySxcB4YejIoBkldHFscEBkwRSku7aWR/7M2N/K6oxTGtyqt7pP1zzuHz3046kBKzNcGfwqE638z46AKwNahcGV+awS4Mp8JngVAlsuwJX5GxRo5R/j45V7gHVWwCvwquMIoQOAReeV6EcFg/gFXoFXLQAWClJhSBX1HHjVNqLI2KDdscHHbBewpzkfeKXbcbBHdxtkbNA+fi2PDfYMXn1JPrrxJV0DVmH/EG987kRixAKvLOMWeLWS+rKcujIprl5KXvmINbL/g2H/18t4Tq4OXsgXsOi8EtUo4U4Rk4YqcnVEKz+RBV7p0ldBNHLlPngFXoFXbdhkux8LvAKvCklgUdiuS1+RvCJ5ZTu5ZT15ZdJZ/7WM33yFfqY3dvC+RIAFXoFXuYwYgldrI4spk1cuAta1wYv5ARZ4BV5lBDCSV3aTV0/cJXKxrLVd5GKCdaG1XD2Pxy4WtjM2KOodB0ssazcQBl6BV+CVyClLKaym/qrWkUDNY/BKh1eOjQ72VvLK4NWz8mjthwvFpDI+bPOb5l/sjc99XoVY4BV4BV7l3I2VEa9cGyHMDbDAK/AKvEo39pc1wRWRvAKvpD2RlRGwzhtssr1aUlN0Xkk4aIFX8vgd8R1Zj92eAZnyfO9mETMqGFyl9l3ReaUbGbzVHlgF4Qu8kiZ8CvZXpbkf2XkFXum7tXJJXokc73dmCid31/LG594TC1jgFXgFXrmPVz0BWOCVDq92FTsyqCpsN6ODGeHJxvtJXpG8yj2B1SN4ZQAsU+8VnVdtY4gkrzKiWAtc0XnVssugKWvvkcJ2g1jgFXjV/YXta6Xux7xtucORKx9wy9jhWzoCFngFXoFX1cCrrgcs8Aq8yghg4BV4BV7Z230QvJI2gMrSgwVegVeMDdpLYYFXvYlXZvfD5dFB231VNs6XV/KqZhDrMZF1N7jiS4X8Hd74wZOhiAVegVfgVXXwqqsBq8fw6qpJUKVdFLaHJr3AK/AKvAKvIjuwGBtkbDDNjoKd3sNug7rRQUs9V10/NrjRLkglGR+sythg7+KVyELt9YWgkUsfUps4+G/bAAu8Aq/Aq2rhVdcCFnilxyzwCrzK2nMVfL+LnVemKN61wnZTAs/YoG6ckLHBttRWVZJXphfLyd4rxgZXxgL98cCo2x7YbbBrxwbBKzE4Fbd6M3ll0ldPyeL6m12ypUL+lg2TD36TNz73hVXEAq/AK/CqenjVlYDlIl7tFjEJqbwWySu7XVkkr7ooeQVe6Yvdcyhsp/PK7shglXYbBK9E1EXwJK9IXsXsWrhoQCrJ2lBO+orkleiL2aNGDHMdG1zpvzrWP1IIGLn4Id7Y3IPLgAVegVfgVY54lWCnwZH94hmUSrJG9juzA4Vk3oUQvCJ51SOdV5eCqScX7pO8at9V0KSswhbJK5JXKccPSV5lTHSRvCJ5FRg/7MrOK5JXsamrXh4bPL7cffV38vDmF7toS4X8Td7obM0Dr8Ar8Kq6eNVVCSzwCrwCr+SJMjALvAqHKvBKB1VhOxMyNsjY4O0Zsar1/eBV7nh1+lbRJamSHhdAp2BvVZb74JXdhBbJq2okr1YA6+2FQJHLH+KNzZ3OhlgHxRsre82KNxaxRmctA1XU+WbEGy1p1WfEW13T4uUCUknOOyVe3fIamRIv0TqQI0ppz51z8spPaXVFAgu8Aq/Aq3LwyoBZBGBdNON7Za0u7LwynVnnbS/GBiWypH2rrL2WMjGVZYfB4HtDk1dbRFWibkb5ilx0XilHB7tsbLCn8GqTyMmYkT8brycaGSR5RfJqOV21MiK4AlVh9z8vH934EpdtqZC/zRs7eF96wCobrsznR8CVeR68KgGzLMOVgbBEcGWO1wJTnscVhFddk8CyAFhXTU+VzUXnlVzeKfErIzxdtvD+qnReOTc2CF4VlrwCr0TOWU5lqeDKIBZ4pQYw8Aq8OpU0XdXpeBeTV+CVtO5GGJm+UpSox5Ws23y9dwvb1yDrWO3XCgEi1z/k7rf8yfO8sbm/So5Y4NUakJG8Wkl9gVcreFYgXnUFYFnAq2s24YrCdrmigStzjAV8ynoO8CplYTt4BV6FpLfOhY0Dap+zDFSdwAu8sp/KAq/AK/DKTjKrKskrA1ngVcbRwQIK29fSWF+UU5te5rotFfb31cYP7ksGWODVCl6VBFdmVHF1ZNDcTzLel9ex4FUpeFV5wAKvdKODO2UZlQwsFbFIXolcusfSuluE5JVyFJGxQd2IYQg8md0Csy7wyn5aK3R0sOCRQM34IXgFXoFX4NUqZpG80u1EWCheiRzr/83CcKgKH7TpLfMv88bmvqxDLPAKvGpFMPCqNLyqNGCBV+BVhgRXJZJXBsHKKGWP+0w6r3Tpq4y7DTI2WOLYoKujg+CVqLCMwvbqFrabkULLo4OZC9sZG2RssD9j0qr1/QXj1fHa35O+ClE1b3TuPfGABV6BV+BVeMdWwWODBq78VckSd/AKvMqAV2bssAmwbKWlbJ8nDpLKeB28Aq9a0lpdl7wCr+i82qxMVGmPo7BdvzsheCWqEcINdncRbO216vR4NWnVOkJI8srJ5JUZIaT7KkSv1q1b99rJmR/yxua+EY1Y4BV4BV45h1eVTGCBV+AVeFXOjoPgFXgFXuVe6s7YoOhSVreHHFfh5NWZ20SXmrJx3K0iZtfAtMvquGCwxB28Aq8sIRiF7WvF7ce9p9l5MNyvlp/1xub+OBywwCvwCrxyEq8qB1jgFXgFXoFXd13vxErQeXVxu+jwKetxjA2KKpHlYmE7ySuSV9pElfY4ZfIKvGJsUJW62lhe6orCdksjhIHRwbVy9QA21fK4v7cD3/CSN3rw9nbAAq/AK/DKWbyqFGCBV+AVeAVegVe6ovZtsnJcS2Iqa1G7/34VUnXafbAgwFLvNghegVdalNIe5yJemfQWyStRdWJttFPKfjLmPGq4Aq/khCKd5WzyynRglYFX/Z+SxfUvRKlirkBt7ODCGmKBV+AVeOU0Xt3/XvEq0YEFXoFXNvHKdGDZ7quycb4yOq3iPrPiY4Mkr7LvLuijlX8LXrHboKpIPWzEL4/nGBvUjx6CV+BViu4sOq8spK/KwCvTfeW9OYZueNlcgdrYwdevABZ4BV6BV87jVSUAC7wCr8Arklckr0heJUxtqdNXW+yD1NkE56TzKqTLSgtd4BV4FejNUiWrzI6CnVZMYiouUaV9neSVqBJVmtSVOYbkVdjo4RU596rnIlSKK7D+vgduro0e/Lg3VjZgzYo3FrFGZ2UFl/K+nRFvtKRVnxFvdbVCUhmPp8SrW14jU+IlWgckHJSKfL7E3Qb9XQeXb98rnsEr5wELvAKvwCvwCrwCr8Ar9Yjf43eI9WOdSlz5uAVegVfglXTaLTDra5VKXhnEMmN6rq1A8sqMEBbXeyVyvH9IQTcc4l+BvrGD9XIBKwKuDGiBV+LViwYsy3BlICwRXJnji0SqqM9yEK+cBizwykm8urJT5LJmZYSnyxbef8mMCgaXjTE/2+eIG+Er43XGBnWF7y4Wtpvuqxx6r6oyNnjOdFlpV4KUVJJElfZYklddlrwy3VjK3qvTNnYS1J6DscHOiSs/jUXyqgnDwCsLGFYmXtU+4rsMt8orsHnf/ud7Ywf/shzEAq9IXrUCVxQoFfm8o3jlLGCBV+BVRsBqgis6r/QpLvAKvGoBMPDK/ogheGUXrx7TFqvneRx4JadulfgVSE2dsnC/4zigj1Nxt+AVeGU7uVUqXn1Djve9Vsk2HBa8At747EjxgAVegVfgldc0Krhf1h4Hxgb98UEnAQu8Aq/AKz042UxogVfgFXgl2gRV2uPAK/CqkAQWySuSV91e2M7YYMRI4oGgyXA/wRVYSWHNfbI4xAKvwCvwag2rgnBl7kfglXOAtfuiXLMAWFd3i1hbu0Su5rSu7BIdVrUet1PEjPIVuRgbtLhzoU10snWuCLx6wu+fKuN2u4jZRVC7LmwXHUBlOY6xQVEnshL2Vpnxv7SLsUG7vVdV6bwieSXhPVg9gFcmvZU5fUXySpe82mC3cF1bzB513HJhO3gVgVdflGPedycgGw5tvQK1sbm3FANY4BV4BV6lwqtuBCxrcGUQLCe4MudNjVfmveCVhHVkMTYo6ZJb4JUevjIC1nnTUWV7taSmbHRgqZHqTgkHrQwYlRSxwKsewCtT3F7h0vZCEld+JxZ4pYMt8Aq86qqxQb8gfm+rx/A44RW4+y1/8jxv7OBT+SIWeAVegVep8arbAAu8so9bJK9IXl0sOn2VIHVl0lmFJK/M5/QIXhkAywRY4FXbGCJjgxnGBsGr8JSVD1bBW/AKvLI5NkjySr+rYamdVz5eXZYrdz8vIddweNgV8Mbm3pQfYIFX4BV4lQmvugmwwCvwajWBZXunQBvnszXqZ/M8JK/0+AVe6VALvAKvDDjZXCSvdIAFXoFXXYxXZpxweXTQdmrKxvmcwCuRE7W7wyyG51JcgfX3PXCzN3awYR+xwCvwCrzKjFfdAlhVwatMo4OMDTI2CF419WGRvBKxMS4YPAfJK7s7DpK8yohZ4BV4FdipsCs7rzZK0yjfYgqESvueEyZhFbUGHOy9soFNts/hCF4t1B5KwTS8pdMV6Bud+zd2AQu8Aq/AKyt41Q2ABV6RvCJ5lbD7ysXklRlTTDA6CF6BV7HdV1vsYlTSXQergleP35ERmWymrYLnAq/AK/AqN9yKhCvHxgZJXvnjgZ1uvyiLG/55J4vhtRRX4HoKa8kOYoFX4BV4ZQ2vqg5YVvHK1dJ2kleVTl5dspmasnEu8IqxwZDSd5JXdrELvMqIYuAVeAVegVeMDUbsNNiKWfUUPMNbNFegb/zgz2UHLPAKvAKvrOJVlQELvCJ55XryCrwSURXAk7zS7UwYAk/B8b+098Er8MpqZ1UwRZXmPniVO16dvlXkVB4rgE6nLN1nbNDuiCHJK9EXs0eNGzoyNni8ZiBrQeb33KSxGI5JcQX27Jm/yRs7+Hh6xAKvwCvwyjpeVRWwwCvwCrxibDC3MUIK2ylsTzl+GJq82iJixvRcW06hlQ9d4BV4FYCvzHi1SeTkxvzXoumxSrIK7LkK9mOBV92GV8/Iif4fT8EyvCXJFegbn7sjHWCBV+AVeJULXlURsMAr8Aq8SohXZvQwYnRQlZAy/VR5rC5MXl3YJro0VZLjSF5JbN/VVrspqqR9V+Z48IqxwdO3iQ6gshyXYbfBnkpegVdNI4jgVbfhlcix/t9M4jAcm+EKeGOzf5wMscAr8Aq8yg2vqgZY4BV4BV6BV64mr8ArkXNb7S4VXIFXidJdJK9EzmxWrNtEzihWIWjlgxd4JepUFskrHWCx26BupNCpsUEzOnhZHul/QQaS4a1JrsBrJ2d+yBs7+DUdYoFX4BV4lSte9TRg7RK5mtO6sksk1aKwncJ2G0XtwXOQvNKVtmccGwSv7MKVgTDwyv7YIXilgCuDWwq4MseAVyK2uq7886iByiSsohZ4BV5F9Veled45vPqGHO/blMRfONbCFegbm313PGCBV+AVeJU7XlUJsKymr3KCKwNiqeDKvA+8Aq+C8GTjPngFXrWMH1LYbn/UMHR0kM4rUWEZnVc6BHMxeWVK4AN9VTbuR4JUFFSFPQ9egVdpkCrqPc7hlUlf/QcLHMMpkl6BjW87+BJv7OBnoxELvAKvwKtC8KoqgAVe2QWuyztFYtcOCQWlywU/vzoyuEPk0j2OLhvYZPsc4BV41e145eroIHgFXtlMZ4FX0UmrVsACr8CrKIhK87yTeHVBHt78/KT2wvGWroA3PjsSDljgFXgFXhWGV1UALPAKvFpGLPBKntAiF3gFXoFXkqaIPcl7SF5lKG0neUXyKpDeInklTfAU3Dkw7f3I0nY6ryraeWWSV8/Iwi23WKIYTpPmCqy/74GbvbGDl5oRC7wCr8CrQvHKdcACr8Ar8CphaTt4BV6BV+DV9RSYaozv9gwQlea9FcarQnuvSF6RvNqQDrbAq4w7DjqZvDKAtS+NufAey1egNjqzew2wwCvwCrwqHK9cBizwCrwCr3oLry5uFx0+ZT2OwnZRdWFZ3lGw0w6F6sJ2xgbVOw6CV3YL28ErOq8WN4qoVkp4Spu2Cr4PvMqIV2bUMABYx2sGjspfx7yPycObn2OZYjhd2ivgjR38kDcGXoFX4FUpeOUqYIFX4NVq95WLo4PaUb4ij6t48gq8EjnfkpzK+liFVHdKNGYVBFjgFbsNnjE7/5WxlLsNFopXpj8rQ/rqlClXz2MFRv56qbD9pBat/OPAKzkRM6a4MGABmdJ0Wmne4yBeHfc+J4/WXp7WWnhfDlfAmzj4A97Y7JdDEWt0VrxC1ox4oyWt+oyAV+BVaXjlImCBV+AVeEXy6kLWlFXY+0leRWNVK2SBV21jiHReZRg1ZGxQ13kFXjk1NgheSSxGxWFV6+vgVcI0lydyvO9f5UAwnDLrFegbm/mlNsAqBK4MkJUEV+ZzwSvxRsCrUvHKNcC6svuiWAOsXSJXc1pXdomkWjvt4tSVmPPF7jRodiMseFfBqM9bRSuz26CrOw4WmajSfhbJK93YIXjlHF6ZkUJ1+mqLtIFSksL1rMeCV+DVaZs7C0adi+SVDrAK2G0QvAKvSh8dNHjlPZjVWXh/Tldg876Hn+ONzZ5eRSzwSrz6dMFrSry65dWGU61Y1fr4gHgjZa/94o0kWPfvl2iAyvLae8UzuFTEGtn/wZz+ayc+rVgDrJzgyoBYKrgy74vBJtuvg1cil2yOH2pBqcjjwCvwqmXssCpjg+AVY4OljAyaMUXGBvUjhowN0nkVMw7YmrCKerycvHJ1dDAwNmj6r0qHK/M3GLyqnZXHXvOixD+meENxV6C/frDPG5v9ejEjgySvmoHMMlwZCAOvMsBWQXDl41jXARZ4tYxlVQEsklcJxwV9IAOvqotX2+z3XZm+LPDKfkqL5FWXJa8SAFYhiSs/iUXyiuRViu6sShW2g1d6GFtOXv29PFr74eIkhk9KfQX6RmffXQxgMTa4Bljg1UrqK0HqyiS0uiF51ZWABV6BVzZTV+ZcPhi5dAtegVckr3IfKQSv7OLVY2WUtLd+pjJ9BV7Z3XHw5CbRAVWn4xgblMruNgheJcQrkQXvDalBhTcWewVeMz79Im90tpEvYoFX4FXrmGIP45VBrK5JYIFX4FUP49UTd4lcLGttFzG7CGpXLgXtraXtLnZekbyi8+oOu6ODj92eAZnyem9IYTt4JeEl7iSvdLAFXoFXmh0Ekxzj6tigJ3LMe1exAsOnZb4C3ujBe/IDLPAKvAKv2nq1ugKwwCvwCrwqB7ASwJUBLvDK7vggY4OMDTqHWCGAVVrflZ/AInml672y3Hl1qlOiSvsaeKXDqw32S9ej+qw0z9N5lbBLa3ls0Ow4+Bdy7lXPzQwqnKD4K1AbnZ23j1jgFXgFXrXhVVcksMAr8Aq8Aq+COJYxfXXeJKVsr5aRP9NZlXWBV+AVeCUSi2PgFXgVg2CLG0VX1m6OS9FVZes9kZ1X4JUsaNNXDievjnufkkf6v6t4eeETrVyBWyb2f7s3Ovt39hALvAKvwKtQvFoGrAcrvAuhi3jFjoNyeYeELgrb7Ra2MzYYkujqEbzKXNq+VcTsBFjEOrtVdKODW+yD1NkE56TzKuM4Ismr8DFBv6jdv+2BsUGSV/ahC7wSPVJFYZbTePUVOdHfZwVSOEl5V8Abm/0JO4AFXoFX4FUkXt3/oHgjVQUs8IrkFckrklc9mLwCr+xDF3gFXhVS3A5e0XmVIsFVFbwyo4XLo4NRgFTm807jlRkd/Kny1IVPtnoFvPrsdDbEAq/AK/CqI14ZwHprFQErR7y6ahJUaddOWUalKwXdXt4pErsi0lBRKak8nid5RfIq9+4rkleiGiksKHVlkl0kr+wWtj9+R0ZkKrC0PXasz++myuuWsUHGBm2ODZY4OghedXvyyuDVO6wCCicr9wpsftP8i7367OV0iAVegVfglQKvACwDVsEFXoWP/6WFLfCqi/DK7HKYoLQ9d7Ty01fgFXiVYFQwOFZYleQVeKXouvIxDLwCr8Ar0RSt2zyG5FWC0na/sH359qjIuhvLFfUGzaQAACAASURBVBc+3foV6B+dGfBGZ7+eDLHAK/AKvFLiVQUBqwWcgviU9T541Zt4denulMiU1/vuEjH9VmHrokGkshZ4pSt3t1DQHlbwrkpY3SnhmEXySoJwZe6DVxkTXXRe0XkV2LXwpHZXwajjYtDppKXXExW2k7xSQRh4lRKvaguyuP6F1vGEE7pxBbyx2X+vByzwCrwCrxLgVcUAC7yKHxk0Y4WMDcolTT/W3SLglRLEwCvwSoFgjA0yNlja+GCXJa9O3yq6JFXS4wLoZMrWbSzwym5pO2ODPTA26C3JMe/b3JAW/opcrsDmfQ8/xxubfSQescAr8Aq8SohXFQIs8Aq80qCU9hjwSp/kAq/Aq27HK5PIusO99VhevVVZzkvyKvfkVU/hlUlkWUpXdToPyStRpamSjBWSvEqZvPI+Kyde+0O5oAkndesKvHbk4Pd6o7Ofj0Ys8Aq8Aq9S4FVFAAu8Aq+0MKU5zkW8MuOIjA2KqjcrY+fVhW2iA6kkxzE2qCttT9lV1Tr+l/Zx6NggeCVqKAOvwKtAaitz8gq8ksXAroQkr3ohefUlOVHb4Jay8NfkegVqowd/JhywwCvwCrxKiVcVACzwCrzSoJT2GPCqp5NX4JWI2SHQ5qr02CB4BV7dJjqU0h53q4hJUKVdp5KOBGqOD6CTjZFBcw7wyu7YoIGsSMAasJ+eSpK0aj2W5FXa5NVXZaH/rlyxhJO7eQW80dm5ZsQCr8Ar8CoDXjkOWOAVeKWFKc1x4BV4lSRVpTmW5FUlkldVKm1Xp6GyjAEmfS/JKx1yZYArxgbtjxJWZWwQvOqF5NU3ZKH2v7mpK/xVuV+B/vr8C7zR2ZMriAVegVfgVUa8chiwwCvwSoNS2mPAK/BKA1JJjgGvwCvLvVnglYiqBJ7Cdn3Bu+X0FckrklcL/RbAyeY5aiILgXW8liAhleexnsjx5fWsHPPuyx1J+AC3r0Bt5NDLvdGZz3ijJQFWfUa81TUta4hU1v0p8eqW18iUeIlWKySV8Xi/eCMJ1v37xctlvVeiUamo1x4U7/4HDU5p1gdd+R8vV3ZflKu7Ra6CV5XBK7Pj4aXg0oJS0ceZjinXFp1XdF61INi5O0VSL8ujgZ3GDNVjg1tF0vZV2XpfaO+VZXiyUQAPXoFX1scHwStRpbACPVTBTqoi7jM2mBHDAnBlEMs9vBI53jfhyu8s/o6Sr4A3NnOnNzrz9cIRaxWuDGKVBVbBz7UMVwbCEsGVOb4MrGr9zARwZZArF7gy5y0KqDp9TiK8cjCBBV6BV7ZxyzW4orBdB1fbRUxnVdZ1PkmqSnNsCzqdt/Q4NVwZ9AKvQqEMvBJ9x1XrWGGFxwbPaPuqbBzn4tig6cUCr8ArS91ZdF4lhLHV5JXIgve2ksmEj3ftCvSNzfxSoYAFXoXgVisklfEYvFqDs8R45Rhg7bqYW/rqyi6RVGunyJUC1+WdEg9YO0RM8qnsRfIqZaqL5JUOsMArXRoLvAKvWvEp62PwqrqdV+CVDq422h8FTJLYInnVA8mr2r9zzU74e5y4AnJDbXR2vhDEAq/Aq46prU6JqKJeS4VXvQFYqeDKgFeBcGU+C7wSuWQzfUXyStd7tV3kYoJ1wSSj8l7glQ6vCkxfMTYoYmNUMHgOxgbtjg0Wmrwy6a0M6Svr44L+boQkr3SAxdigtO4u2PrY2eSV6c8KjA46OTYIXjlBRa7+EZvfNP9ib3T2XK6IBV6BV92LV90PWOCV/aRWU/LK9F/ZRCdb5wKvwCvNOKD2GEtjgq3jhpnGBsErkldZk1at7yd5pUtegVeiLnPfaH93wZMh51R1XZnUFcmrWLgykAVepR0bfFaO10ZddRP+LoeugDdx8Ae80Zmnc0Es8Aq86m68kr63PuhQibvlEULwCrxypri94mODJqGVe+qKzit96gq8Aq9a8SnrY/AKvAqkt9RAtUmiMSsEmsLwKetz4JWoUKo1YRX1GLxKj1cLtbc6RCT8Ka5fgb7xmR3WS93BK/Cq+/GqewELvAKvwCuJTmElGBkEr0Rak1NZH1cleWXK4dWjg1vK3XGQwnYK20/bKGWPOwdjg9FgFcQs8EqCnVh0XmXsvHJ+bPDrslD7Gde9hL/PwStQG53919ZSWOAVeNUbeNWdgFUVvFL1XjlQ1m7K4hkb7M3C9p7GKzNemMPoIHhlH7rAqy7Dq80ips9KswpBKx+1wCvwKkV3VqXwyowPGixybQU6r0z/lRO9V/5ug33/IMf79jhII/xJVbkC3ujMr2ZGLPAKvOodvOo+wOoqvDLF7g4AFngFXuU6PuhiYTt4RfLqDrul7VUpbH/M4FHZC7wSVcl7YOTvlIX7jA3a35kQvLKAYS7jlfe0LNxya1WchL/T2SsgN3ij0w+mRizwCrzqLbzqLsACr+yDF3gFXoFXdpJYJK9IXjmFWCGdV+CVhPdgkbwieUXyqpxUltN49WlZuOXHnCUR/rBqXYE9e+Zv8kZn/zAxYoFX4FXv4VX3ABZ4BV653nn1xF0dOqnyfo3OKzlf4o6D4BV4BV4pkl0kr0hexXRnUdieQ2E7Y4P6kUR/bNA7L4/WXl4tIeGvdf4KrL/vgRd6Y7OPqBELvAKvehOvugOwwCvwCrzqgGPgFXi1VcQUssctCtsZGyxtfBC8KgWvzOhh5tHBGHTKusug//7K49UGu/gUtYug9vnl3QbBq8R4dcz7kJz+sW92HkP4A6t5BdaPzb3UG525FItY4BV41bt4VX3ASo1Xu0RMiXqR67LptIpbdF7JpXskft2dcrQvz/fdJWJSVmHrYt4Jq6jzu4hX20UuZOy9UqeptKkrOq/ovOqFzqvbRcyYYOsqDa38ri3wCryKQTDwyi5+gVcJi+D95FXf78vi+purKSP81ZW5Av31me/3Rmf+OhKxwCvwqrfxqtqABV6RvCJ5VbHkVQ/hldnBMNPooCIxFZeo0r5O8qoHklfgVXi/lb/DYPC2BzqvSF4VWNjuWPLKJLSWAcu1nQbN3+Ns59Uzcsy7vzIAwh9a/SvQPzb3Sm905tNtiAVegVfgVXUBC7wCr8Ar8MpKEutOOyXtBqyCC7yy23v1+BaRtmU5NfW4hfM51XVl0MpfJK90gAVe6UYKYxJT/thf1luSV3aTV+BVmuTVZ+VEbWv1RYR/QeWuQBtigVfgFXhl8KoHAYuxQbkcMqbIboMpRxIjRgYpbBdp272wR8YGSV7ZhauzYXBlnrOATXmcYxWMfDhy4Ra8Aq82iZjUVdcmrzbaT1QtKncePGESVlFrwD5AaTuuwo4jeZUAsJbHBs/I8b5XVA4++IO75wqsIhZ4BV6BVz5eVROwUqevwCvwymYHlot4ZbqwEvRetSGTGfHLY4FXunFCxgbFgFVwtaWuwKu1VJUGx8Ar8Aq8Ei1GJT0uEq4YG5QF7Yiiq2ODfbOyuP6F3SMh/EsqewWWEas+82lvGbGmxauXvabEq1teI1MhQNXpuQPijZS99os3kmB1BKj94qV+/b3i3V/2elC8+x8U763p1vVUVRCo4u5/0JX/0HJl10W5uks6LvDK7uhgVZJXl2zCk41zgVd66AKvwKsWlAoCVaf74FVgBFCDVa3HgFfgFXgFXtF5pd9psCZy3PsyfVeu/DLk71i9AiuINf1p8MqgVtlwZT4/AVyZY1PjVNx7y4Yr8/mF41W1EljgFXjlRO8VeAVetfRdMTbYnJrqhFLa18Ar8Op0sFg9r/sZOq9O3yq63QOTHhdAJ3/sL+vtyU2i67aKOs7FzivGBiVsTLD1OcYGk4wNnpMTr/3RVTTgDlfApSvQP7b/lV69TMSynLoyKS6SVxlwq2fxqjqABV6BV+CVyEUzIhi2GBsUVaF7CDwFi9fT3qew3S5gheKVo6ODdF6JnNmsWLeJnFGsQtDKxzDwSo9aBQBWosJ28Aq8Mmkpa+tZWfAekEf6X+CSV/C3cAXarkB/ffbVXn36r4pPYoFXK8kvkldr44qlJK/80UL3RwjBK/DKCbwyo4cR6atQVAqDpjye60K8urBNdCCV5DjwSs5ulfiVctxPm6yKOw68InlVCGKBV+CVsqQ92ItF55Xou62iOrCc67z6jCzUdrVBAU9wBVy9An3j06/w6tMXi0Ms8Aq8ak17lYpX7iewwCvwCryKSF0ZDAOvdNAFXsXDlcEt8Eq9uyHJK0XqyiSzFKkrc0whaOV/DngFXqXAKwNZkYDFboM62HIMrxZqD8sj/d/lqlPwd3EFIq9Af/0PvsUbmf5o/ogFXoFXzuGV9L31D9xNYIFX4BV4BV6pRgM7JbHAq0rglcGz0PTVHaJGpccLOha8Aq9OJe216nS8i51XpguLscGmAnjwKmP6yim8+ooseG+T+T03RQIBL3AFXL8Cd7/l3c+rjUzP54dY4BV45SReuQtY4BV4BV6BV+CVyLmt6ZdqZNAfK3QxfVUQSCWBL/AKvLKKVwa2LANW5sJ28KoJrkheZYQrM0roFF59VBb7X+m6TfD3cQVUV2DPnvmbvNHp37WPWOAVeOUsXrkJWOCVXby6vEPkUnDdI3LJxWU6plxbdF7pdhzcJmJ6q7KszFjVmsIieaVLXrk6OgheiQrLNos81rJUpeqa4vW0xzA2qN+dELwSVXl7ypG/YH9V2vskrzICljN49Tk55t0vsu5GFQxwEFegSlfAq8/c79Wnv2EHssArd/CqFZHKelx655VBq+Bya4QQvAKvnEEs8Aq8akGwrtttELxSjyeqMOn2jAXsSd/fAlcGsqqCV4X2XrnYeUXySgdXJe42SPIqI1w5lbz6IznmfXeVPIK/lSuQ+Ap4I9M/7dWnv5oNscAr8KoVyZzDK/cSWKkAa6fIlQLX5Z0isWuHfYgySaqki+RVylQXeAVegVe5l7rTeZUBvMArXfE7eEVhe8r0FsmrjIDlQvKq/1NyzPuJxBDAG7gCVb0C3tiB9V59+sl0iAVegVeVwKsuAKwC4cogWSxcmWNSQFMe7wGvehOvzM6EF4pYGUcGzbhhT4wN3pm+wypp/xWdV/YL30leKVNdyrHBQpNXZtfBDIBlvevKL3JnbFCXvkoJT2lHBYPvA68y4lVL+up4TaTY9Ywcr/2OLK7/p1V1CP5urkDqK7B+bO6lXn36Q8kQC7wCryqDVxUHLPAqEsua8Mr0X9F5pevXqnjyCrwSOd+SnMr6ONPYIHgVmuIieUXy6rTBpbwXeKVLXxWw26DZ0VDVdeUfB17JiQHpuBYGLCCTgaY8ViB9VSxciRyrfUge6X916h//vJEr0A1XwJS7941MvcOrTz8bD1ngFXhVKbyqMGCBV+CV7cJ38EqX3CJ5JWrUyrCDYG7pK3YbVPVekbwieWU9gdWjySvwqjNExUFV2OvgVVii64Ic8+7pBnvg38AVsHYFvPrUoFef+lw0YoFX4FXl8KqigAVegVfglZi0VXAxNmg3faVGKpOyClvgVVv6iuQVyavcU1eMDepSV5tEDCwVsUhe2QUs8KoVrz6zvLvg/J6brP3o50RcgW66Aq+9f+aHvPr0uXbEAq/Aq0riVQUBq2C8UvVeudh5xdigbmTQQBjJK5JXLWOHoSAVhlRRz4FX4FXSHQU7He9iYbvZ8VDZe1UIWvnjiIwN6gALvJLKdl65OjoYGBtcKKTz6ktyvPYOOeb9k26yBv4tXIFcroD3ltl/4o1Oza0hFngFXlUWryoGWC7ilSOl7XReUdieawLLxbFBUwLfAk82HoNX0oZPZzOOHZK8spu8eszgUdkLvBLViCFjg7ruKzqvOvZdmTHC5eQVeCXHa1+Shf7/Ih/b8J25/NDnpFyBbr4CfaPTe7z61Ge8umXAGpkSL9E6ICuAVObtfvFGEqz794tnfbUiUlmPHxTv/gfFe2u61ffWByX7+gMDU9r1QVf+n8qVXRflyi4JX+AVY4OMDTaNDPZ0YTt4JeodBzPiE3iVAZ86pao0r4Ukr8CriPJ3klckr1IgWKV2G+x5vPp7OVZ7lyyu/w5Xfrfwd3AFKnkFvPvnvs0bmfqANcRKBFcGuspEK/+zE8CVQS7rcGXOWRZWtX5u5fCqIgks8Aq8KgivzDjhxbJWS6dVsN8q7H6uiavtsjJWSPIqvN8qbHSQscG25BbJqwz4BV7pdykEr8Ar8Cqf3QTjdigsZGzwC8ujgo/0f0slsYA/mivg6hXoGz3wRq8+9feZIAu8SolbrYhU1uNK4lUFAAu8Aq/Aq3KSVwaxMgLWeZOUsr0YG9Slr0heVXe3QZPOCgEsxgZD0lc9gFenTOF61kXnla7zaoPdwvWwHQSTPNfbY4OfleO1ffLRjS9x9fc/fxdXoPJXoDay/+V99amPpEIs8Aq8yjw6qB4ZbB0tdHyEsGDAumw6reKWA6XtdF7Z7bwieXU9ceUnr8ArklcZAIzkVYbkFXhF8qqlNwu8kiZ8Cpavp7kfOTYIXulTXLkmr87LgvcmeXjziyuPA/wDuAJVuAJ79szf5NWnxxKlscAr8Ko8vHI8gQVehaavwCvwKvfxwR5JXpnS90yl7YwNMjao6bJKcgzJKx1gkbzSpbJIXjXhV1XwarW0PW6Er4zXc8Grb8ix2odkobZLZN0NVfjNz9/IFei6K7Bh8sHv9OpT01596tmOiSzwCrwqF68cBizwCryyOTp4l4hJWYUtOq9a0lfglQ61wCvwKglMaY4Fr8CrQPqK5FVvJq96C6/+ernf6i8G/kXXYQD/IK5AVa9Af336ttro1NlQxAKvwKvy8cpRwAKvwKtuxytTFJ+gtD33xJU/OghegVcpRwerMjb4+B0Zx/s0EJXmGPAKvOp2vNpoF6SSjA+SvBL9eGBUqsta8upZOV77qCzUXi9X7n5eVX/j83dzBbr6Cmze9/BzvPrU/V596vOrkAVegVdu4JWDgAVegVfgVRNugVciZtTP5mJsUNrSU2dTwpV5H3iVEcXAK/AKvGoa9UuCU3HHgleu4NX55VL2xYHv6+of/vzjuALddAWWxwpHp+a8kalnvUSAdUC8kbLXfvFGEqz796cEqk7vK2t3wdbPrexugwarwpZDJe47L8qVAgErtqzdlLlT2C6X7pH4dbfIJZvwZONcESODpRa2k7zS70poGa18AAOvwKvH0iSk8noPeAVegVfg1YDI8o6D/3977x5m2VnX+TYJCCiCIJeBQeUmKkEQO+l9r9p1rwaieMY+jDoHhUcZVEh3RseMzsAJXhmPehBHBSHpTuYBtBUQIyq2nGQUktrXuld1CAwjFzEi9wiBkHzPvFW9uvfetXftd631rttenz/eZ+3avW7707vrXf15vr/fOyr9lOT7oZJXH9dK8be1UqhO0v/p+SwQyB2B0rWnv7t46qazdhIraXFlru9DXJl9kVcqXHPD0HEsdOrqhmECKux7+RRYyCsLKWUjrsw+yCtZ99GibNBOYCGvtDmv8SNEaipM4so7luQVyavVadkJqDD7hWjYvjoldaMYPdKp6+j1RPa8omxQpqfVuDFZ8sr0tXqzVgoz0pHLcvcffT4wBCaZQOE/nC4Wr73pltEiC3m1L8MGE1BJ/TxxyStPfOVPYCGvkFfWwskkplwN5BXyyqLxu5W4MnIrjfLKlBPOpm+kKnHlJblIXtmJL+SV3WqDNakTw4qDbSOk/IxKMn2vKBuMuWyw9OG9pFWrOK9b6w+e5P+/89kgAIEjR44UrrmpWjh18639Igt5hbwyaaveMbT8z5NQYbb5EljIqwmXV6b0cETpoDMRFURoTaC82lmUnZDysx/Jq/GpK+SVL0mGvJLW6hZjWlqzGLEkrry0FvIKeRVQgI0UWBZpqHFpKZd/nt3k1X1aKb5fjeJ1ahx7Jv+hhwAEckqgeOqm44VTNzWS73dF2WDhZG/Ka2KTV570yo/AQl4hrxKRWMgrO9GFvEJeOU5vIa8sxJWRWxbiyuyDvJJclQt65wldNkjy6kD/LORVyPTV0J5X96lRbGql+BtqFq/WrfVH5PS/63xsCEBgGIHCNWeOFk7ddHPh1Jn7kpFZ9Ly6JLAmXl4ZiZUPgYW8Ql4hr6S9FQ0XJZOeCjO2/aSqbPZFXmVCXmVpxUHkFfLKae8rR32uPHFltsgr9+WFyCtX8uo+NYvtvbLARumE/q766GH/Z+U9CEAAAn0Ejp76708snjp9feHUmX+OT2Qhr3Imr/IhsJBXyCvkFfLK1+qDFr2qthztY93zKq2lg45TUy56aCGvkFdO5ZVpAu9YYCGvkFfNJFcW7Lv2A2qU7lKrePZCSeCs2ke/vu8/pfwAAQhAwA+B+vWnH3bs5JmXFE6d2YpWZCGvciivdOxVE57Ayoq8+uALpDt7h+0KgHHvZ3pMpW3Q82o/WbV0QVKN2oZMXdHzSnIlrbzzIK/cN3xHXiGvkFduGrr7atae4GqD7YpE8spP8uof1Czdokb5+r1ywPbRx/r5fyn7QgACEPBBQA86durG2cKpM6cLp8583q3MQl7lVF5NtsBCXjlMXhlRljZxRcN2O3FlhBbySlYJLEepKk9QHbZFXiGvrJqr2zRg97uPZc+rWPtepbFhO8kr+xUHAzZbN/Ip7EBeDZNXn1Gz1FajdLMa5etkygBXCkdJVvn4bze7QgACbgmYVFbx2tNXF0/ddLZw6sxXw8ks5FWO5dXkCizkFfKKskHKBq2k1YL25RbySqbH1eDYmJMODMoGZZX0qkvrAyMxaeVJLuSVrBNalA3aCSwHEiqoxMqnvPonNUsbahTfo0bpBjVLr1Wj+Iq9NFWr9Dxt0WDd7f+6ORsEIOCcQPlnb3588eSZawqnzgRYwRB5lXN5NZkCC3mFvEq7vNodVebn+n2SV3bJKyOxjMBa+Jg258+lZ8yd02aCY2PunA6MmXPaSNlYnzmn1I36Oa2nbUyf07rlWJ0+p9hG7ZxWA45u7ZyyMDq1cwo9qufUSduonFMnodGqnFMWRrNyTs1Szyj/tVqlsxfHvoR6k1ql31er+Lr9xFTxFWqVfkityvPVLJXVrFyhlcKTddfxhzr/jyQnhAAEIJAkgcLJNz/B9Mu6kMwaU2aIvEJevWXyBFZm5ZXpfxV3Pyub61E2KCsZtiQZKWU79lYDdC2rBs+HvPInr/YSWL+b5BzOtSEAAQhAAAIQgAAEIJBLAvXrb31w4ZqbqsdOnX5d4dSZdn+ZIfIKebUnryZLYCGvHEsw5BXyalHadjUWpO0Ihq8yQa9csHfbVzqIwMrlExMfGgIQgAAEIAABCEAgVQRK1/73ZxROnX7ZsVNn3lw8dWazcOr0/YVTFiLr5GkVnI8bdUkgJfn6BhVO3qDCNcHGsWtuUPjxFh27JobxqovCykir3vHetHxRddcLd3XXCxVoIK+QV1ZJqWXZSSnb/XykrigbdC+w3MorU0aIwErLhMB9QAACEIAABCAAAQhAwCNQ/6nffUThmhuqxZOnrytee+aWY6dO/9MBoeVcXBkZlqSw6r028mpfZP1BTgTWC6QPpmDcaUoFe4dNGV/c+5C8spNcyCv7dFbqk1cXemAhsLxnBLYQgAAEIAABCEAAAhBINYHqT7710UZqFU6defmxk6dfVzx55pbCydMfLpw8fb+bFFavQEryNfJqX169WcdeNQECKyvpqz5xRc8rnbcVZcvS+SEjkcSVl8xCXk2gvCKBleonFG4OAhCAAAQgAAEIQAACFgT201pnjhavPX118eTpnyicPPOa4skzv1M4efodhZOn3184eeauwsnT9xwuuZIUVr3XRl5dklcTILCQVw5LB22FUpz7DRFXRmYhr6S+RvBpbNhuemdlJnlFAsviWYBdIAABCEAAAhCAAAQgMFEEjr/qDQ81Sa7aq2583JWnbnxa+VVnnl645szRdIw3Hy1cw+hn8MZvT8sX0HcPLORVPuVVogKL5NWEJq8QWGmZCLgPCEAAAhCAAAQgAAEIQAACaSfgS2Ahr5BXsaew0iivlqSdkOkrZ6sM9q5WmLnkFQIr7RME9wcBCEAAAhCAAAQgAAEIQCAtBKwFFvIKeYW8ulBCmBN5ZUoRQ604OO8JqnFbViFMy4TAfUAAAhCAAAQgAAEIQAACEEgrASuBhbxCXiGvkFe+ZJa1vDJyC4GV1gmC+4IABCAAAQhAAAIQgAAEIJAWAmMFFvIKeYW8Ql5FJ68QWGmZDLgPCEAAAhCAAAQgAAEIQAACaSZwqMBCXiGvYpdXZrVDH32v+lYFNL2pohqUDdqVE/pKXnmlhSSw0jxJcG8QgAAEIAABCEAAAhCAAATSQGCkwEJeIa+QVySvok1eIbDSMAlwDxCAAAQgAAEIQAACEIAABLJAYKjAQl65lVd3HpfOp2ksS+dHjESklUldkbyS9cqEEaw2GF/Ddk9a9W5JYGVhsuAeIQABCEAAAhCAAAQgAAEIJEnggMBCXiGvEpFYlA3aCayJk1dGZCGwkpwEuDYEIAABCEAAAhCAAAQgAIEsEOgTWMirCZdXJgVG8squT1bInlc7i7ITUn72m0h5hcDKwkTBPUIAAhCAAAQgAAEIQAACEEiawEWBhbxCXpG8ctPzCnnVWx5o85oEVtITAdeHAAQgAAEIQAACEIAABCCQdgJ7Agt5hbxCXiGv4mnYPkxoIbDSPlFwfxCAAAQgAAEIQAACEIAABJImoA++cFdjBdYLpA8mPO58gdQ3nu9QOrk613EpdQ3bKRu0KxlckkxyKuywbsRuWzo4sWWDvSILgZX0RMD1IQABCEAAAhCAAAQgAAEIpJ3AeIGVsLgy4qxPXJmfXQkn1+dJ00qD3r3Q88pOYCGvZJXAmu8VT65eI7DSPlFwfxCAAAQgAAEIQAACEIAABJImcLjASoG8OiCwXEsnV+fzhFGatsgr5NVAgstKUi1ouMyKRF4ZCYbASnoi4PoQgAAEIAABCEAAAhCAAATSTmC0wEJe2Se90iStvHtBXiGvMiGvVqhMpQAAIABJREFUEFhpnyS4PwhAAAIQgAAEIAABCEAAAmkgMFxgIa+QV8uS08buS9Ku5dgx/ajiGJQNDk9aDSawIkteeSWIJLDSMBlwDxCAAAQgAAEIQAACEIAABNJM4KDAQl4hrxKUV0ZyIa+k7YH0VJifQ5UNGpmFwErz73DuDQIQgAAEIAABCEAAAhCAQC4I9AusNMqrtDZt90r10rTNeNkg8sqtuDLSK/3yihLCXMw0fEgIQAACEIAABCAAAQhAAAIhCVwSWMgrklckr7RjUVa4vSg5HQ7TVr1JrWzIKwRWyN/hHA4BCEAAAhCAAAQgAAEIQCAXBPYFFvIKeYW8Ql71JrYiLxu8VJq4ySqEuZhs+JAQgAAEIAABCEAAAhCAAATCENAHX7CrD6ZAYN1pSgV7x/NlL5Xi2jdN5YLevVA2aNczyyJZNS595TR15aW4IkhfZSd5JW3Om0ET9zC/xDkWAhCAAAQgAAEIQAACEIBAHgikQmD1iSt6Xum8J6fGbZFXyKsBAZY9eYXAysNEw2eEAAQgAAEIQAACEIAABCAQlkDiAgt5JXth1Su0kFfIq4mQVwissL/EOR4CEIAABCAAAQhAAAIQgEAeCCQqsJBXbuXVedd9rPycb0kyqwjajp0l2QmoMPtRNmi/CmGsPa+80kFvSwlhHiYbPiMEIAABCEAAAhCAAAQgAIEwBBITWMgr5FXkEiukwKLn1aVG61uOBNd+zytPXHlbBFaYX+IcCwEIQAACEIAABCAAAQhAIA8EEhFYyCvkFfJK2h4oAQz6c6i+V47ElI3gGi6vjMRCYOVhsuEzQgACEIAABCAAAQhAAAIQCEMgdoGFvEJeIa+QV/0yC4EV5pc4x0IAAhCAAAQgAAEIQAACEMgDgVgFFvIKeYW8Ql71yysSWHmYaPiMEIAABCAAAQhAAAIQgAAEwhKITWAhryZIXpnm7mlr2G6aveek55UpNcx+2aDX/wqBFfaXOMdDAAIQgAAEIAABCEAAAhDIA4FYBFZW5NWdxwNKpqiOW5bMyoLDxq6fFQJd74u8klWDd0c9rgZ7Y02WvJI25yghzMNkw2eEAAQgAAEIQAACEIAABCAQhkDkAgt5FVCKjRBXRmYhr6S+UkSSV3aJrFQ0bO9NXhl5hcAK8wucYyEAAQhAAAIQgAAEIAABCOSFQKQCC3mFvOoTTabMz/VAXmVcXiGw8jLZ8DkhAAEIQAACEIAABCAAAQiEIRCZwEJeBZRXphxxRPqK5NWAAAspr0zPLKtSQD/7UTaog03aB1JX817yyttSQhjmlzjHQgACEIAABCAAAQhAAAIQyAOBSAQW8gp55TxpNZjcQl5NQPIKgZWHSYbPCAEIQAACEIAABCAAAQhAwAUB5wILeYW8Ql5Jg43Xg/48eQ3bPWmVzHZjTho6ZqWNlI31GSl1oy6tD4y1upTomJbWLMbqtBTbmJJWQ4zulOR81KSu49GpSaFHVepEPNpVyXZ0qre5eLbiHBCAAAQgAAEIQAACERBwKrCQV8gr5BXyamQJ4V7D9mTE1X6zeORVKCE2IK6MyEpUXJnrW4grs09s4spcK4S4Msc6F1fmnI7FlTlfaHFlzhGxuDLntxVX3n6dMgIrgmdNTgkBCEAAAhCAAAScEHAmsDIhr54v3Wl6TKVt0PPKrrk7ZYPZLRs80PcqfpFF8ipEogt5ZSfB0iivIhBYkyqv2hUJgeXk2ZKTQAACEIAABCAAgUgIRCOwjChK40ibuKJhu524Mv2vkFfIqxAJLuQV8iryFBbyyj6VlcLklZFXCKxInjM5KQQgAAEIQAACEHBGwInA6ktfpVFckbyS9QqGS9Ku5Yi8XNBr3I68Ql4hr5Lph5Xh5FWspYPIq4mQVwgsZ8+WnAgCEIAABCAAAQhEQiC0wEJeBSxJzHjZoJFcsQgs5BXyCnmFvPL6bVn2vEJeue97Ncllg176CoEVyXMmJ4UABCAAAQhAAALOCIQSWH3y6gWUDVr31kJe2ckv5JWdvFqQtubjGSMbtJseV4MjhHjymq6H2VI2mM+ywVjlVcim7ZE0bM9xzyvfTdsvlA0isJw9U3IiCEAAAhCAAAQgECmBwAILeUXyKtIEFvIKeRVCgCGvkFeR97xCXqWqbNCFvCKBFenzJieHAAQgAAEIQAACoQkEEljIK+QV8kraXgg/tkx6KsyIKXllEl4HElaj3gshnsIkrrxjkVfIK+SVmxLCrJQNupJXCKzQz5ScAAIQgAAEIAABCERKwLfAQl4hr5BX4cWVkV+hxFWMZYPIK2lj1u1YnwkhmaI6lobtshZfIZq2UzYoGeHkcrSrkvUYUjZICWGkz5mcHAIQgAAEIAABCDgj4EtgIa+QV7mTV4tuZNVgWgt5JXmJKVdbklchpFga5ZVp3G7ZtN1aPJmyv7ADeWVXOuhYUo0SXtbiykiuMfKKBJazZ0tOBAEIQAACEIAABCIhYC2wkFfIK+SVG5mFvEJepSqBNURerXur/iW5RV7JKq1Vc1Mu2L1wnjyWDfaKrU75tkgetjgpBCAAAQhAAAIQgEB4AlYCC3mFvEJeIa9G9sCi55VViWGqpJVXhoi8sk9kkbya6OSVJ7EQWOEfLDkDBCAAAQhAAAIQiIrAWIGFvHIrr84vS7tJjSVp18eIVFotSXvnT+Nqg5QN0rA9pz2vSF6NKDHMgbwyCazQ6auMlg168ooSwqgeNTkvBCAAAQhAAAIQcEPgUIGFvEJeRS6xQgqsbSObXA8HqwvS88p9meBgryx6XoXoeWUSWEPSV2tJlgzS88quZHDKbcmgs9LBCZBXCCw3D5acBQIQgAAEIAABCERFYKTAQl4hr5BXbsoGQ684OC+ZlQDjGCPLBOfVn8qibDC7ZYPIK8oGB/pmkby61OCdEsKoHjc5LwQgAAEIQAACEAhPYKjAQl4hr5BXyKuRMgt5hbxyndSiYbtd+mpAPHnpqTBb5NUleUUCK/xDJWeAAAQgAAEIQAACURI4ILCQV8gr5BXyCnklK0m1MaJXViobtpO8Ink1IMCQV/3yCoEV5eMm54YABCAAAQhAAALhCfQJLOTVBMkr0yg+bQ3bTeP2nPS8omzQfQ+srPS8MlIrlQKLnld2AouG7XbN3NPY86p6UEgZKeVnUEIY/sGSM0AAAhCAAAQgAIGoCFwUWFmRV3ceDyiZojpuWTIrCw4bia02iLyyb+weQcN25BXyKnUCC3mFvOpJX01k8sqBvCKBFdWjJueFAAQgAAEIQAACbgjsCSzkVUApNkJcGZmFvJL6ShFJXmlrQeNHTM3aTUP4kWWCg39GzyvrcsLUiSvKBu3E1bS0GiJ5ZY7tRjF6pFOYPle9xyKvDk9kkcBy83DJWSAAAQhAAAIQgEAUBHTnC3bVJ7CeL92ZtnFcInllKcUoG7RLX5G8shNYaZRXc+H6U43qWxX2feSVtGbT3H3CGrbnSl7VpE4MpYNtk6byM3yWCR5WUojAiuJRk3NCAAIQgAAEIAABNwT6BVbaxJW5nzTKK1OOOCJ9RfLKbfLK9Mzadj2QV8irEc3Xg0os5BXyymkCK43JqxzIK0oI3TxYchYIQAACEIAABCAQFYFLAgt5pfO2fbKQV/3lgaY5+7ARsmwQeSWZUj+XI9NlgySv7JvD0/PKrnSQskG7hu05kVcIrKgeNTkvBCAAAQhAAAIQcENgX2Ahr5BXwwRUmPeQV+P7XZmeWI4F1WHnQ165Lz0keUXyiuSVm7JCXyWDjhq2DyslpITQzcMlZ4EABCAAAQhAAAJRENCdz9+l5xXJq+EJqqACC3mFvArRO2vDJK0Gh+OSv6Clgr3HIa+QV07llWkC77h0MHTD9hwlrzyZhcCK4lGTc0IAAhCAAAQgAAE3BFIrsKzL+WzlU9j9KBu0k1zIq+zKK7P6YAjx5OLYA+KKskHKBs0KgS5HGssGkVf2TdsdNmz3pFXvFoHl5uGSs0AAAhCAAAQgAIEoCKRPYIUVTVEcj7xCXg00ft8y5X9BRxrLBpFX6k1XHfaa5JXb5NWaSzk17lzIK3pejRFgCKwoHjU5JwQgAAEIQAACEHBDIF0CKwr5FPacyCvkFfIq8mQWySvZJ61mBvbNcMN25BVlg9a9r8aIp94UVZjXCCw3D5ecBQIQgAAEIAABCERBID0CK6xoiuL4jMur3aA9rPweR9mgXRqL5NVQEYa8GhBSg4LqsJ+RV3blhSSvSF5ZCjAEVhSPmpwTAhCAAAQgAAEIuCGQDoEVhXwKe07kFckrl8mrGFcctF5tkLJBygbrluWAtvtNSyZVZTOc9rWKsHTQeaN20+8qxz2vOmYFQT/DUjyFSV31HovAcvNwyVkgAAEIQAACEIBAFASSF1hhRVMUxyOvkFfIq6FpKReN2r1zkLwieRWLxAqRvkJeSUY4uRxplldGZCGwonjU5JwQgAAEIAABCEDADYFkBVYU8insOZFXyKuMyqstk6iyHaw2aJW+omG7ZULLMnUVa88rk8pCXtmVDjqWVKOEV9rlFQLLzYMlZ4EABCAAAQhAAAJREUhOYIUVTVEcj7xCXiGvSF7Nak9uIa+QV84TWDW3Tds7NdkJqsP2Q16pt4SwVb4tquctzgsBCEAAAhCAAAQgEJJAMgIrCvkU9pzIq+zKq0Vpe0A8ufh5y/StCjPS2LSd5BXJK9t+Vrb7WaavYikX9HphkbyyE1vIq355VZEQWCGfKjkcAhCAAAQgAAEIREggfoEVVjRFcTzyCnk1IMBCiasYG7ZTNrifltq4kJpysc1K8mrdVjBFuR/yar8hu9eYfdSW5JVd4/aYG7b3Ja+MvEJgRfi4yakhAAEIQAACEIBAeALxCqwo5FPYc46QV+eXpd2kxpK062PsLMlOQIXZb1HaCTm2TVLK9RgQTySvRvTBInk1Uckr5JU0NNFF8orkVQAJtieuEFjhnyg5AwQgAAEIQAACEIiYQHwCK6xoiuJ45JWd+Aoproz4ci6uKBukYbvD1JVJbpG8sux5ZRJdJK8SSV51D+tlZftnlA0eLBv05BUJrIgfOTk9BCAAAQhAAAIQCEcgHoEVhXwKe07klZ28MqmtkAILeSWZUj+Xg9UG3ZYOplJezUgmaTU41qIsCbQ5N/IKeTVGgmVhtUFTPtiXvPJ+pol7uKdKjoYABCAAAQhAAAIREoheYIUVTVEcj7xCXg0pPQzV98qxoDpMdiGvkFeJSSzkFfJqkuUVCawIHzc5NQQgAAEIQAACEAhPIFqBFYV8CntO5BXyCnmlzYh7Ym3MSQeG45K/iW3YTvJqeH8rb4XB3m0Oel5RNqi+kr/exutBXw9NXpHACv9EyRkgAAEIQAACEIBAxASiE1hhRVMUxyOvkFfIK+RVj0hLZekgZYN2Agt5ld2G7VX3UspWZh0ur6QWJYQRP3ZyeghAAAIQgAAEIBCcQDQCKwr5FPacaZRXZpXDtK02mKOeV2bFQsoG5VRoHUhdmSRWjzBK02vklWXTdsoGKRt0WTaYanmFwAr+OMmREIAABCAAAQhAIHoC7gXWcenOsLLJ9fHIK5JXJK+ciqphJYjIq5ArGZK8InlVk0zJ4MSWDaZeXiGwon/s5AoQgAAEIAABCEAgOAG3Agt5pV2TqrIZJK9ktTrhEPFkklNhB8krklepSmAhryKXV6tTsktS+d2vRzp58instlOTXXngqP3GJKY6jv7c12qDmZBXCKzgj5McCQEIQAACEIAABKIn4E5gIa/sxBVlg3biajG8pBoluZBXMcirlJYOpkpamWbtNGy3E1emcXuInle5kldGajkSVIedZzLlFQIr+sdOrgABCEAAAhCAAASCE3AjsNIor0wZ4ojSQauElE2KKsg+E5i82jGyyfVwkLIaJrCQV8irVEkskld2Agt5ZZ/IQl5dXLVwfMN2I6wGx23Bn6g4EgIQgAAEIAABCEAgUgLhBRbyKtfJK+SVtDXvdmzOS1Zjzq2MGtbX6rD3hva8Inm1n6ry0lWHbZFXyKue8sPQZYMkry6KK29FwpEC64C06pVYCKxInzo5OQQgAAEIQAACEAhBIJzAQl4hr0heORVYVuLKCK6E5ZW5/lCBlcIVB1OVuPKEFvIKeYW8OiCcPPHkYhtMXlFCGOJ5kkMhAAEIQAACEIBA5ASCCyzkFfIKeYW86hVZyCu79BXyCnmFvEqpvEJgRf7UyQUgAAEIQAACEIBACAKhBNZ502cqTYOeV9pZ0vixKJnSvzCDnlcJlQ2mIH1F8upC83UvTeVni7zKrrwyqxP2iCcXrykblHORFTx55ZURUkIY4pmSQyEAAQhAAAIQgECkBIIJrDRJK+9ekFfjxZWRWyHFFT2v3Ior0z/LumwQeaUNy5QXZYPSWt1iTEtrlmPVrAQYx0hjw3bklaxXHay4l1K2JYXh5RUJrEifODk5BCAAAQhAAAIQCEnAv8DyhFGatsgr5NXAqoUTt9og8gp5ZSOk/OxjKa6M4IpFXJnrIK9YbTCgAHMjrxBYIZ8pORwCEIAABCAAAQhESsCfwEqTtPLuJePyatem5M/FPiSvZC21HK8qOGqVQpJXspZSJK8s0lRZl1chBVbXpKSiGJQN2qWvAoon23TVYfu5k1cIrEifODk5BCAAAQhAAAIQCEnAXmB5wihNW+QVySuXyasF9+WByCv3kmqUzKJs0FJypTF5hbxKVfKqU5WdtPL2mxh5hcAK+UzJ4RCAAAQgAAEIQCBSAnYCK03SyrsX5BXyCnmlzTlFOmjYns+G7bGWDSKvkFcBBZjb5JWRVwisSJ84OTkEIAABCEAAAhAISWC8wPKEUZq2yCvkVUblla+m7RHLqXHyC3mFvIql91WIvleRlAzmuGF7vpNXCKyQz5McDgEIQAACEIAABCIncLjASpO08u4FeYW8Ql5FmroyYgt5NWHyyvTHsiwdjEVamdQVySuSV6lKXiGwIn/i5AIQgAAEIAABCEAgJIHRAssTRmnaIq+yK68Wpe0B8eTiZ+vG7Ka/1bARU8N2klfue2FlpefVup/m6lHti7yya/Ce04btJK88eUUJYchnSg6HAAQgAAEIQAACkRIYLrDSJK28e0FeIa8GBNhQITVMUo16D3l1IMlF8spt8gp5dSFp5SWuvC1lg3bpq6pk5FLUo+01Y7fZBkxNHbaKoO2fRdPzqldeIbAifeLk5BCAAAQgAAEIQCAkgYMCyxNGadqOkFfnl6XdpMaStOtj7CzJTkCF2W9R2gk5tk1SyvUYEE8kr6TN+SGDnlcatcJg7/skryxXG6Rs0C51Rc8r+xUHJ15eIbBCPlNyOAQgAAEIQAACEIiUQL/ASpO08u4FeWUnvkKKKyO+nIsrygaHiyrklZWo6pVW3mvkFfLKeeN2x2WD3Zrs0lWH7RdD6moiygYrg+kpFz/fFulDFyeHAAQgAAEIQAACEAhO4JLA8oRRmrbIKzt5ZVJbIQUW8koyfapcjqEpK+TVZMmrGcmUCQ6Otah6Wdmel55Xdukr5JVd+iqNyatI5BUJrOCPkxwJAQhAAAIQgAAEoiewL7DSJK28e0FeIa+GlB6G6nvlWFAdJruQV26btqcyeYW82l9J0Otrddg2Bz2vSF5Jtr2sbPcb2fMqMnmFwIr+sZMrQAACEIAABCAAgeAE9gTWeU8apWWLvEJeIa8ONFjfdNwji4btIRq2I6+QVwPprc5hJYE2f0bZYJ8AS0ZeIbCCP05yJAQgAAEIQAACEIiegM4/f1epEljIK+QV8gp5NXspwZXK9BVlg3YCi+SVXT+sNMorsyJhQqWDyckrBFb0j51cAQIQgAAEIAABCAQnkC6BlUZ5ZVY5TNtqgznqeWVWLKRsUE6FVlaSV6ZxO/LKsmk7Pa/oeTVGgrWNkPIzcimvEFjBHyc5EgIQgAAEIAABCERPID0CC3lF8orklVNRNazkEHkVUoqRvCJ51VM6OJFlg7lNXhl5hcCK/rGTK0AAAhCAAAQgAIHgBNIhsJBXyCvkFfKKskH5Xr1wwpJXq1OyS1L53a9HOplm6y4G8sptiWGyZYOevEJgBX+c5EgIQAACEIAABCAQPYHkBRbyCnmFvEpGXs1d6jNlyvXSMigbzGfZYK7klWnqPqbkz8Wf+yoZzH3yypNYt0X/5MUVIAABCEAAAhCAAAQCEUitwNo1vaeSGhPY82pnUdp2PYaIJ9OzKuyg51UMPa+QV/b9tSgbjLxsEHnlXmghrzwh5XeLwAr0NMlBEIAABCAAAQhAIAYCyQqsEemrxMTVhDZsR15JW/Nux+a8ZDXm3MqoYX2tDntvaM8r5BXyalp2Usp2vxCrDSKv8iuvzCqHI0sH9/pR+ZVPLvZHYMXw7MklIAABCEAAAhCAQCACyQks5JVd6eCiZARUmEHyKp/yyoitoQIrReWCXtkiZYOUDXb99rU6bH9ffa4eULf2MXVr6+rWPqBu9a/VnTqr1dqN6tbOqFv7Y3Vr59SZukOd2oY6tU8ocP8rygZlpJU30ievjABDYAV6muQgCEAAAhCAAAQgEAOBZAQW8gp5NVBqOHFlgyahlcb0FfLKLn1F2aBdQiuNySsjtkYKrL9Xt/pWdaf+i1arJ9StPle3lx7ud6rVVv0Rate+V93qD6kzdf2e8OrUPnm42EJeXRRX6UxeeektBJbffxDsDwEIQAACEIAABOIiEL/AQl4hr5BXkcstkleyE1UzQ/ZDXk2QvPqkurW3abX242qXnx71vKpu7VnqTP20OtV3qFP750tCC3mVEXlFAivqfyScHwIQgAAEIAABCIQhEK/AQl4hr5BXyKsLKTDKBt2WDa7Z9qtysV+qk1df2k9EVa/W2ROXh5kfwxxrrq1udV6d6s3qVO+JdNXBrDRsT3fyigRWmC88x0IAAhCAAAQgAIE4CMQnsJBXyCvkFfIKeaW1uqW4MvtN249VF2LK5hxplVfVv9bq1A8HKQmMeq5Ve/5R6lZfpk71A85FFvLKE0+utpQQRv0PgvNDAAIQgAAEIACBoATiEVgZl1e7S7KTT2H3C9msPTerDS64bcp+2AqFVisNeisS0vNKXlP2w7YkrywFVhrllRFcIQSW00bte03c79fq9C1aqx0LOgfGfZzalao61VvUqT4QWmYhr1xJq0vnadLEPe5/E1wPAhCAAAQgAAEIWBOIXmAhr+zkF/JK1o3c5+MRWMgrWQmpw2TV4J8hr5BXbiTWfepO3aTO1HdZT3Yp21HdypXqVN8ZSmT5Elg9q/95qwDGtU3naoOXpFWrvP+6WZaaJRJYKfu3wu1AAAIQgAAEIACBiwSiFVjIK+SVy7LBGJNXJpVlLbBIXlmJLuQV8sqNvGqpW7/y4iSW8RcXRFbLdxoLeXVQQHkiKsh2X14hsDL+74nbhwAEIAABCEBgwglEJ7CQV8gr5BU9r+h5lf2eV6kpG/y0VqdOSkcum7RpWbfWH6x29aQ61c9biSzkVVTyCoE1af+4+DwQgAAEIAABCEwWgWgEFvIKeYW8Ql4hr/zJKx9N22Nr2J4SebVau1HbpcdM1ux78NOoW3mSOtV3HSqxkFcRyKu90kEjrxBYB7+WvAMBCEAAAhCAAATSQ8C9wEJeZVdeLUrbA+LJxc/Wva1MieCwEVPPK8oG89vzat3PyoBR7WvZtD1f8uqLWp36kfTMmPHciTrVl6tTvfeAyEJeRS2vEFjxfMW5CgQgAAEIQAACEAhGwK3AQl4hrwYE2FAhNUxSjXoPeXUgybUxJx0YF9JOg03Tk/w5Kz2vkFfSUCmW+GqD21qrXBFsZsv+UWrXvled2l0XJRbyKg55hcDK/j8dPgEEIAABCEAAApNMwJ3AGiGvzi9Lu0mNJWnXx9hZkp2ACrNfGlcbJHlFw3bHAgx5ZdmwnbJBDW/sfoNurT9skudem8+m9vyj1Km9W8iruOQVAsvmi8k+EIAABCAAAQhAICkCbgQW8spefIUUWNtGNrkeA6kpygZHrEDIaoPZXW1wRjJJq8GxFlU5oO15KRscIrBel9R8mMbr6uyJy9WpvtFOYlWkdkKjVZFGjrJbARVklUHvmL3VBvt6Xhlp1TtuS+P3gHuCAAQgAAEIQAACEDhy5Eh4gYW8Ql4NCDDKBnWg7G8zpPw6UDJoyggdp6ZcnC+VySvk1fASQdOgfXAkWjb4gLrT/4GJeTgBtavXHS6xEhJXRpiNFFfmzzIlr0hgDf/68S4EIAABCEAAAhBIB4FwAgt5hbwakFcmvRVKYNHz6oD8Ql5JocQYyauDompQXCW+2uBX1Jl6cTpmxfTehVqVV6pdvf+gyEJeWYmyvfRVX9qqN3nlvSaBld5/AtwZBCAAAQhAAAJ5JxBcYCGvkFfIqwOyKWzSavB45BXy6kBKaph8Cvteosmr+7U6fSLvc7Ht51e78op+gYW8ciivSGDZfhHZDwIQgAAEIAABCCRBIJjAQl4hr5BXyKueEsZQCSlT4hfFIHmVgeSV1J2+Jom5L8vXVLvy2ksSKyGBlZWyQVPCaJe8IoGV5X8U3DsEIAABCEAAAvkg4F9gpVFemVUO07baoFmpMCcN2ykbzG/PK9M3KxL5FFZoIa8yIq9ek4+Z1v2nVLvyBhq2W/TX8ievSGC5/6pyRghAAAIQgAAEIOCOgD+BhbwieUXyiuQVySv5Xr2Q1QaHrDb4++5msvydaW91wnb5XbFLrMlNXpHAyt8/Iz4xBCAAAQhAAAJZI2AvsJBXyCvkFfIKeZV7ebU6pSEyyu97TW096+uyNl+m7X61VX+E2pXzsUmsyZdXJLDS9iXnfiAAAQhAAAIQgEAvATuBhbxCXiGvkpFXc5Ip00vboGxQdiJrwpJXbuTVZ7U+9dTeeYjXwQmoU3uO2pUvRS6x8iGvEFjBv4ocCQEIQAACEIAABKInEEpg7ZreU0mNCex5ZXpmbbseQ8ST6VkVdmwtSIHHvLQV09icl6zGnPs+VoPcdEoWAAAgAElEQVQrCh7289DVBpFX9v216HkVec8rN/LqAXWm/o/oZ7Z8XUGd6k8nJ7As+lCZRupxDf89r7zSQW97W76+PXxaCEAAAhCAAAQgkCEC4wXWiPRVYuJqQhu2I6/cSy0rcWUEF/LKOuFF8orkVTdMCWHtDRmaHjN1q+pU/iQyiTUyfRWjmLIRYOHlFQmsTH3ruVkIQAACEIAABHJH4HCBhbyyKx0Mudog8iq/8srIs6HpK8oG7dJXJK8ykrwyPbI+ano25W6SjekDa6XwBLUrn3UusfIlrxBYMX1fuQwEIAABCEAAAhAIRGC0wEJeIa8GSg0DlwyacsOYSgbNdayTV2lNXyGvkFfTshNTNvtNSab8L+gIlbjqSWt1pn8g0CTFQdYE1Kq80qnAyp+8QmBZf9vYEQIQgAAEIAABCCRAYLjAQl4hr5BXkZcWkrySnaiaGbIfySs7wRVCXLnpeeWtTvhXCUxvubukdOQytasNJxIrn/IKgZW7fzV8YAhAAAIQgAAEMkXgoMBCXiGvkFfIqwspMHpeue15tWaTmHK1T2rk1b1aqz4zUxNjhm9W3cqValfuDyWx8iuvEFgZ/u5z6xCAAAQgAAEI5IBAv8BCXiGvkFfIK+SV1uqW4srsN20/Vl3JqXHnSY28MqWQv5WDqTRVH1Gd6tsDC6x8yysEVqq+ydwMBCAAAQhAAAIQGCBwSWBlXF7tLslOPoXdj4btsu6FFVPfK3peyXoVwQ3L/lokrywFVhrllZFbIQSWq55X++e5V2uz/3pg2uHHiAmoWbkiUAoLeYXAivi7yekhAAEIQAACEIBAKAL7Agt5ZSe/kFfIqzkFTmjR82pIL6th/a2GvZfhnlexlg2mSl6Z/ldvDDVBcXBgAupU3u0rhYW8MvIKgRX4G8eBEIAABCAAAQhAIAYCOr+8q/NDBNbuspTYWJJMosp27IRNVdkcj7xKnbzyteJgCPG06eBY5BXyKpbywdQkr4y8+po69WfEMI1xiSEE1CodsxZYyCtPXiGwhnyXeAsCEIAABCAAAQikhsBQgZWYuDLSzIe4omxQ2h7oWRX2Z+vywAUNF1oxlQ0irygb9NWnyk9Pq3H7UjYouzLDt6ZmosvpjahV/puxEitT8qrcK5qien1bTr8ufGwIQAACEIAABCCQfgIHBBbyaqCXVhqTV4vuxZURX8ir4OWBo1JaJK8mLHnlo2l7LIkrr5l7qpJXJn1lGtvPpH8GnOw7VKv6Q4cKLOTVMAmGwJrsfxZ8OghAAAIQgAAEskygT2Ahr5BXgSUWyasDvbGQV27l1fq4ZFQcf26Zvsq7vOpOfVxnT1ye5blxEu5dt5cernblc0MlFvJqmLwy7yGwJuHLz2eAAAQgAAEIQGAyCVwUWMgr5BXyyl0CC3mFvIpFYqUwedWtSZ3ar0zmjJm9T6VW9cYDAgt5NUpeIbCy9xXnjiEAAQhAAAIQyBOB5AUWPa+0bUoCbYbjfleUDboTVr0lhMgr5FWe5ZURWGuVK/I0j6b5s6pdmekTWMirw+QVAivNX2buDQIQgAAEIAABCOwJrMTSV2mUV2ZFwpB9r6xklI2w6t0HeaXNeY0fDlYM7JVRfl8jr0LIqxnJlAkOjsSatXsliZQN2jVtr0n76asuM2t6CEhHLlO78vE9iTVSXlWkVjk9o2matcfSsH2YzKKEMD1fX+4EAhCAAAQgAAEI9BPQ7vK2EhFYyCu71JWRWBHIq9DpK3pe0fPKCCeXA3klq+RWSssGjbzaF1i/3j/L8FPSBNSu3CTk1TBZNew9BFbSX1iuDwEIQAACEIAABEYR0O7yevwCC3mFvLIUYFapK5PMInmljVmNHU6FE/JKa94qgHFtUy6v9gRWdXnUfMP7yRBQs/zS0QIrRckrkwJLLnnlySwEVjJfU64KAQhAAAIQgAAExhPQ7nInXoGFvEJeIa/GiiYbGeV3H+SVZF2OSNmgr7JBL33Vrd2n85VvHD/zsEecBNSufOtwgYW8UrPkiStvi8CK88vJtSAAAQhAAAIQgIAfAtpdWolPYCGvkFfIq0TklZFdqRRYlA1ORNngJYH1fj/zD/vGR0Ctyof6JRbyaoi8MhILgRXf15IrQQACEIAABCAAAX8EdH75b1MpsHZMM/U4Rk4attPzyn2ZYVYatiOvSF51p2SXqLLd70K/q0viar//Vbf2q/5mIPaOi4Ba5RsuCSzk1Qh5hcCK6wvJdSAAAQhAAAIQgEAQAtpdfl88AstH+ioWcZWj1QaRV8ir1KWvSF5NWPLKa+D+74LMQxwTPQG1qz+zL7CQV4fIKwRW9F9FrgABCEAAAhCAAASCE9D5pXdFL7CQV3alg6w2KKum7TRsty5DTJ24Mo3fkVeRy6tV2ySV3/1GJq8uJLAqVwafjTgySgLqVF8o0yQ9TSP5hu1e36veLSWEUX4ROTcEIAABCEAAAhAIQ0C7y6ejFVgTKK92FmUnpPzsh7zKrryaG7/6n9+G6y72R15Zlg5OWMP2xORVTWrPPyrMfMSx0RFQo/pM5NWBhu294urC6yICK7qvIWeGAAQgAAEIQAAC4Qho5/jroxNYyCs70YW8Ql7NupVgyCvkldO+V+OSV3t//slwsxFHR0lAt9YfrFb5K6mQWOlMXknNohkIrCi/iJwbAhCAAAQgAAEIhCGg3eXroxFYyCvklcWKg1Ylg/Pue1ht+ixDHNqwneSV/cqGlA1ObtngRbn1P8LMRRwbPQG1yucTF1jpllcIrOi/hlwBAhCAAAQgAAEIBCegneVr3Qss5BXyaoLklZFdQwWW49QUZYOWqam6g/0oG7RblfCinPJWGTxkW31H8JmII+MgoFb5A4kKrPTLKwRWHF9ErgEBCEAAAhCAAASCEtDu8o+6FVjIK+SVS3mV1vQV8soufUXyKrvJK9Pg3Y/Amrop6DzEcfEQUKvyl4kJrGzIK6lBCWE830auAgEIQAACEIAABAIQ0M7igjuBhbxCXiGvrFcIdJG48s5BzyvLVBbJK7vklV95VZNWq/8twBTEITESUKv8x4kIrOzIKwRWjN9HLgUBCEAAAhCAAAR8E9DW8We5EVjIK+QV8gp5NaP9ZFaGk1dr07JLTbnYb0oyqwYGHU4btRtp5Q0/yStv3+qv+Z6AOCBWAmqVb4xdYGVLXiGwYv1GcjEIQAACEIAABCDgk4BWX/RN4QUW8gp5hbxCXiGv/ImvEOLKCK+Lssn1a09I+dx2qv/Z5/TD7jETULP827EKrNTKq5K34uD+tlE04sobrEIY8/eSy0EAAhCAAAQgAAFfBLS7fE9wieVDXu0uSTtxjEVpJ+TYXpSdlLLdb0HajmBsLUihhoV42nKwj/Vqg/S8shZhlA26LRuMNXll0lshBFba5JXplbVa+3lfEw87x05ArdJvxSawsimvSGDF/q3kghCAAAQgAAEIQMAnAe0e/2AwgYW8spNcEYgrI8NCiStzvAMxZXMO5JWspZTX02rcFnmFvHIusXwmrgYbvK9O/bLPqYfdYyagZvnNsQis7MorBFbM30kuBwEIQAACEIAABHwT0Pnlv/EvsJBXyCtLAWYtsOakzQTHxpx0YLDa4MSvNkjyyudqgyNF1xt8Tz4cECsBtcp/GLnAyra8QmDF+o3kYhCAAAQgAAEIQCAAAe0s/Z4/gYW8Ql4hr5ynqsalrsyfk7wieZW25JWXxFqt3Rhg+uGQGAmoVX5PpAJrT16VpabpMZW2UTys75XX/wqBFeP3kUtBAAIQgAAEIACBQAR0fumkvcBCXtnJK9MbK4LSwayUDZrSQpJXbksHkVeW8qoumVSVzVh1sZKg7TkmrOeVJ64ubqfOBpqAOCg2AmqW/zYygTUZ8gqBFdu3kQtBAAIQgAAEIACBgAR0fmnZTmAhr5BXJK9IXh2y2uC6kUdJD+SV3QqFI0sBg5UUdmrnAk5BHBYTAbXKG5EIrMmRVwismL6LXAYCEIAABCAAAQgEJqDzi08dL7CQV8gr5BXyCnkl36mtSU9e1aTO3vhI4EmIAyMnIB15kFqle5wLrMmSVwisyL+JXAACEIAABCAAAQiEJCBdf5l2l788WmIhr5BXyCvkFfIKeTUitbUvsO7X7aWHh5yOODwiAmpXvhV5VTSCaty4LaK/Ak4LAQhAAAIQgAAEIOCKgM4vrQ4XWGmUV0vSzmK4sW16VLke9Lyy63uV4EqDZpXDAysNmvdYbdC+QXxdMqWCvYOyQR2UWzlIXpn+V/vyyts+x9WcxHncElCrOO9UYE1e8soTWwgst189zgYBCEAAAhCAAATcE9D55bccFFjIK3vJFYG8Mk3gQzVtt0xNmYbrYQcN291KsFQ2bDcJrAFxRc+rIeLKNHXPpbwyvbN+0P3sxBldEFCr8kpnAmty5RUlhC6+bJwDAhCAAAQgAAEIRE1A54//ZL/AQl4hryzFFvIKeZVYAouG7Yk0bD+YvNpPYHWn/kvUcxXnD0ZArdLvuBVYJamZtlGUmj1jfLmgl7rq3ZLACvYV4ygIQAACEIAABCAQHwHduXzVJYGFvEJeIa8SKSskeeVjFUPkVark1X4p4V/GN2txJT8E1CqvOhFYe+mrtIkrcz894sq8DiavSGD5+VKxLwQgAAEIQAACEEiKgO46/lDtLn9lX2L5EFg7ph9VHCMnPa8oG5RMnyqXIys9r0wfrlQKLMoGD/a3MmWCgyOnZYP9PbDuUfvoQ5Kax7jucAJqHPtmtcr3hxZYky+vjAi7dThF3oUABCAAAQhAAAIQSBUB7S53tIu8sktf0fOKhu2OG78jryzTVySvUpi88pq4S61aJVUTGzdzRK3yDyKvbFNZpffylYEABCAAAQhAAAIQyAAB7S6/yVpgxZK6ytFqgySv3KausrTaIMkrS3FVl9aQV6mWVyaN1a69OgPTXa5uUe3y74YSWHlIXl0sOSz9ea6+HHxYCEAAAhCAAAQgkFUC2l36YSuBhbySjHByOVht0K3AomwwZDkiZYMHSwQHSwZDrjZoVirsRjFqZjVAt6O/TPBS2mrY+90aJVgpewhQq7wbWGDlSl7tpbTembK/Pm4HAhCAAAQgAAEIQGAYAe0sPVG7Sw8cKrGQV27FFckrt+JqZPJqzu1KgSY15WJQNmiZvpqw5NWkyqt9oXW/1kr/etgcw3vxE1CzcgXyyrZ8cK8R/Nvj/1viihCAAAQgAAEIQAACgQhoZ2lnpMDKirzaWZRdHys/+zlOXHnpLZJXbgXW0OQV8sq+OTzJK5JXPemtYQkrm/faUz8baALiIOcE1K78P4EEVv6SV/srF64UTzv/S+CEEIAABCAAAQhAAALRENDu0n8bKrCQVySvNud1eON2x6sH+l2JEHlF2eCBlQGHlf2FfS/EaoOTnbzqKS2sbkYzQ3FWPwSkI5epXf64b4GVV3ll+mCtFH/DD2P2hQAEIAABCEAAAhBIkIB2l/7NAYGFvEJepV1ejSwddFTq56Jc0DsHZYOUDTrtfdWTmHLV+8omZTVun271uQlOZVz6yJEj6pSWkFc+ygf3G7n/Z748EIAABCAAAQhAAAIZIaDtpcdod+n+ixILeYW8GiuvTDIrjekr5JVd6SBlg9ktGzRN4B0LrHFiyurPqyaN9f9mZNqb2NtUq/w2XwIrz8mri6sQFl8xsV8IPhgEIAABCEAAAhCYRALaXbxjT2Ahr5BXyCs3zdpN+orkFckrp8mrNMsrI7CqX1Tj2DdP4hyZhc+kVvVpapXvsxZYyKv9Hlh3FL8vC3+/3CMEIAABCEAAAhCAwAUC2ln6OSGvkFfIK+TVWt1SOrnaz3K1wbWwfaz8HJ/Gnlepl1dGYJlxPRNrMgTUKr8JeeW7fFC6o/i9yfyNcVUIQAACEIAABCAAgUAEtL30jHgE1qJkVgwMM7b9rCRosy+rDR7eqL23kTtlg/L6Wh22JXllKcGQV7JOaKW1bHBPWnnySupUPqf2/KMCTUQcFJiA2rUnqlX+spXASm3yqiQ1i5fGpRK//aRUVD+vFJ4QGDwHQgACEIAABCAAAQgkQ0A7S5vRSqyQ4spIr1zIqwVpaz6eYZW48gQW8gp55Sp1Zc6TRnllUloh0lfWMsqkqfyMrMgrT2bVfi6ZWSy/V1W7/HrkVYD0VaP4L2blxvx+c/jkEIAABCAAAQhAIKMEtLP0i9EJLOSVtoyYshnIqwMN4jfmpAODhu12PbYy3LA91rJB5JWsmrXXetJWnrA6sP2Ubi89JqNTYeZuW3cUn6JW+UtjBRbJqyFJrsJq5v7CuWEIQAACEIAABCAAgSNHtH38edEILOSVnbiKMXllEl7W6SuSVySvSF4dmszylaaa5ORVn8h6I/NqPATUKv0Z8ipQ+sqUK749nr8lrgIBCEAAAhCAAAQg4JyAtpc/7FZiIa+QVyEE2IHUlUlikbwieeWnIbvNvpQN2qWv+gTVuCTW/WpXC84nKU7YR0DN6tV28qosNU2PqbSNnp5Xpv9VVH2uRp+XRQf6vlH8AAEIQAACEIAABDJEQNvL17sTWGmUV6aPVgRN261KAw8rH4ypbJDklXsBRsN2y4btPvperdpIJ1f7IK8ikFee3Oro7InLMzQFZupWdXvp4WqV/uehAmuvbBB5NVqMlX4gU3/p3CwEIAABCEAAAhCAwCUC2l1+inaW7g8vsZBXJK9IXtklpWbkdr8hPa/WXZYABj2XZdN25JXUddi03bqvleltNWr4Sl558urCtnbtpRmGVy4JqFX+r8irkKmtduVbXf6dcC4IQAACEIAABCAAgZgJaGfpb8IJLOQV8gp55VZK2Uou5JWsBRjJq9HCqldkhZFXe8feq071aMzT2MRfTp3yrFrlr40UWCSvbMoR/3Hivyh8QAhAAAIQgAAEIDDpBLS9+CPBBRbyCnmFvEJe9aa0SF7Jqsm7w9SVl+AamajqFVSHvQ4tr7w01ofUnn/UpM+dcX0+rRSeoFblk8irkOmrRunP4/o74zoQgAAEIAABCEAAAhER0MdOPFw7S58NJrFCCqxt06PK9aDnld2KgyHE06aDY2nYHrKUcEj6aq1XJCXxGnmFvLogwbrVsxFNWbk6rekpplb5NuRVWHllmscXXp2rLw8fFgIQgAAEIAABCEwqAe0s/Z5/gZUTeWWawIdq2k7Ddg0KL+QV8sq69C9M8/YclA2a9FV6kldeAmt/265eM6lzZlyfS83KryGvHMgrsyphq1iJ6++N60AAAhCAAAQgAAEIREhAW0vP9SewkFd2Ugt5hbyy7Wdlux/JK7u+V8grO7HlrGywX1519s77NXVrPxjh1DXRp1az/FMj5VXLrDTIaoOjVxsclF6FL6p99CET/YXhw0EAAhCAAAQgAIE8EdDO0jk7iYW8Ql4FLCEkeUXyiuSVu1UH05q82pdXntD6itrlxTzNpS4+q9qlF41v2l6SmmkbplSvZ5jkU+KjIDUK73Hx98I5IAABCEAAAhCAAARSQkDbS8vjBRbyCnk14fJqYzakZLJNUvndj+QVyauexu/ZkFdSu2rG59Wael5KprrU38aFFQfvHZm+InnlQ4rtySvT/+pnUv8Xzw1CAAIQgAAEIAABCNgTkI48SDtLm6MlFvIKeYW8Ss2KgzRs10GhRdlgCsoGveSVJ6+87d1qlr/HfkbK555qlqbVKn8eeeUiuXVBXjUKUuvK78jnN4pPDQEIQAACEIAABCaYgLYXXzZcYCGvkFfIK+SVt7Ihqw2y2uCY3ln7yStPXnnbL1JOOPoBQq3y96tV/hLyyrG8ahQ3R1PnTyAAAQhAAAIQgAAEMktAdx1/qHaW/qFfYiGvkFcu5dWcZMr00jbW/Zb0xbE/ZYMHU1bDViUMkbxanZKdjPK7X0+5n1kp0MUIXTZoViwcI55c/PlweeVJrK+oU/k/MztJRnTjapZfqlb5PuSVa3llUljF6yP6a+O0EIAABCAAAQhAAAJJE9D20i9cElgh5dXOorTteixI2xGMrQXZiaph+7HaoN1qg8gr+xQX8gp51SO+JkNeeRLra2rXXpX0XJeG60tHLlOz8osjxRWrDfrod2XkV0/ZoPe6eRWlq2n4snMPEIAABCAAAQhAIAoCuuv4I7Wz9CkZ+RR2IK+kLYdya3NeshoBE1Objo4butog8gp5NSw9FeY9kld2Pa9Skbzy5NWlbavyh1opPDKKeSwL59R6+fFqlv8KeeUidTVCXjWOfSgL3wXuEQIQgAAEIAABCEAgBAHtLv0M8mpY0mrwPYdyapzoshJXRnA5klBhzjNUYFE2aCewSF6RvJrY5NUledWuSPvjI2pXCyGmq0weqmZ5Su3yx5FXUcqrgll98NWZ/IJw0xCAAAQgAAEIQAAC9gT0kfrDtLv4scASi+RVPpNXRnohr2Qnqob10EJeIa9yJa88ifVltcvXmHI6+1kqm3uqffQhalZeo1b5a8grV/JqVPqq8DWtFJ6czW8Kdw0BCEAAAhCAAAQg4IuAdpd+IpDAQl4lJK9SkL5CXiGvVsOUBNocm8ayQdPgvUc8uXg9WT2vhiWvPHnVsy13JjmNtZe6apU3DxVX9Lzy2fNqpLwy/bD+3NdDDztDAAIQgAAEIAABCGSXgHTicm0v7vqSWMgr5FWfxKJs0C6NRfIqu8kr5JUOX3XQUl5dLCm8X53yzWoc++bszp79d67mVf9KrfLNapUfQF65TF0dKq+kxrEX9f9N8BMEIAABCEAAAhCAwEQT0M7ii60FFvIKeYW8CpDAyrC8WrNJTLnah+RVphu2X+p51ZO4uiithr13t1qVa7W++A1ZnWS1Wv8mtUuvVqv8ubHiiuSVy+SVSV990pRrZvW7w31DAAIQgAAEIAABCAQgIB15kHYWW2MlFvIKeYW8Ql5FVj6IvMqZvOoVWv+kTuUX1D76qABTWCKHqFt7nNqlX1Wr/HkrcZVqeVWSmsVLo+E6QRX0fAUjqUYPmrcn8t3nohCAAAQgAAEIQCBxAtpaOqadxftHSqxcyCuz+mBMKw5arzZIzyttWJYorg9rmJ70eySv7MoGTYIrhMDqmhK/KEZOe151qj0lgTavD01Z9Yqqca8/q3bl19SqfEfik+KIG1Cj+ly1ym9Qq/wv1uIKeeU6eWWk1hd1e+kxI/6aeBsCEIAABCAAAQhAYNIJaGfh94cKLOSVW7GFvJK1lEJeSWt1h2NaMiWBNiOypNWwckPklV36qioZuRT1sO53ZeSWM3k1eK5ttavXab38+KTnXnUrT1KzdFLNUtuXtDLiCnkVhbyS7ij+VtLfC64PAQhAAAIQgAAEIJAgAW284NHaXby7T2Ihr9zKK5PwshZYc9JmgqOvXHBO2vvZMg1lK55c7EfyylJwWYqrWHtekbyyE1e16KWVJ8XSIa96ZdZX1Kn8hdrVn1Gr9DzpyGVRT5O6tf5gdSpFtSq/oGb5fWqVvxZIXCGvopFXK4Wvqn30W6P+HnB+CEAAAhCAAAQgAIGUE9Du4o9eFFjIK+RVn8RCXk38aoPIK6lL2aDdioORJa965dWw159Wq/KOvebvzeqyWtWn6eyJy4NOrXuyaqXw7eqUXqhW+efULN+iVvkLgYWVl7q6KK/KUtP0mErb6Ol5ZfpfpaLv1SH9rrxeWCsFaaVwc9C/b46DAAQgAAEIQAACEJggAhcauv+tnMurRWl7wf3YMn2rwoyYel6RvKJs0GkpoN+yQsv0FWWDbgVWxySnwo4YSgaT63k1TFAd/l6rIh0c96pV3lSr/Kdqld6idvn1apV/Re3ydWpXXqF2+Sf3X+81XTf9q25Uq/xutcq7apW/6kRW9Yor5FUAIWYtr+7THcXvmqDHLj4KBCAAAQhAAAIQgEAYAtpeukLbi191K7GQV3algwmWDJpyxb7ElfczyavAyat1v6Ipiv2RV3YN3klepTx5NUxcXXjvQq+pQYmU1M9Nk7oieWWf6rKWVyZ99cYwzzccCwEIQAACEIAABCAwgQS0s/SL7gQW8gp55VCCZaXnFfJKw1cgpGG7XSqL5FVfg/iDqSvkle+yxEyXDRp5dY/aR584gY9cfCQIQAACEIAABCAAgTAE9vqCbC+uhJdYyCvkFfLK7UqCtiktkleJJK9MDy3KBg8vA/S7cuFIeWXKCVOUviJ55bN00Ffyyqw8eH2Y5xqOhQAEIAABCEAAAhCYYALaPP50bS9+IbjEQl4hryZdXs1IJmk1OBLtd2UEF/IKeTUmwZW+1QaHSy/klYMG8JlPXpn01d1aKTxygh+5+GgQgAAEIAABCEAAAmEJaHvh3wcTWBHIK9MEnobtkulV5WrQ80p2/a2MqBo2kFfDywSnB8oHc1A2SPJquIDym7bq3R95hbzaX3XQpK9+MuzzDMdDAAIQgAAEIAABCOSAgLYX/8yfxEJekbwieUXZoCexkFd2JYVjElNmpUAXg+SV+7JDGrb7KB30WTZoBNYdxabOnrg8B49bfEQIQAACEIAABCAAgbAEdNfxx2l78ZN2Egt5hbxyKK82Zkckn4aloeJ8j+QVyaueVQsnsudV1X2iqjddddjrrCSvTP8t5FW08mqlcJ9uLz0v7HMMx0MAAhCAAAQgAAEI5IiANhdfqO3FBw6XWMgr5BXyiuQVySu7xJXX7N1RsmpcOstX8gp5ZdUcHnkVtbwyva9+LUePWnxUCEAAAhCAAAQgAAFXBLS99CujBRbyCnmFvEJeIa+QV5XgyS2SV/S88npe7W/v0u2lh7t6huE8EIAABCAAAQhAAAI5IiBdf5l2Fm85KLGQV8gr5BXyyoG8Wp2S3eqBfvfrKfczzdZdDMoGg4uqYeWDyCvkVb+8ekB3FOdz9IjFR4UABCAAAQhAAAIQcE1Aq/Vv0vbiBy9JLORVduXVnGR6TKVtDF3tL87+VsOuRc+ryHte5UpemfLBGEoHKRukYXuj6KPMz/W+ARq2X5JYf+D6+YXzQfbLlWgAABrHSURBVAACEIAABCAAAQjkkIDOL3+HthY/p23kFfLKsQBDXskuyTUtrVmMVS8VFcc2xGqDyCv3Qgt5hbzKrrzaVvvo1+fw8YqPDAEIQAACEIAABCAQBQFtz3+/thfudy6xthakwGNe2oppbM4LeYW8spNNdUspZbufhbgycgt55aZUsLfcMHTZIMkrDZYPjiwdLLsXUGbVwKCDhu0+klyhkldfVuPYc6N4buGcEIAABCAAAQhAAAI5JqDthdc6FViBxZWRXjGJK3Md5JX7skOSV5aSC3ll1yPLUZ8r5JXbPlfIKwd9rko95yhKzZ6RaOLKKz8MJa+kO4o/nuPHKj46BCAAAQhAAAIQgEBUBPaaum8v/okTiTVx8sqIrrlkx4bpcTU4HKemXPTPQl4hr7p+m7KP29+xwCJ55V5kkbzqEVG9Usr2dY+4MhIrFfLK3EcogfWHUT2vcF4IQAACEIAABCAAAQgc0daJr9POwntDSSzklXvRdUBc0bBd1qKMhu125Ydp7HllxBbySlb9ryrupdRgwmrUz8gr5NWlZu2Sed049iG1jz6KxyoIQAACEIAABCAAAQhESkB3HX+ktuc7gSQW8gp5ZS2Whq0O6Po95BXyqkeAkbxyL7mQV8irQXm1Uvgifa8ifUzj5BCAAAQgAAEIQAACvQR01/HHaWv+vC+JhbxCXiGvxpQPWva8irVpO8krWYutqvvVBTsD57RKW1V1KZVF8mpsI3catvssSQxVNni/Vgrf3/s8wWsIQAACEIAABCAAAQhETkCbi9+i7YWPWkks5BXyCnmFvHLW+6onNeWihNBaUJlVBUeNAdE0KJ5c/Iy8Cr6q4KjVCFMrr0xvrJ6+V5PR88qUD56K/OGEC0AAAhCAAAQgAAEIQGAYAe0sPlvbC58+VGKFklcxrjhovdogDdtl28w9VdLKKz/McNlgrMmraWk1RPrKmawabOCeU3llBJgvgUXyKrvJqwmVV3cU3zLsOYL3IAABCEAAAhCAAAQgEBsBbc1Xtb3wL0MlFvKK5FWqJBbyyq7nFfJqdNJqMIEVQ/IKeUXyKvEEVqiyQZO8Oqdb6w+O7cGEC0EAAhCAAAQgAAEIQGAUAW3O17W98MU+iZUVebVlElW2Y869kNr0cU5WG5T96oJe4srbIq+QVz3prZGlgIOC6rCfkVfqXXmQhu0hG7ZPaPJqpbCj1e/5plHPD7wPAQhAAAIQgAAEIACB2Aloc+HKi+WEyCv3ogt5NWHyqi6ZkkCbsWoSUXENygbt0lfIq+zKq7ID0WRkk+vR0/PK9L9KPHVl7iFk8uqO4t/rA+Vvi/2BhAtCAAIQgAAEIAABCEBgHAFtzz9PWwufUiiBNS+ZVFQcg+SVrPtZ2fS9SlW5YJqTV8grWffI6klN5alhO2WDEZUNIq/sxVhIebVS+Kgax5467rmBP4cABCAAAQhAAAIQgEBiBLQ5/13aWvhEMIkVk7iibNCtuDJyKyvyat3Io6QHySs7gYW8smvcTsN2u4btyKsY5dXH9YHy0xN7EOHCEIAABCAAAQhAAAIQsCWg3blnamvhY/4kFvJKg/2wKBsMIcaG9LxCXo0oRaRskLLBABIsUz2vkFcxyqu7tVJ4lu3zAvtBAAIQgAAEIAABCEAgcQLamf02bS1+yE5iIa+QV17Jn4st8sq+Z1YO5JUpPQzdtJ2eV3Y9ryruS/9a5eDnbBpxhbyKUV59Sq0rn534Awg3AAEIQAACEIAABCAAAb8EtH78ydpa2DhcYiGvkFcupFXvOYYILMoGh6SvkFd2Ygt5hbyiYfteQ/eVgjR6fErNq77H73MC+0MAAhCAAAQgAAEIQCA1BLRVf4S2Fv5iuMRCXiGvesWTi9fIK7v0FfIKeeWybDBlySuT2iJ55WMlw9AN2/+Xbi99Z2oePLgRCEAAAhCAAAQgAAEIBCWgW+sP1tbiH/RLLOQV8sqFsOo9B/IKedXT+J2yQfUlp9oBhFXvMSN7XiGv1LRNaBWlZs9oFH1Ipqj2DS2vtrRSeHLQ5wOOgwAEIAABCEAAAhCAQOoISEcepO2F12hr4QGZVQDjGpvzktWY0wGhNNhUPcqfs9KwPUsrDlI2SNlgYImVxrLBqlsh1Sunxr1GXsleUo2SWT3iykisSZBXjWO3qX30Ual74OCGIAABCEAAAhCAAAQg4IKANudeqK35z8cisKzElRFcyCsZMWUz1nsTT2l5TfKK5NWkJ6+QV7Jp5k7ZoA8xFjp59S7dXnq4i+cCzgEBCEAAAhCAAAQgAIHUEtDm3HO0NfeRSCUW8spOSNlIK28f5JVkleqaltYsxur0kIRUVO/R8yq7Pa+QV8gr14mt0PLqBtMaILUPGdwYBCAAAQhAAAIQgAAEXBLQ+uLjtTV/WyQSC3mFvLISTXVLIeVnPwtxZeRWVuTV6pTUjWL0JKa6jl4HLhesaV9uUTbY1zOLskHKBg+uOHi/Vgr/yeWzAOeCAAQgAAEIQAACEIBAJgjo7InLtTl/vbbm73cmsjItr+bciycvPRVmS/LKUnQhr+xklyNh1Su+QssrI7FiEFhtk6byM0I2Xh/X22rUnyOvkFcH5dUX1Dj2okw8XHCTEIAABCAAAQhAAAIQiIqAthav1tb8Z0JLLOSVewGGvEJeOU1gIa/sBVZC8spIrZECqyyrcj6bflUu9qHnVVw9r+5S86oronoG4LwQgAAEIAABCEAAAhDIFAFtLz1DW/PdwBILeYW8omywpzQxRM+rXJUNkrzqKxtEXpG8GkxeNY79mf6u+uhMPVBwsxCAAAQgAAEIQAACEIiagNpHHxKopDAr8sqsdrgxbFiuABimDNDvsSSvSF6RvHJTVuirZDDBhu3IK+RVv7z6mu4oXi8duSzquZ/zQwACEIAABCAAAQhAILMEtDM3r635f7BKY1nLq3nJCKQkB/JKCizG6tL6wEgsceU1dafnlV3PK9ME3nHpID2vdCA5Naqfle37lA2GFFhFqdkzGq5XDgx6vkArDt6tO4rzmX2I4MYhAAEIQAACEIAABCAQJwFt1f+Vthb+4lCJhbyibDAxiYW8Ql6NafpO8sp9vyx6XvnoeWWEVyB59R59oPz4OOd7rgUBCEAAAhCAAAQgAIGJIKCt+Zdoa/4LB0QW8gp5lXZ5tTbd05Mq6tdp7HlF8oqG7Q6bviOvopZXX9ZK4aR05EET8fDAh4AABCAAAQhAAAIQgEASBLS++FRtzd92UWIhr5BXyKseOYa8knVJ4ZjUVMfBn5O8InmVePmg7+TVulpXPjuJ+Z1rQgACEIAABCAAAQhAYOIISNdfps2Fk9qcv0fWAoueV7Jp3h64L9VMiJ5W444d6Hdl+l8lJq28a1uWDcaavDLJrhACy2mjdpO48gY9r+zSVxX3vazoeRWyl1XJx/GZ73l1n1YKv6q/OP7QiXto4ANBAAIQgAAEIAABCEAgaQJaXX6KNub/crzEQl4hrzzx5GKLvLokpzxJNWqbU3ll0lu+0lfIK7XGlBimtmzQSK7My6ttNa+6Kuk5netDAAIQgAAEIAABCEBg4gloc+HfaXP+n4aLLOQV8sqFtPLOgbxCXlmUFiKv3JYOIq+i6nl1nxrHXqdb6w+b+AcFPiAEIAABCEAAAhCAAATSQkB31h+rrbnT2px/4JLIQl4hrzzx5GKLvEJeIa/GJqXGJan8/nlW5JVJYSXe78rXaoMrahx7blrmcO4DAhCAAAQgAAEIQAACuSOgzYUrtbnQ0CbyCnnlQlr1nsNSYK1Gvcpg7/npeWXXtN1CPMXetJ2ywbEybE9elX30ofLTsyrsvj1lg9mSV5/bW2Hw7InLc/eAwAeGAAQgAAEIQAACEIBA2gjo7InLtTX309qc/0wiImtjTjowZt2vFmjTlP2wfbLSsD1LTduRV1LXYd8r6xUFaxotspBX6m3m3qpIQ8eYHlR+k1Nh90de+Ux0jV1t8AGtFN6m91eelLY5m/uBAAQgAAEIQAACEIBA7gmoe/xx2pz/fW3O3RebyDogrozMQl7JSpYNWW0QeSUNlWIkr0YLq16ZhbxCXoVNWg0en8nk1aqaV03l/qEAABCAAAQgAAEIQAACEEg7AW0sfqe25s9GLrGQV7ITVTND9kNeDRdVveWC3mvkFfIqQPnh0NSVSWORvFJzUFKN+jlz8uozlAum/QmF+4MABCAAAQhAAAIQgMAQAtqaX9Lm7GYkIgt5NURKDRNVo94bIrDWevtPJfGanld2Tdsdlgx65YehSwdJXtklr1ImsCgbdFQ2eOxeNY79pm4vPWbIVMhbEIAABCAAAQhAAAIQgEAWCOz1x9qYfak25/6XM5GFvEJeDS3z8xJTrrY5SF4ZgYW8Up986u1fFeT1yOQV8moCk1cPqFF4mxrHnpqF+Zh7hAAEIAABCEAAAhCAAAQsCOiu4w/V5txJbc7dHUpkIa+QV8grd43bkVf5lFemjHEvfTWqdC/J9zNTNvg+NY5daTH9sQsEIAABCEAAAhCAAAQgkEUC2qo/Qhtzr/7fMuuzvkUW8gp5hbxCXrWr0sgRoFdVkJTVsGOykrxCXoUsGzz2ATWvmsvi/Ms9QwACEIAABCAAAQhAAAIBCOh85Ru1MXudNuc+bSWysiKvzAqIVisAjupNFdX79Lyya9pO2aBdSWEae14ZsZWQwEJeyb48cFS6K/XJq3U1jp0IMN1xCAQgAAEIQAACEIAABCAwCQR01/FHanPuF7Q5988jRRbyKqQUQ14hr3oav09k2SDyymp1Q8oGfaSvClLDjGJTdxS/TzryoEmYc/kMEIAABCAAAQhAAAIQgEBIAnulhZvz/1Ebc5/oE1nIK+QVZYOUDY4sGfTKCUlejRVYyCu/8ur/00phIeTUxuEQgAAEIAABCEAAAhCAwKQS0NaJr9PW/Eu0Obct5BXyKu3yanVK6kYxehJTZqVAF4PkldsSQ8oGJ7Fs8AE1ireocaw0qXMsnwsCEIAABCAAAQhAAAIQcEzAlGtoffZqbcyd6xdZs5LpM5WmQc8raa1uMaalNYsRi7Sa1n5ZYYieV7mSVzWpE0Pfq7FJKy9x5W1JXpG8KvpIVo3c9141SjerdeWzHU9lnA4CEIAABCAAAQhAAAIQyBMBrc8UtDH/Nm3MfjVV4oqG7RbSyhNbFuLKyC3klZu0VW9iK3TyCnnV1xye5NUkJa/+USul16hbe1ye5lQ+KwQgAAEIQAACEIAABCAQMQF1F56kjdlf0sbs3akQWSSvLAUW8squzNBRqSDyym2p4ODKhiMFVllj01CtGPeh59XoZFaz2NFK4aW66/hDI562OD0EIAABCEAAAhCAAAQgkGcC5j8d2pj9MW3ONhITWcgr5JXT3lfIK1mXDyZUNmhEFvIqZPqqKDV7RmNkSd9o+RT8mC+rUbhJK4VinudPPjsEIAABCEAAAhCAAAQgkBABbc09Sxuzr9PG7Kdjk1nIK+SVU3llmsA7FliUDbpPYSGvsiqvPqRG8TrKBBOapLksBCAAAQhAAAIQgAAEINBPQB+pP0wbsye0MXMuUpGFvEJeIa/cNHS3Tlwl3LCd5FVIcVXqT12ZBFbwFJXtsfeqUTyrZvFqnT1xef9swU8QgAAEIAABCEAAAhCAAARSQqAnlfWPTmUW8sqtvIq1aXsaVxskeUXZoMOeWPS8MnJrey9t1T762JRMR9wGBCAAAQhAAAIQgAAEIACB8QTUPvoQrc98nzZm36mN2a+EklnIK+QVySuSVxfLCB2KJxeN3VMrrwbSV9Ekrz6pZun1apWeN35WYA8IQAACEIAABCAAAQhAAAIpJ6B2/bHanH2VNmZv18bsA75kFvIqw/JqWloNkb5yLq1M6orkFckrhwIsn/LqCxcasi9SIpjyyZfbgwAEIAABCEAAAhCAAASCE9Bq/SnanPl5bcyujxVZyCvklXOJldOG7R2vl5XtltUGNS6dlS95da+axXerWXyxbi89PPgMwJEQgAAEIAABCEAAAhCAAAQySEBrM1doY/aXtDF75wGZhbxCXiGv3JQNIq80VkaNk1WDf54PefVlNUp/qmbxR7RSeGQGpxhuGQIQgAAEIAABCEAAAhCAgHsC2pj/bm3O/t97ySzkFfIKeYW8oudVgBUIi5dWHQzW8+pLahTfqUbph/T+yje6/03PGSEAAQhAAAIQgAAEIAABCEwQAa1Ofbs26tdpo97U+swDSlxo1aX1gbFWt5RMUe43LZnVBMeNVdOLKq5Bzyt1aho/qu4ElUlYjRpt25JBsx9lg2OTWnvJq3IAsWQaqkc9euRVs2hWBbQdd6tRuEGN0ovUPvr1EzSV8FEgAAEIQAACEIAABCAAAQjER0Dd2uO0PvMSrdfPan3mC/HLrAFx5YmsxAWWhbgyYis2cUXD9vHSyhNbhwinUSIqyPvIK7elgxMlr0of1krxt9UqzuvW+oPj+43OlSAAAQhAAAIQgAAEIAABCOSAgD5Sf5g2Zp6v9Znf0/rMR6OXWcgrewFG8spOYCGv+pJeF8sEK1Lfa4crBQ72rwryc/bl1T1qFG/RSuGn1S4/PQfTBR8RAhCAAAQgAAEIQAACEIBAeghoY+5p2ph5eTTpLOQV8mpgxUKr0kAvZTVsi7yyk1dGZqVIYGVWXpU+rGbpTWoWr9at9Yel5zc3dwIBCEAAAhCAAAQgAAEIQCDHBMzS7lqbXdTGzG9qfWYzfDpriMCibHBISWIOklfdYTLK73vIK+SV6x5YB3pefUyNwk1qFH9Uzau+JcfTAR8dAhCAAAQgAAEIQAACEIBAdgioXXuiNmZ+WOszf6C1mbv8CS3klV36CnlF2WCAxu99pYIpLh1Mf/Lqn9Qs/pEaxVeoceyZ2fntzJ1CAAIQgAAEIAABCEAAAhCAwEgCWq8/WWuz/5fWZm78303h/+dooYW8Ql71lA5SNuh2dcKsyCtTwrgnsFynpsKcr/xRNUtvVbPwU2qVny0dedDIX3j8AQQgAAEIQAACEIAABCAAAQhMBoG9hNb67NVam32d1mfer/WZr8hbYbB3S9kgZYOBJRZlg5ksG0yPvPqwGqWb1Sy9XM3KFZPxm5dPAQEIQAACEIAABCAAAQhAAAKhCOh85Ru1Ob2g9fr1Wq//jTamPy/kFfJqouRV1W2aqu2jfJDkldQ8LH1V/pQaxfeoWXqNmqVl/V310aF+oXEwBCAAAQhAAAIQgAAEIAABCOSDgHT9ZerOPUur9R/T+vTvar3e0lr9q/FJrWlpzWKsTg+RTFG9R8+r7Pa8Ql5ZrWwYT9ngl9Us3qFm8bfVKP2wOqVn5OO3Kp8SAhCAAAQgAAEIQAACEIAABGIhoI/UH6budEnrM9dodfomrdU3tFa/z73UshBXRm4hrySzQqDLEThx5a1KmMayQeRVYvKqUfqiGuW/25NVzeKPaaXwHN1af3Asv7C4CAQgAAEIQAACEIAABCAAAQhAwCOwJ7VWp6/SWv3fa63+Rq1NN7RW/1JwqTVh8mp1SupGMRyLKyPBkFduSwzzVzb4CbVK71Wj9Ot7yap26TulI5d5vyvYQgACEIAABCAAAQhAAAIQgAAEUkXAJCy0NnOF1uov1nr9l7VWf5dW6x/S2vT9h4st5JWd7EqjvDICLIb0VdukqfwMH32q/PS0GrfvZMurz6tZul3N0pvUKr1SrWJdt5cek6pfQtwMBCAAAQhAAAIQgAAEIAABCEAgKAGtL36D9tJaMy/T2vRvaq3+V1qrf2RfbCGvkFdjBJgvcZVg2aCRWyMFVllW5XxmJcA4xuE9r+5Ws3SrGqU3qlU6pUZpSXcUnyIdeVDQ3wEcBwEIQAACEIAABCAAAQhAAAIQyCwB3V56uFbr36O1qRdrbfo1Wpt+u9amu1qb/pe+Ru5Z6XmVq7JBklcaTGNlS17do1ZpXc3SO9Qq/1e1Si/TSqXIKoCZ/XXKjUMAAhCAAAQgAAEIQAACEIBA3ARM0kPr9SerOzOttamXaXX6V7Q6/UdanWprdfqz0TVxD7HaIPLKfSkhyauwaaxPq1VuqVV+u1rlX1az/GNqVGpq154Y979prgcBCEAAAhCAAAQgAAEIQAACEMgdATXmvllrtWPq1v+t1qau0+r072l16s+1Or2l1el7ggmuNMor0wTecd+r0A3bSV6lJnnVLN+tVrmpVvmP1Sz/hlqVV6pZvVrt0ndrpfDI3P1i4ANDAAIQgAAEIAABCEAAAhCAAASyRGBPcK3Xvldr0z+g1amT6k7/plan36ru9N9qddo0lf9yv+RCXtmvRDimX5WLhu4kr76mVvkTapUbapX/VK3yG9Ss/LxapZeoWZpTp/hdpvw2S/8muVcIQAACEIAABCAAAQhAAAIQgAAEAhDYl1z1Z6s7fXyvTLE7/Rp1p35Ha1N/ou6UEV3ntTr1OZnSwMNG16Skohgkr+xWHUxotcFgDds/q1Z5V63y/1C79Ed7YqpderXalR/fT05VC+pWnqSzJy4P8JXmEAhAAAIQgAAEIAABCEAAAhCAAATySkC31h+mzalv2StZXKu+UGvTL9Vq7T9qdfrX1Z26QZ3pd+0Jr+7UtrpT/6ju1H3hhRbyKgPy6h61Kn+vVqWrVuW9apXfplbld9QuvVbt8jVqVn5EzdKyGpUrtVJ4su46/tC8/hvic0MAAhCAAAQgAAEIQAACEIAABCCQQgKm/5Ba1aepUz2qbn1e3dq/UXfqZerUrlW39lp1pl6vzvRprU69U92p96lrmtNPfVjdqX9Qt/ZZp32v6HmlgZ5V96ld+Yzalb9Xu7KrdqWtduV96lTerU75ZnWMhCr/ktqVn1Wn/BNqV0+oVVlQs3yVGtVnaqXwBGRUCv/RcUsQgAAEIAABCEAAAhCAAAQgAAEIxE9A64vfoHb9sfsirPYctU15WXVeneoPaLV6Qp3qy/dH7efUrV6nbu1X1Z16nbo109D+TepW36ru1Fl1a+9Rp3buwnifOrX2pVHdVaf24QvjI+rUPnNwVD+jjhmVz8m6v9XevheO847v235KneqHe8aG2tX2hdFQp3ru4mhX36V29aza1T9Sq/qmvdEuv057o/Kf1K5ep3blFXssWuV/uyecOtVldWtzewKxXfpOdcvfpo3qo9U++pD4/ya5IgQgAAEIQAACELAj8P8D8tpyseubx9wAAAAASUVORK5CYII=;" vertex="1" parent="ZifJmnDVHh8M5HppRdxN-31">
          <mxGeometry x="26.25" y="50" width="67.5" height="67.5" as="geometry" />
        </mxCell>
        <mxCell id="ZifJmnDVHh8M5HppRdxN-24" value="Response" style="text;whiteSpace=wrap;fontSize=9;" vertex="1" parent="ZifJmnDVHh8M5HppRdxN-31">
          <mxGeometry x="140" y="60" width="50" height="20" as="geometry" />
        </mxCell>
        <mxCell id="ZifJmnDVHh8M5HppRdxN-39" style="edgeStyle=orthogonalEdgeStyle;rounded=0;orthogonalLoop=1;jettySize=auto;html=1;" edge="1" parent="1" source="ZifJmnDVHh8M5HppRdxN-32" target="ZifJmnDVHh8M5HppRdxN-15">
          <mxGeometry relative="1" as="geometry" />
        </mxCell>
        <mxCell id="ZifJmnDVHh8M5HppRdxN-41" value="" style="edgeStyle=orthogonalEdgeStyle;rounded=0;orthogonalLoop=1;jettySize=auto;html=1;entryX=0;entryY=0.5;entryDx=0;entryDy=0;" edge="1" parent="1" target="ZifJmnDVHh8M5HppRdxN-32">
          <mxGeometry relative="1" as="geometry">
            <mxPoint x="580" y="245" as="sourcePoint" />
          </mxGeometry>
        </mxCell>
        <mxCell id="ZifJmnDVHh8M5HppRdxN-43" value="" style="rounded=1;whiteSpace=wrap;html=1;" vertex="1" parent="1">
          <mxGeometry x="460" y="160" width="120" height="170" as="geometry" />
        </mxCell>
        <mxCell id="ZifJmnDVHh8M5HppRdxN-44" value="" style="shape=image;verticalLabelPosition=bottom;labelBackgroundColor=default;verticalAlign=top;aspect=fixed;imageAspect=0;image=data:image/png,iVBORw0KGgoAAAANSUhEUgAAALQAAAC0CAYAAAA9zQYyAAAgAElEQVR4Ae2d/68kV3nm+XOiyDiORayrkYWsQGYjy7Isgwxrg1aZDMN4AiY4K4WvWi1YBAWzuyE2ESFmlYB/QAYpIWxWCwvamJBgO8R4LTuARRA4IThm3NO0r+9cj9snft56n9PPOXWq+sutO9N155RUc6r79r3TderTTz/nPe9561WvqlvtgdoDtQdqD9QeqD1Qe6D2QO2B2gO1B2oP1B6oPVB7oPZA7YHaA7UHag/UHqg9UHug9kDtgdoDtQdqD9QeqD1Qe6D2QO2BLeyB06+dBu6n/PjUddPQ2n91Gk5xf/0snCrtx2fhFPdfn4VTvm/hade3dBR74PS10wCIuQPsFsgKN4FGWwIazxFob0/++ixgP4r9V89pi3oAMHOPyrwO0IQ7B1uBdpirUm/RhT+Kb8VAPrYA2h67UptK94HdBfLrXbUVaFXp66tKH0WWtuKcTgNmAfprX9gP//n6n69vPXJ15uMC1FWlt+LSH703EWF2qO9+924I8xD+8v79CLR5avXO+TFVeg0vDW9dvfTR4+mSn9HpnUmjzsem4cxrp+Gfn5oHbBf2Q3jfrc8vIh45xPqYQEORDeqOQaIoNWCuKn3JL//RegMGswB9/8f2DGb+8+hfX4gqvVbEQwGn7UArQNtxjXgcLaAu9dlEoHcm5pln00adCTRaWBCG8XpDeFBsgmwqzdh0ptYCNUN4UOpL3Rf1/x95DyjMOMZAEN45337yT/PwW7/aREDW9tKJ/eiIerj1OFmjHiMn6hK+fQB8ZudcINR33TYL8ws5yovHsCII5VGpe+0HVTr6aSq1tKLStCF1gHgJgRj7f02QCfaT3+qhOYQwm4YYxlsKc6f1EKALfpr2Y+x9W9//Re6BBOZj58I9d+4upLjnCJYkTrL0TbQUge720arQVaUvMgxH4b9ToN/5SvLRT39cMM4FsGFJYE1sYOiziJ2DRNoOthrp0OPcetTkpaOA2MU7h9OvmYTT1/i+Mwlf/EQapitwnDz15CMXmnyPZUAzRk2g0SrIBcsBpTbbUQeHFw+Isf9PCvT7rp+G3VnC6/IH8xDuef8LC6gJblerQK8IdZ1sGTtlF+n9G8xRoafhb7704nKAC6+ARUnCeKv6aahyhFoUW2wHFDoqdY1NXyQyRvjfRJgN6Gm468TzxZhzgd/iU1/41Pkk1bTTSxcHiIh2CNA99mOEXV3f8sXogRToSfin7/SH6YoUy5OwKnfePItRD0Q/OsN5ajtyHw2wRaGT4zpAvBhojO//SGB+zST8yft3SxOCgutqh7AsSGbiZMtaKh2th8emAXWu1LIYALOIrf2GWTiZ7zfOwknbd8PJG3fDyZtm7f3m3XDy5t1wAu0bu/cTt+yGuL95N5zQ/dbdcML2vXDiLYt9fHSM8B0T6DNXT8Id154LP/vJamG6ZVjP58Gsi84gdkLdq9IFmAF4BrQNFpeBDYgBdAlkfW4FqCPMAFth1mOCXaG+OJ+M01dPAkDGDrC//Md7ASDavozYFX7+g8dfirZjrTyPqNBLvLTbDoP7+lk4tQxoKLZB3aHOhFqA7lLqBGiqtcKM41v3GqUG0ID7LXs1yeqw0DaQr5oEQA2YEabbQ+6+A03fcRC9xu9isqXXQzOkpyrN45anLqSYuloznLeS9VgF7E2gzoEm1KLQFepDItpApjpfPQkP/6/9CDOhBpAHAfrxb1yICs1p8c7BoUY8SiDnHloHi67ULZip2C0v3eOhqdJo3UuXVLqo0CWlpu2AWgvYh3RZL88/e+aqSdD97t+chQsXgmXUEWaQbDBvSDSmwrGiBVbDFtX6qvFOH61Ar6vQnEXsAjsHmo+X2A8DWZQ6HyQS6lNvkgFi7qkBNJXabUdV6YE/d4SZHhpeNwINsOmjCfUKfjl/yf+9fz8BmQq9mZfOYtOqzjz2QaKqNDx19NWEmC0HiMsGiRLxKCk1ICfY1ua2IwLtkY+q0sPSfObKSbAdKn31JHz2/bthfy+E/f2wgFp99AYKPX0uhDtfl64Uj+E7D+X1Wg+oNSxGHBx6pEOtCEFmKwNEDhIVbgvhwYJEoBnC64l6QJ3desB+5ArdgpmWo0+lK9CHB/Sd156zbLo9AL3XAB2VWlTavMcaYFvCf1b6gOE7gEy1LkJNu8E2AdtBJ8TaZmG8BOYuLx3h7ol6uOVQmHOlpkIn1qOl1Ih0uI9mW6MeB4M7qjNU+qomTDebhbC72wBNlTaoBejopVeA+sffm4cz8MsEmi09tADdaz+ozmxVnXGsMOtxwXokcBNitpxs0cFgfkyoO1S6qNQtoN1Li0JXL30AnhOYr5yE/3rDNDz7TAjTabCsumUqDV+9bMNrPn778ynMUkIsGRw62FGxGb7TVmGOx6vFphOIqdBsCTNbzh7mIOtjeumOyAdVOmlbULtKa3y6qvRmVL/j1Wcb7+weGlPTZ882QHeqtAwQNX7XxfYjX32xWYdIVdZWwGbkgwpdtB4EGyBHmNVLl/M8uFTLMvOg1oQ4bwkz21UjHhgEHkipF5MsNYy3GcuvOnPF2QCgCTXCdD/91xDOPhvCZLJQ6dx6IPSmEY8+hYYHf//NP48La23lSwfQuZ/uBJowa5tbjy77sQxmAE6Y2fZBrbaDal3I9UgUOh8cQrFjXLqZOSTUG17ay/PXzlzhkY0rzoY7fnkS/uGbF8JP/iWY5YBKA2pT6VkIaj1yoLuUGaB/6TP7KcwoUCNFaqKnltXhptRiPYoxaoWZxwa1WA/10DhGxMNj08WIB9WaIKMlzD1hPI1L6yAxP06gzm1HhLqt1JcnnWueNdTZgHaokU33wx+8HP7l6ZdNpZ99Zp6otAK9asQDfwPrD88cW5Q+6IKZPtrshmbj9S0EAMiAmG2u0jnQMtHCZVst66EwG9BZGA+Aq4fmMdWZ7SYqbVBXoNdEuXn5O37xbLD91WfDnTuT8OhDL4UfPPVy+NEPG6ifeWZhPeill0KdeQ98SAxgqjJbtRw8Fi9N6xHhpm8utVTnBOqeMJ5CTUX2Nk625LaDEY8umAVqjUvnnjpR6C7bEaFOwd7oIl8uv0SYTaV/8WxAfPiJx+fhe/84N5X+8Y9ejtYj99IGtU62iJ/WASIWA1hRGiyudZDx2J4DxLntyICOin2dx6dLMOM5BTpCLbajw0vHQaJA3Qk0VXtVoNcZHOZgm5cGzDXHY6XPI2GmOr/316bhob+dh8cenYd/fGKeqHRpgGhAd0y2RIFGzjOy6a6ZGsAN2A4xVZotFRotoPbWfLT66i6g+TzBjsu0BOqC9TAP3ZXjQcgJMlvz0+UZRFNjKLUPEnN1Vj+dKHXJS1OlGZv2XI+VLvA2vyiCwBIC10wtpZPJ9zEzjklFnL6+ctJELuCTaS2yls9jnd83H5yHbz88D48/VlZphvGwhAoRj2UqbatSfB0i1ZmtnVMJZoKdKXW0HV1eGiDnSl3y0rlSK8zLIh8RaPfTtBhdrUDdBfZqUHvuNMEec2zalIoXHq1BnQLNJHwmFVlLqG3Q5z5ZYAbI3D96yzR89a9eCg9+fR5VGtbjqe+9nAwQ8zBen0oDeuRQ24eO71nPIz8myGwF6ARmziRSkbWlOkfLkSUtEfBcqRXqLh/d8tOeYtoT9aBKq5/uVOjccqhi20TLEbAeMZTlF79Raocaysfd85aZlK+zfhZbRgSjR6URd/7ff3EhfP0r86jSsB7w0hggqpcG1Jg95ACxK3EJRWji++P75DdMDjMeE+S8dbDNeqyauESwCbC1yweIDOFZWI92gy3VWdveGcRm7WGEuhDtINyrq/TIY9O8yAh3YYfi4d4l8LtscYzMtbhfey6857pzAYlFtu9MLHqBCAb3O36lOUbM+V2/9JyF7R64bz9R6Ue/PbcBYq7Sz2aTLVRp5nkgNv3s03P7v7EGMd8RvuvaUa8DP0O7yn76ePM6tLq/4/qZPUbbtb/9huZn2uL49hvL+9tvej609jfshrcv2ZGQhNeg7dsxoWLJSz6x8ra37oV85yQL2222ya33FgdGrlgAGok9uuFR+oz+dLXjr/3ZeQvbffgNP09U+pGH2gPEONmiKs3JFo94tBKXDvoGVzuNI/squ8ZzTHLNDXDCjLYFzTY/wXAVVRotEntWSQJa5+pCUZGIhGjHZ35/r6jSDOMtJltCmHieB7xySaU5JY5PXGQ6HqzzDutr0W2f+vj+YlGth/K2md/kvVnuAgY/DF/RV+5MAhJ8ht6wtg9Aw6p8+YEXo5fuCuO1JlsE6lVnD4c+h6P89zBAt3i0hPESYLb5gYWeZMo3hxoJPhiIDbqhiOLtM4t6oN4zIx4Pf+MlC+N1TbYgjDebpOml6qWp0toO+r4vgz92YR7C7/3u3qK2x62747IaMQGHI/qCSiPRZ+gN90LBABEDxS9+rlFphPHopQG1TonrZEueuASoLXFJZg+r29jsiiHylBeq2WZBTt4bYY6WowA1BoeIAJz7t+ER+fxHds16oBgjwngAeulkiw4Qs8mW1gARg1i87eHf+ma0bPlvYXzyrt94IQE6AWbbHxDoZbYDA8Q/+dDe4GCgAxHaQ+z68588b16aky1dYTxOtpRUuvrpg31i7v/0fgIzlHrbGY7vz5JrdNYLx5wV4wBR7AeUGuUFBt3mITz4wL55aUQ+dLIF1oNT4q3Jlmxli0U9NHFJ1x+qOuvxoCcy/j+GiJLFpTGD6LOIEZZtP4iZYgWgOe2bDw5P70wOXKe5dNnhfRGTRtQD3wIcICLi0aXSq0y21IFhqbc7nsPayw+dT+t53DI2deZ0bQfUeVwaCo1900r6HV1pNub7f9+E8TDTqGE8DhA1Gw+TLa0wHr10Rzae+ejON1B/gASxZDp8VDBrvgGgzoFmHnDBdsBLYwp88DBeCOHTv/O8WQ/c2rik0pxs0TyPPGe6K8+Dal0Hh+0PLyJE73nbCwnQ2+4wkveX3N1pTZW2WcSdSfjSHw0dmG7yMZjrgTAeoEbEo6TS8HstlV4y2VKjHW2Y8Qy+EZm0hBZKnQCzzQ9iMZSo0rLyIldqV2gbKMrgEFAjoQcJQUNvf/7fX2jCeLfNokoDanhpDhCx/lBVmjnTndl4Epu29zv82x66Gy7a30PfveM/NhAT6m3mt/XeItDIz7UVFp7iWLAejE2XgMYAEbdLG3pDPWhMh2OA+Nl795Mwnq5s4aJaqjRq1+VhPITwimE8vOkKtcXn7/vD/VZNjxY02/qEFTrRRPOo0l4sZR2o/WbyuLHl0BsGnQAaaaqwHZozPYRK1wFic8WQpktVZrut7LbeF5fMWyI5oV4RaCp1HvWwMN5tM5tyHhTqeQhY0YLVLauG8bomW6JCi+2wAeKgb3h8fwx9YPka2aLaFjjb+kQRaLMdos6FASJgJtDReqif3pnYxMjQ3+BYuY3ZQ8wilsJ4q6xssckWD+O18jw0xXR8PB74HWM2Npbl9ZUt28pu630RZmu1go8CDT9NoAvWI4E5AxphvNn0wH2c/AEoCOpEw3ogJ7sUxstXtlCl82KPpWw8/GeXq/XAOAX5GrpUqwXNNj9BoGPtB4c6DhDVehDqQsSjD+oH7n5h8HEWkqEYxgPUSDPFjiIy3D931wsBO5KcsKPOB94LoiVYY8j2S/fsBdv/aM9Cjgg76o67bemOn+njrmNkIeJnaPNjPres/as/bX5XX/eX9zfPaYtjhDPxerR4zOd4vEr7iY+cTyowYXX4NvPbem+xUrzcDiHx0olSe3mrLpUuTbZggPhKHQukgw69AUKotO5NGTGUE0url8aFuiit4PWmWW6Bt7qILRfRapsvqEXphnxxLRc+sMW3le/4wLf2XBjwmH2LVsWExxzjaMtV4n1lD1qrxLU+XkcZMSuHMDKgQThVmq2tNlalZmeyLSh1y0vzoqJFGO/O3cG/xjHzh2iHAo1jK4dgK8sdXpZQYMt6IdIqzFit3lohDrgJtReqIdCY8rdjPWceC9Q25mCRGsDLMUgONvuXrfX7AnDcxvnej+3bMigsheLxJz96Pj6H57t2vr7r53d9QFTaa3m0lHDbn0iU2j/piVLHyj8yUMwuBKGmKlnrQOOCY2nV0Btu70aI2TYFH12l+5Ta73vI+iGm2KrK+TFU2ZUZJRyS4jRUa4KsbabS7KdSWoE9pyDHYwI9DYgPI1zJneFLbfNjPF5nx3R3HBh6ocdtZzh5fwp0VGr9WovWgx07K+Z59HlpLNdCRGHo7X/8p1lbpa2gzaIsb7QcHSptMHs9EajzmRxmU2gADaV2uyFwU61bSg2YATeVWayHgZ2JQgJ5hNlF5PUzy6vA7OgqO6IVXBSB1/OYz/e18OF5GbEEmDE8UKij7Shaj+VQJ2CLWuH2aUNvP3riJQvjqfWIJXlZa5og521mO3KwE+thCt0A3RTZacCmUq9qPeillwIN2AE1LIfXBkFOOLLfSjvyWvA82lV2pODydTjWHc8jFh1L9I7RekRl7hog0kOrpyspjHvDaD0INIrLvG4aMBU99MYwHqGGjzYL0mU5AHYGMx5HL93lo6nc4qcTde6quiReOgIN1Ub/QbVL/UigXak//t49y1nBjOiqO1IC8Fq06+5QdRSlsRCeF3wcgzAn75FQx9ZH0GkYD6ohsen8YujXKi8koT42tVDaoEDPg31IbLkWQcbg0AeGvLVFy3ZkUCvQnQPDDGhVaoJdVGrx0Wo/lqq0KzQqLkF9MWl0mDtyy3WHX48qPUaoCXKMSyPcU4RaQnjo9A6oWyp9rKmcn1ddGgLwr9yXhvEMaAO7J4zXA3XvIJEK7XkrLNFLqGMrH+TYF/yQywe/1X/sT1dnrKlE0tVh7VjGhr+NVnfAbRMtDrP56jHGphXoJNoRB4cS7fBOb12UUlzagT6sqkv/5T802XhqPWJsmv65ZEPcfpjlwDEsh+9FtXY/HRWaA0VGO9gq0DhWpaY1c7C71Br3IOcdDJDrvc6OVFrs/B0ea8vXdLXw7Y1KL+5Um3ytj+FBS6m7VLrPekBleLFwIfXiHlLVpce+3izXItDRR/udtcx29ABN20GYDXCJfiSDRI18EOC81XPmsUAd+wf9RFXOWmQYIhVWd9yzUR+jLkn+GM+tu2MJW/47eO6ud++NO+qRRDwwSOwEusd6KMw50Memdlu1wZdredWlFtD01F0qLQpNmAl3UaHVS9N2OMyMepjtIMTaOtD00mxLQGPJGfJQbD/rLR8fYouFxvg/2cK/j9pL41uEKh3bLqhpOQpe2r5G1Xoo2FiudUhVlzAQVKijUgPokkJnXjpC3WU7YDFMoWUGEUC79VgH6thHLgAEGwV8vv/Y3OpfI6mqd3+u/XOsqeS6Sh73tYg+9f0cM4sGtYfwEP0Yg9uI7zGC7EW2Y2xaJ1w0lNcBdrxgVCaqlYfxUJp16I1VlxRqRj2K0Q4qt4TyVlZoGSAa0Kv4ae8LWI6o0O6pCTSSqbjSBkV3Sjt+Xtrx2tLzaz3nHyL8Dj5M8OFYkqVQR1jGcqBQR9sBpS5BTaAzDwig+6BGdtzQG4o2tsJ4HvGwMF7XhEsJaA4SaTO0Bby2u1KLSsdIB57jh1hbgZpe2trrmtXz8Ml7e+2d95NBqzteq4+XHvu9aex1epz93fhB2g2WwacziKPOxgPcK6t0BrVeMBvpy4VF3Pawqi6pQje2A5ZDbl5EZdaWEyzelgaGydS4Qu0+GjAntoPP87xpvQTq+MG/bhq+9oV9KwdhpRdeScIaqgX0+d8qPYfX4Hnd8RzUOuZ5eChvfNYD9/HgvT08Lt27BrGk1PSH6qd5cQ+x6hKLpxPsReJSA/aZK5FmWkg1FaWmn87BTqBWP014Sy3Pma0AzQ89bj0HkLiQly0WI3BBAp7jY32Oz/N32OprNzrGB8H/f5Q1hu1olLqZSRyL44jvk0AXbYf6aIbx8Fyu0niskQ9eVKjZYVRdCiF89+8WYTzeZYteet0ZRAMb4GKgqLaDx+6lqcxsT/v5oW1ZDwfavrU8genJb12wJC7AiGQubfuO8591PeaSM/x80/3uDzZ5HoCae4RlDAdmNzKVNrjppWN+xyKZJiarO9jRR5dU+tjUbkIEvzb0ZlWXfmFx27iF9eD0eEGhYUFEpXWiBTB3hvLop0vqrM/xw8zWwUb5BwJnC3Yd6uSYi3r5s01arJvc5Pf8dzDRY3keNzWDxNF5aXzoqNIGN0N4OkCMSr1GngcvKFqE8e4ZuOoSbnDzdFM8PUlY4pS4emc9Vph57CG8XqDNejR3qjVFzr20ni+PHWaE6X7647kthDCAsyqpmz6HpVeIKW/6+12/h9ooGvEYvZeO9oMqjTZCLRMuYj2iSutXLS/sRai6FL00J1oQk+YgUYHmMWH2ln66U6EdaIMZai2qrBakZT2OTW0dIwKYXQDxeSzQ5PGy9mc/mQfcHg43YFr22nV/jkjS79z6fDKDOAa3kbxHVWkqdTJAXAI0fHUczdN6CNC46IdddcksB4B2qHu9NMBWqH0anECzTTy1xqUFaIXbjnne1zZhOoTPks3LKRjk/IE+8J/bCmRC7q8DnHj+3g/txRDrD5509ffiUAnA/hx+PXle/i6f19dgFYyp9NgjHkxeWhrGA+AdM4icUGiF8XbOBQyMht5YdSkODqNKNytbbHbx1QU/LeqcTLZIjkcS8QDQptSTRKEToAEzYHeosZQMDJY2g9N/UHpN8pwDiD/25KPzxTfm8VnANDp8c/4f2e/L79n/538UDX/O9xafw88uhPCB314MEC13eswziAC7G+p0xUUr6kGFhv2gWvmFRujKOp+9OEQrVZeiSsNytJS6G+oINCCXaIcet9RafHRiOzz6gXvIKLT5qTpbxdcofPp76LsPn9ltgHZLePL4rLkNH/+g/kJ2vMJLDHS8Dh+cRqWbiMfovHQ+QDQbwkEi/bRaD6p0rtQawlOo/WsakwtDb1Z1iXaDrftoC+fRO2sLeHPrwUkXhuxKLa2He2nArEDbQoBj0+EnlUKwwvPJeAbX4PjMPC8mSFbdVgEbf2tRz2OsYbxssiUJ4eWDww6gWwNEUWlc7MOouoTORxiPCm0tpsFNpT2Mt2SiJao0LYcodUudfRYxh5n2w262tCpdK74Os3koddAALes/jzeLNQ4jIQwpp00YbxarLiWDrzE8SFJMXaE7B4iEWiIeywaIuOiHWXWJUC9gJtCFjLySSjOM1wU0ffQ1Pg2eRT2wvhLhtKE3rG6Ji2vz8hPHZ+H2G2cB0Y+htwfuW4TxxjnZIiqtg8RErQEyYWZbgtpnyVoDxFeeH7zq0jxYiS4AzX0BtU+Jmw3JvLQPDjXqwTBeosy5/ZDCNGo5ULZryA2I/vSH83D6uIxd2P8Am3bw+MyiH0P+3/hbsS4eIh4e9RiDMCfvUcN4BjWK1BQnWwTsgpfutB+HWHUJy7UAclRqh7gdxusHG1B3DgoJN/20jw8O5ZbSIQSsDLfBN/qYAhKh9ixJPD4+C9//zvCRJBS/GXUYD3QnUJeqLpmnFi+XA126EREHiQ7A4FWX5sFG/FRoto1SN9l4bbCltBgHhYRZbEcRbvfSKFQDlX7kqy8OK5DzEP7/ty40VgP9S6AVZh67UiMKMnQkCVEXLNcaNdQ2waJ5Hlyyxa84diQTlwpAm6poGI9A+0DxMKouofO16lJiOxDV0HWIGvXIIx7upQGywpzGphdVl2yB8LA4W5IRFtMayASarfW/CAoe+7VBbH5oN42V4haPPjLWo6TSEWqxHpmXRiaezSIC5gxoDBAPs+qSwdyyH1RkWI7MdijUAJmKTYuRt245EL0ZuoQDgETfJHF+wsw273+HGtGQwRPC5sEKRY5bpWWAaIq9LC6NDkVnd0BtcGdQX4yqS7Qci7xpBVmPF1PiHBiaOrtatwaJZjkmVqd6aEXEWkAUokn6sg9khfv4zO6jPvAXRsBqm7hc6ygMEM1XF6GWr74S0AC8Z8IFBcwH3aTqEmCOXppRDh0o4litx5pRj8P4QOLDgbWHCczoQwLNViHmsdsOJC8hy2/IDX8NWX5UaYTxRjeDqHFpDhRb0+LsTLTs7EylaTuiSlOpfar4h08O2/m4kP/nf55fwBwnWRqAY45HD9BU6djmluM1h2OZYF+QdtoCmn3KPkYb+16OHWrLwx6S6NAs9UqWa/kqlyRMtu0PuqDmIMRaDfazw3kB0OYKTaA9z+Mwqi5d2A+hvFxL4tKqznqcK7VEPGg9PvyG4UsJ42ONvrCQp/Zffsw+jkBzFtFbhxpRkiE3vL+H/59XXYJCj916JIlLy2LT+UXIoZZpcQwQBwl7udCjQcSDVZcS62FqvV42nk28ZFAPHnYMTdgxxu/RX3kf4jFhpkKzVVFxoJEkhSVZQ27o16QsL1a4jC4bTwaIZjkwYPFOaxRaFIIdnl8MB7plO1ylB5uYMJoXOcD33L4ons7IRxwgqirrcUGhdYCI23EMvSHBCH1AoO1bLe9DPmYfsy0pNa7P65uFALhVHvyvtvkxHq+6xwI1rtBHAuhk9tA7b+HpOvy0h/Ei1JlKD5VkQ4WGmvzzU81yrTg4lIy8Ti8NuHOo8fjqSXjnKxNDmI4eOtiLc7fQJlMGGPLsU2qCXFJp/ExFB8cc1GsYNptvsLESBIz7jX4zIsagS+2YFDqemKi0DhCTTrMO9gEK1YOq4q0qUJ4zjagBwkMH2QAxYENr+4VgobUEaI14XOk1PVSheZxDfXWTXHWQ95f/Lt4ubmmHgSCA5oedCt3rp9nHBDu2aZ4HrxFEiDu/aXktk5Yws71xN5w0sD2nI4N628eB8f2d5InwxOTTzGhHotSxQ92CoMMzoO1CqZ+mSvuU+EGqLqkyE2h4SMR177w2LcsLwGk9qNTJ1HgO81XN3QoGn7QIwW4JbR9uDJYJ9SoKTaDZ5v2Px7lKu1InAMt1jUEAXnO2xoIPBEcLNN74Eqjta54n0ZsAABCdSURBVEw7TTuVHd0BNb9iE6U+Ng1I2l97A80+GCTMyGuwOhX7IXztz9phvAZqnz3MQ3gF2/HgA8Nn0+FcrR/wwRagTak3hrodxotg+2DehMitRxFugoyWMEOlRw1zBHp34alwgvKJplLHDlsF6FLykig1RuebeNQIMuwGYUZFItSImy3CeIx6NArtYbwu6+FK/dFbpsUlU2t/8OQX8H5xrlzpQqDR6jcZ7Ufr2w5CAdFAn7PV/sexio0fR5i7gFaYeayWA4DfNBtZpdLsk1jy0syZBuBJx2mnUqXRFpQ6XkQCjXZnYkuO5NqvdBiB9uIpUGeUu9rzoocM49FPs6X1sJb+WXM9rpqE7//9Bt8aS941EomSbydXaPbJylAT7ATqHpX2lS7004lAiVgl15xAO8yjAvqkV89Jvl54QrlCMxOvGJfO4qYFoO2rlReSUO9MbLkWEsxX2jgAZOvqbLXbvEAhFBolZBHGo0JHHw0/DZAT27GYFscSr6E3vB8sSYvqjHNnP2St9VFXtENhpniYoAjQ2WIAis9aQKtSj06dOQukKo1PJk8qh1rDQPyKs0C/dGqm0Brt6IJ6lapLrYFgZjVMnb22Mop/oyrqu37pucW0OIrScLKlkF56x69MDmV50xc/sbcoicAPMqH2lv2CNu65KOhjAh2VWvof1yW3IB716I14QLH1upufHpHdOPnG3WC7wsxjhVq+mtgh7QGidCg7Wy8AjjHwUUXixd2ZhHe+dmplv0rq6GPARXiuR51Z4BtAIyyI4umcZDGYJTbNZCVGPFb5UJXeX99zSBzCucFaJZaD5679kfvpvP/0Mfs4Ai0TXrSBFBy29NFs5bpGK6JA3zAymLkY0hK6c6W2T6cotZy8wcxPPDuLnciWHa4XwaGOYPOietv3dW/qrJGNkjrvhjBD5frn/B4jzwS7zdl7rkuXa1GlDWQvJfbeX5vagLIPzk1+hplGg9lDlS2oATTOP4e5L+rBvk1gFkHhNeC1YeuTLYTX0hvkupo647FAHeO6234Q1dlV2lIEqc5s/SsnnqCfPAeIBJs+bensoQBdhHpnUq66REXWNvPOKMVFdT57tlFn3AEKtzv78h8v7oFoah0nW9xLX3E2oPrR0BsqSCUwd6m0A02oadHYtgbYFIk+sAlx1saoh4yHCLi1Y4T5xC1uNQRm5rx2Dg5xovJpbsGMjqMyaPIMOp0XwFtcqC7r0VV1KUY1AHUGM70zBoKwGigvgNuk4b4iKB371Pdetmw8DhBzqD92288HD9Mh6oJzUaB11Xii1D0qnfdd6zFVmq1dA1HrAtA2QMS17LIeY7Ia+ObIgYZaF4GGUiPiIZ/aHGr7xGun5R2aAW0wy8DHwFbrsTOxWzokaqnKnAFtMPeoM+6sitsRo5ITrIbuiHTAdvzoiZc2ioUn7zF7gGVVCcBuOWKko6TW4qc5MFxZpdHvBrXATIGR62MQZ9ZDrymPt91hxPcHmLmr7SDQLevRYTt44lDqBGp2ItsM6KgwOiVOhQLYHsZDuVdsuTLn6syb5lCdMRBEJSCoM24XDJifeHweHv32PNz9m4tsPIL92cO66dHrpM60FKmJkOuHWI85HZ55agM7+6aLfYk+5s5+11aAhj0k1HbdCiodYRnDwYk3L4DuVOo8Nm1x6fIAEWCb/dBO085kR+cXwwc9XV6aVZdyoG16WydRJExHqwHvDKtBdX7s0Xl45KF5wG2CNYyHO20hWWjoDcuqbHGALa71CAcHhXmbwZxYMVdsqnUEOO9LPGY/o9X+12O9Ri5EUZjETo6BY3uPJ27dDQZ0B9SmzvDVFvHIklNUqeXkCXSi0ug460jpXHR0fiF6rMeZVxQKVZci0BrVkBnBroFgrs4P/e08PPj1eUDUgV76K/etUflwReqRwmoqDJixlAttDrE+VqB5LOq81HLkMBPsODfg2Xi4Hgo0jjOocS3HBfOtewugC1CnQLeTUxI/vQxqVQYcs6M7oC55acBXBDqbESwNBKHOsBpUZ8CMykCohg+7gcpLWLo19IZlVbGmhyt0tBkKMo8JMVtRZap1VGgIQN5/+rhPnQtAq/UYFcz41Jk6A+i1VDqDWgeIDjRDeFTqRAUINTs6g5rqE1sOio4t/Oejf93cVUq986oDwccfmwfc5/qbDzbqDMthMelfOGtLtoaEGcYF+SNch5i0VGnx0olqE2Zt2Rf01AJz0U+jbwF33udRqQsKnan0aNTZgH4LYM6AFpUuDRCTEB4jHgq1h/IANe7XgYEcst2G3hVmy6bD3VI9X4PqrANBhOk4EKTVwO0XsDoa6oyKS0NvyCXBQt0EZK4e7wDaIh5QagWZx5lS21iDFk1VWY8pGBQQDZ8S9A7bMSqYI9CA2sDu99IRbnjp0gyihvFumAUAja/0QTaE5TS6od6ZVmO3ST4izIg5dw0Eoc6wGlhnd8cvT2xQCJ875Ia/hlIKRZgV6syCRKBLUItCq/WgOrNtWZBlUOdAe9RjdEAnUHd46Qgy49JxgJhbjzTigQJ/8Lqb5DUnYOXxZo05C8z5QBDqjBnBroEg1BkhO1T5R27H0BsiJVgl01vJ1GD2AaKU6I3Wg8qctwL2Sl5agY5KjUG62JHMT48S5hTo3ZW9dCsurdPiN8zstmO4Q9OBNv8wWKNQl9S5w2owTIdigxwIUp3v//S+TaAAutn0gO81O1H8NcSy40pxKnKpzRV655xFQOKgcVWYxU+3FBoWRKGm1ciBdqhHCzPfuFkO+ml4aPHRfRMubT/dqLTdQy+7yBs9JNQCdCvmzBlBST5ivgZjzqWBIEoGYEbQllUNy7OlqALmCPTVHbdeJuBeJw/KHEFmxIMtwYY649hVmtewtlkPLIM6tx6m0rmXvmkWfusNzw8zMSEQ52G6UuI+vfMqA0EL0736bDis6kfIA4nVSwk24c3bJbYjTosT6ApzRm7HwyLQmVIr1HZcABoDrYNuJpg50B1WA96ZMGOKWweCJauBYiool4Byut/9u+GXVSFDL7nDFtSZUJeUGkAD8q7wXa7QDnbHZaxPaw+sDfXNnsDkHhqF/BBCO/CWwzz31ds6vU2r4dl0hHnZQNBmBa+c2J2zDvw+sz+AJWPIoc6L1LDgo1kQVWhAzMdUaoItg8SSSut1q8cdPWBAY5KlI+KheR7JDKIr9cPfeCm7xJs/jDYDcLs691kNpoYiqoGYc0mdv/i5F63yEZZVPfv0wMY5hIDVLVzxQstBuKNKE2BtCTahpirnbVXnDnJ7nm6g9skWBbsjIw/WA3Df/cG9A0foiH8C8xJ1zhP3GaYrDQStZMBVk4D1fENv+IDgg6JAE2ZraTtek97mIio0Ae+Bmkrdc/nqj/IeSGzHkilx9dQAaYgthzlXZ6aGYgaS3rk0EESYTmcEP3vvvkUdYAlWXk2+xglhqViEOStSY+rst7ho2Q6CzBZqrXbDw3iMTefXqz5eoQcSqBnG6xggnnjjbgAsB97cASRAdw0EO1ahIExXshrI10CYDjChFsag2zxYzY4E5k2BpjqjFbuhobwVLl99SakHEutBqAu2412/8YIp5RCQJDAXvHPfGkFajVK+xr0f2rNst8NYVoX3jPAfV4knYBfq40UvXYp4QKUdakAcQfaBYuk61edW7IFEpXusB9RvqC0B2qsf5QNBDdNxINg3IxjDdNdMNquZ13dy82ATM2mBmsxHu1oz0qFAd9oPKjVV+prpeHKSV+Trkrwsgbqg0h/47b3BKsTDcSjQrRlBX4WCZVVYhaJhunxGENEWJB9Zvsa7d031DlLVtItp+HikniJbDzkhiToD5Mx6cJAYoe4bIBJq99OXBICj9p8mQBdUGmvyhthymPOB4J4XW4xrBJ9N1wh2pYbi5uuIDKCoy2Esq0JSUwPzojRvH9QGstsQU2wOBEutDw7hpY8aV5f0fBov3Y5Nf+Ij5wcJ06kq27EWWsyy6RjVyFNDuwaCCNMhYoBlVcN89BYfXywF41pEsxxU6KQ+XlmlqdC0HGjjihbCbUA3M4iXFICj9p9HlUbyktuOt711z1ZQLy7vZkctZe4YCDJxvyvmXBoI3veHTcmAwe7doqc4b4o+Qp2j3QDQhJp2I29lkGgKrdPiBJmtA33UeNqK88lVGt4Zg0HdMfjCY954hsds+Xxfqze2wTF33H8EOyzEFz513vbPf/J8uP8Pmv1P/9v58JmP7FklfEQ0sArFKnteOz2U2y/nZXm5wLZzcJh5aVoPKrXBTZCzdisAOIpvIiq1emmJTeskS0xc8inxt9/0fLDdV4njTqe6Y3VLrLqkZXmxkoLr3zSfV5cYcQlSqfLSzsQqFcGTD7Xx/oeE2BQ6FnvsuV9LBjUGiATarEchjHcUOdqac1oAvbAetCClnGlOiRdzpnUNYrZSnIVO4sJaJqN3AU24FWhNtdyZWGhtKA+td6il5Yi2w6IdPkDM7QYfi+1QqHOV3poLf5TfSG49CPSpNy0K1ahSd+VMJ6UPSvXxdI0bgWZLsAkyWwWaSfBYKX7snNkPVCA90Cb3EFeQ9bipj5cVTu8ZJJpCA3D30lRs5HccZY7quW3QA8mq6Z1hbseGZVUKcOm4iXg09fEshNcDNBXa1FkGiBucbv2Vy6EHFGrEou2GmRvK9NPfvdBMlGTFHXOoDeh8oiWHWmPRBFk89eVwbeo5btADSeWlnYmV/NqI53kIqNthYTnAuQRqQB4jHjnMBS9NhYb12OA0669cTj2gKo1ZNxQcX2ubNzeVjzOAiDV7VCNXZ33cwL8kNp0NEC+n61LP9QA9EKH2MB7yRFbdsKQMNe8ANDLqLKsONaR7oCbw9NOdEy4V6ANc1cv4VyPQCOeViqf30I1bV0R1hl2AhXCVVkUuHS9UWiwILQdb986X8eWpp75JD0Sos+LpPSyHZ5+ZB9SLVqBj3rOrtIKce+tEoW1qHPc+XNz/MP7dq6p33uSaXta/E4H22DQKkC/bkHLKlE9rqapsewaHC9vR+Oj4QeDvSntZX5h68pv3QAL1tdPQV6DRbirv+coRaoNQ7jrrN+1UleYxgcbjxnpIKzBDpTc/o/qbl3UPKNDw0qjRUdxwU/nbZnEGLwKNQZzCSBvBrDtRbLUfBje9t/5+hfmy5nGQk8+hRvH0fMNC2pifjFxljUYokIQUrcBMlWbbAL0YUNJ+DHJC9Y/UHiDUyPNAvrSG8ZB7/b7rpaIRl0kp2AK1hvEIcN4a0G49CHO1GpXDwXqAQKMF1Lh/ILPx7KbyWU4yk4b6lTq93yGgjiDz2CxKM0gc7GTqH6o9gB5QqFG8EfcCx03l70CRcixQLUHdaT3cThRsB61IYzsc8ivqQLBSOHAPKNAYIH7urhesgCOOWRsjgVpTPAk2rYd56W4fnSj1FWdrVGPga1n/nPcAk5dgOwxw1sEoQM2c5U7bAbg9jEdVVi/N5/CaegFqDxxKD+QqnVQqwiLV3HbkceksjNc3QCTQh3Ii9Y/WHmAP5FA3lqMpmJhbD6q0DRJpOxRqtx4cEKpC45j/Z21rDxxqD0So3XLEunJSGyNRaw/hRbDppT0jDzkcFeZDvWT1j9ceqD1Qe6D2QO2B2gO1B2oP1B6oPVB7oPZA7YHaA7UHag/UHqg9UHug9kDtgdoDtQdqD9QeqD1Qe6D2QO2B2gO1B2oPDNQD/w5nrRw+o7+xPQAAAABJRU5ErkJggg==;" vertex="1" parent="1">
          <mxGeometry x="480" y="210" width="80" height="80" as="geometry" />
        </mxCell>
        <mxCell id="ZifJmnDVHh8M5HppRdxN-45" value="Qwen2.5-VL-7B-Instruct" style="text;html=1;align=center;verticalAlign=middle;whiteSpace=wrap;rounded=0;" vertex="1" parent="1">
          <mxGeometry x="475" y="290" width="90" height="30" as="geometry" />
        </mxCell>
        <mxCell id="ZifJmnDVHh8M5HppRdxN-46" value="&lt;b&gt;Extract Info&lt;/b&gt;" style="text;html=1;align=center;verticalAlign=middle;whiteSpace=wrap;rounded=0;fontSize=14;" vertex="1" parent="1">
          <mxGeometry x="475" y="170" width="90" height="30" as="geometry" />
        </mxCell>
        <mxCell id="ZifJmnDVHh8M5HppRdxN-53" value="VLM Content" style="text;whiteSpace=wrap;fontSize=9;align=center;" vertex="1" parent="1">
          <mxGeometry x="594" y="213" width="50" height="20" as="geometry" />
        </mxCell>
      </root>
    </mxGraphModel>
  </diagram>
</mxfile>
